font.ufo
<glyph name="exclam" format="1">
  <advance width="197"/>
  <unicode hex="0021"/>
  <note>
    exclam
  </note>
  <outline>
    <contour>
      <point x="114" y="127" type="line"/>
      <point x="119" y="296" type="line"/>
      <point x="119" y="444" type="line"/>
      <point x="78" y="444" type="line"/>
      <point x="78" y="296" type="line"/>
      <point x="83" y="127" type="line"/>
    </contour>
    <contour>
      <point x="120" y="0" type="line"/>
      <point x="120" y="61" type="line"/>
      <point x="77" y="61" type="line"/>
      <point x="77" y="0" type="line"/>
    </contour>
  </outline>
</glyph>
<glyph name="quotedbl" format="1">
  <advance width="309"/>
  <unicode hex="0022"/>
  <note>
    quotedbl
  </note>
  <outline>
    <contour>
      <point x="215" y="347" type="line"/>
      <point x="221" y="442" type="line" smooth="yes"/>
      <point x="222" y="455"/>
      <point x="221" y="470"/>
      <point x="219" y="485" type="curve"/>
      <point x="187" y="485" type="line"/>
      <point x="184" y="470"/>
      <point x="183" y="455"/>
      <point x="184" y="442" type="curve" smooth="yes"/>
      <point x="191" y="347" type="line"/>
    </contour>
    <contour>
      <point x="119" y="347" type="line"/>
      <point x="125" y="442" type="line" smooth="yes"/>
      <point x="126" y="455"/>
      <point x="126" y="470"/>
      <point x="124" y="485" type="curve"/>
      <point x="90" y="485" type="line"/>
      <point x="88" y="470"/>
      <point x="88" y="455"/>
      <point x="89" y="442" type="curve" smooth="yes"/>
      <point x="94" y="347" type="line"/>
    </contour>
  </outline>
</glyph>
<glyph name="numbersign" format="1">
  <advance width="530"/>
  <unicode hex="0023"/>
  <note>
    numbersign
  </note>
  <outline>
    <contour>
      <point x="189" y="133" type="line"/>
      <point x="309" y="133" type="line"/>
      <point x="291" y="-1" type="line"/>
      <point x="332" y="-3" type="line"/>
      <point x="350" y="133" type="line"/>
      <point x="434" y="133" type="line"/>
      <point x="434" y="170" type="line"/>
      <point x="355" y="170" type="line"/>
      <point x="371" y="284" type="line"/>
      <point x="453" y="284" type="line"/>
      <point x="453" y="321" type="line"/>
      <point x="376" y="321" type="line"/>
      <point x="393" y="452" type="line"/>
      <point x="354" y="454" type="line"/>
      <point x="335" y="321" type="line"/>
      <point x="215" y="321" type="line"/>
      <point x="233" y="452" type="line"/>
      <point x="193" y="454" type="line"/>
      <point x="174" y="321" type="line"/>
      <point x="88" y="321" type="line"/>
      <point x="88" y="284" type="line"/>
      <point x="169" y="284" type="line"/>
      <point x="154" y="170" type="line"/>
      <point x="70" y="170" type="line"/>
      <point x="70" y="133" type="line"/>
      <point x="149" y="133" type="line"/>
      <point x="131" y="-1" type="line"/>
      <point x="171" y="-3" type="line"/>
    </contour>
    <contour>
      <point x="210" y="284" type="line"/>
      <point x="330" y="284" type="line"/>
      <point x="314" y="170" type="line"/>
      <point x="194" y="170" type="line"/>
    </contour>
  </outline>
</glyph>
<glyph name="dollar" format="1">
  <advance width="504"/>
  <unicode hex="0024"/>
  <outline>
    <contour>
      <point x="453" y="178" type="curve" smooth="yes"/>
      <point x="453" y="289"/>
      <point x="370" y="332"/>
      <point x="288" y="367" type="curve" smooth="yes"/>
      <point x="211" y="401"/>
      <point x="138" y="429"/>
      <point x="138" y="501" type="curve" smooth="yes"/>
      <point x="138" y="563"/>
      <point x="189" y="605"/>
      <point x="271" y="605" type="curve" smooth="yes"/>
      <point x="323" y="605"/>
      <point x="381" y="587"/>
      <point x="416" y="565" type="curve"/>
      <point x="416" y="649" type="line"/>
      <point x="374" y="671"/>
      <point x="318" y="680"/>
      <point x="269" y="680" type="curve" smooth="yes"/>
      <point x="151" y="680"/>
      <point x="53" y="615"/>
      <point x="53" y="497" type="curve" smooth="yes"/>
      <point x="53" y="390"/>
      <point x="133" y="347"/>
      <point x="212" y="312" type="curve" smooth="yes"/>
      <point x="293" y="277"/>
      <point x="370" y="250"/>
      <point x="370" y="176" type="curve" smooth="yes"/>
      <point x="370" y="105"/>
      <point x="318" y="67"/>
      <point x="234" y="67" type="curve" smooth="yes"/>
      <point x="168" y="67"/>
      <point x="100" y="89"/>
      <point x="56" y="123" type="curve"/>
      <point x="56" y="36" type="line"/>
      <point x="104" y="8"/>
      <point x="172" y="-7"/>
      <point x="236" y="-7" type="curve" smooth="yes"/>
      <point x="359" y="-7"/>
      <point x="453" y="57"/>
    </contour>
    <contour>
      <point x="264" y="-109" type="line"/>
      <point x="264" y="38" type="line"/>
      <point x="196" y="38" type="line"/>
      <point x="196" y="-109" type="line"/>
    </contour>
    <contour>
      <point x="315" y="645" type="line"/>
      <point x="315" y="783" type="line"/>
      <point x="246" y="783" type="line"/>
      <point x="246" y="645" type="line"/>
    </contour>
  </outline>
</glyph>
<glyph name="percent" format="1">
  <advance width="846"/>
  <unicode hex="0025"/>
  <outline>
    <contour>
      <point x="280" y="-1" type="line"/>
      <point x="639" y="665" type="line"/>
      <point x="563" y="665" type="line"/>
      <point x="205" y="-1" type="line"/>
    </contour>
    <contour>
      <point x="365" y="514" type="curve" smooth="yes"/>
      <point x="365" y="601"/>
      <point x="294" y="672"/>
      <point x="207" y="672" type="curve" smooth="yes"/>
      <point x="120" y="672"/>
      <point x="49" y="601"/>
      <point x="49" y="514" type="curve" smooth="yes"/>
      <point x="49" y="427"/>
      <point x="120" y="356"/>
      <point x="207" y="356" type="curve" smooth="yes"/>
      <point x="294" y="356"/>
      <point x="365" y="427"/>
    </contour>
    <contour>
      <point x="117" y="514" type="curve" smooth="yes"/>
      <point x="117" y="564"/>
      <point x="157" y="604"/>
      <point x="207" y="604" type="curve" smooth="yes"/>
      <point x="257" y="604"/>
      <point x="297" y="564"/>
      <point x="297" y="514" type="curve" smooth="yes"/>
      <point x="297" y="465"/>
      <point x="257" y="425"/>
      <point x="207" y="425" type="curve" smooth="yes"/>
      <point x="157" y="425"/>
      <point x="117" y="465"/>
    </contour>
    <contour>
      <point x="797" y="151" type="curve" smooth="yes"/>
      <point x="797" y="237"/>
      <point x="725" y="309"/>
      <point x="639" y="309" type="curve" smooth="yes"/>
      <point x="551" y="309"/>
      <point x="481" y="237"/>
      <point x="481" y="151" type="curve" smooth="yes"/>
      <point x="481" y="63"/>
      <point x="551" y="-7"/>
      <point x="639" y="-7" type="curve" smooth="yes"/>
      <point x="725" y="-7"/>
      <point x="797" y="63"/>
    </contour>
    <contour>
      <point x="549" y="151" type="curve" smooth="yes"/>
      <point x="549" y="200"/>
      <point x="589" y="241"/>
      <point x="639" y="241" type="curve" smooth="yes"/>
      <point x="688" y="241"/>
      <point x="729" y="200"/>
      <point x="729" y="151" type="curve" smooth="yes"/>
      <point x="729" y="101"/>
      <point x="688" y="61"/>
      <point x="639" y="61" type="curve" smooth="yes"/>
      <point x="589" y="61"/>
      <point x="549" y="101"/>
    </contour>
  </outline>
</glyph>
<glyph name="ampersand" format="1">
  <advance width="703"/>
  <unicode hex="0026"/>
  <outline>
    <contour>
      <point x="701" y="0" type="line"/>
      <point x="325" y="350" type="line"/>
      <point x="240" y="435"/>
      <point x="214" y="474"/>
      <point x="214" y="522" type="curve" smooth="yes"/>
      <point x="214" y="585"/>
      <point x="259" y="619"/>
      <point x="317" y="619" type="curve" smooth="yes"/>
      <point x="392" y="619"/>
      <point x="427" y="571"/>
      <point x="427" y="517" type="curve" smooth="yes"/>
      <point x="427" y="458"/>
      <point x="385" y="417"/>
      <point x="290" y="374" type="curve"/>
      <point x="343" y="327" type="line"/>
      <point x="466" y="381"/>
      <point x="508" y="443"/>
      <point x="508" y="518" type="curve" smooth="yes"/>
      <point x="508" y="614"/>
      <point x="433" y="690"/>
      <point x="319" y="690" type="curve" smooth="yes"/>
      <point x="206" y="690"/>
      <point x="132" y="623"/>
      <point x="132" y="523" type="curve" smooth="yes"/>
      <point x="132" y="448"/>
      <point x="180" y="391"/>
      <point x="266" y="306" type="curve"/>
      <point x="595" y="0" type="line"/>
    </contour>
    <contour>
      <point x="622" y="267" type="curve"/>
      <point x="547" y="267" type="line"/>
      <point x="536" y="134"/>
      <point x="439" y="64"/>
      <point x="314" y="64" type="curve" smooth="yes"/>
      <point x="218" y="64"/>
      <point x="146" y="107"/>
      <point x="146" y="177" type="curve" smooth="yes"/>
      <point x="146" y="239"/>
      <point x="200" y="273"/>
      <point x="292" y="307" type="curve"/>
      <point x="236" y="354" type="line"/>
      <point x="126" y="314"/>
      <point x="65" y="261"/>
      <point x="65" y="176" type="curve" smooth="yes"/>
      <point x="65" y="69"/>
      <point x="166" y="-8"/>
      <point x="317" y="-8" type="curve" smooth="yes"/>
      <point x="506" y="-8"/>
      <point x="609" y="113"/>
    </contour>
  </outline>
</glyph>
<glyph name="quotesingle" format="1">
  <advance width="214"/>
  <unicode hex="0027"/>
  <note>
    quotesingle
  </note>
  <outline>
    <contour>
      <point x="119" y="331" type="line"/>
      <point x="125" y="426" type="line" smooth="yes"/>
      <point x="126" y="439"/>
      <point x="126" y="454"/>
      <point x="124" y="469" type="curve"/>
      <point x="90" y="469" type="line"/>
      <point x="88" y="454"/>
      <point x="88" y="439"/>
      <point x="89" y="426" type="curve" smooth="yes"/>
      <point x="95" y="331" type="line"/>
    </contour>
  </outline>
</glyph>
<glyph name="parenleft" format="1">
  <advance width="256"/>
  <unicode hex="0028"/>
  <note>
    parenleft
  </note>
  <outline>
    <contour>
      <point x="182" y="-66" type="curve"/>
      <point x="182" y="-32" type="line"/>
      <point x="117" y="-32" type="line"/>
      <point x="117" y="475" type="line"/>
      <point x="182" y="475" type="line"/>
      <point x="182" y="509" type="line"/>
      <point x="169" y="512"/>
      <point x="152" y="514"/>
      <point x="133" y="514" type="curve"/>
      <point x="105" y="504"/>
      <point x="81" y="488"/>
      <point x="76" y="464" type="curve"/>
      <point x="76" y="-21" type="line"/>
      <point x="81" y="-44"/>
      <point x="105" y="-61"/>
      <point x="133" y="-70" type="curve"/>
      <point x="152" y="-70"/>
      <point x="169" y="-69"/>
    </contour>
  </outline>
</glyph>
<glyph name="parenright" format="1">
  <advance width="256"/>
  <unicode hex="0029"/>
  <note>
    parenright
  </note>
  <outline>
    <contour>
      <point x="180" y="-21" type="curve"/>
      <point x="180" y="464" type="line"/>
      <point x="175" y="488"/>
      <point x="151" y="504"/>
      <point x="123" y="514" type="curve"/>
      <point x="104" y="514"/>
      <point x="87" y="512"/>
      <point x="74" y="509" type="curve"/>
      <point x="74" y="475" type="line"/>
      <point x="139" y="475" type="line"/>
      <point x="139" y="-32" type="line"/>
      <point x="74" y="-32" type="line"/>
      <point x="74" y="-66" type="line"/>
      <point x="87" y="-69"/>
      <point x="104" y="-70"/>
      <point x="123" y="-70" type="curve"/>
      <point x="151" y="-61"/>
      <point x="175" y="-44"/>
    </contour>
  </outline>
</glyph>
<glyph name="asterisk" format="1">
  <advance width="363"/>
  <unicode hex="002A"/>
  <note>
    asterisk
  </note>
  <outline>
    <contour>
      <point x="180" y="322" type="line"/>
      <point x="183" y="322" type="line"/>
      <point x="241" y="233" type="line"/>
      <point x="270" y="254" type="line"/>
      <point x="203" y="337" type="line"/>
      <point x="204" y="339" type="line"/>
      <point x="298" y="365" type="line"/>
      <point x="287" y="399" type="line"/>
      <point x="195" y="363" type="line"/>
      <point x="194" y="364" type="line"/>
      <point x="201" y="469" type="line"/>
      <point x="163" y="469" type="line"/>
      <point x="169" y="364" type="line"/>
      <point x="168" y="363" type="line"/>
      <point x="76" y="399" type="line"/>
      <point x="66" y="365" type="line"/>
      <point x="159" y="339" type="line"/>
      <point x="160" y="337" type="line"/>
      <point x="93" y="254" type="line"/>
      <point x="123" y="233" type="line"/>
    </contour>
  </outline>
</glyph>
<glyph name="plus" format="1">
  <advance width="553"/>
  <unicode hex="002B"/>
  <outline>
    <contour>
      <point x="309" y="115" type="line"/>
      <point x="309" y="565" type="line"/>
      <point x="237" y="565" type="line"/>
      <point x="237" y="115" type="line"/>
    </contour>
    <contour>
      <point x="496" y="304" type="line"/>
      <point x="496" y="375" type="line"/>
      <point x="57" y="375" type="line"/>
      <point x="57" y="304" type="line"/>
    </contour>
  </outline>
</glyph>
<glyph name="comma" format="1">
  <advance width="179"/>
  <unicode hex="002C"/>
  <note>
    comma
  </note>
  <outline>
    <contour>
      <point x="128" y="19" type="curve" smooth="yes"/>
      <point x="128" y="49"/>
      <point x="113" y="65"/>
      <point x="84" y="65" type="curve" smooth="yes"/>
      <point x="72" y="65"/>
      <point x="60" y="62"/>
      <point x="52" y="60" type="curve"/>
      <point x="52" y="31" type="line"/>
      <point x="92" y="31" type="line"/>
      <point x="92" y="-13"/>
      <point x="83" y="-39"/>
      <point x="67" y="-67" type="curve"/>
      <point x="94" y="-73" type="line"/>
      <point x="115" y="-46"/>
      <point x="128" y="-15"/>
    </contour>
  </outline>
</glyph>
<glyph name="hyphen" format="1">
  <advance width="283"/>
  <unicode hex="002D"/>
  <note>
    hyphen
  </note>
  <outline>
    <contour>
      <point x="236" y="180" type="line"/>
      <point x="236" y="217" type="line"/>
      <point x="47" y="217" type="line"/>
      <point x="47" y="180" type="line"/>
    </contour>
  </outline>
</glyph>
<glyph name="period" format="1">
  <advance width="177"/>
  <unicode hex="002E"/>
  <note>
    period
  </note>
  <outline>
    <contour>
      <point x="115" y="0" type="line"/>
      <point x="115" y="52" type="line"/>
      <point x="61" y="52" type="line"/>
      <point x="61" y="0" type="line"/>
    </contour>
  </outline>
</glyph>
<glyph name="slash" format="1">
  <advance width="355"/>
  <unicode hex="002F"/>
  <note>
    slash
  </note>
  <outline>
    <contour>
      <point x="291" y="469" type="line"/>
      <point x="254" y="479" type="line"/>
      <point x="64" y="-57" type="line"/>
      <point x="102" y="-67" type="line"/>
    </contour>
  </outline>
</glyph>
<glyph name="zero" format="1">
  <advance width="544"/>
  <unicode hex="0030"/>
  <outline>
    <contour>
      <point x="501" y="329" type="curve" smooth="yes"/>
      <point x="501" y="536"/>
      <point x="409" y="662"/>
      <point x="270" y="662" type="curve" smooth="yes"/>
      <point x="136" y="662"/>
      <point x="43" y="536"/>
      <point x="43" y="329" type="curve" smooth="yes"/>
      <point x="43" y="126"/>
      <point x="132" y="-8"/>
      <point x="270" y="-8" type="curve" smooth="yes"/>
      <point x="421" y="-8"/>
      <point x="501" y="131"/>
    </contour>
    <contour>
      <point x="123" y="329" type="curve" smooth="yes"/>
      <point x="123" y="504"/>
      <point x="196" y="588"/>
      <point x="270" y="588" type="curve" smooth="yes"/>
      <point x="352" y="588"/>
      <point x="421" y="504"/>
      <point x="421" y="329" type="curve" smooth="yes"/>
      <point x="421" y="157"/>
      <point x="360" y="66"/>
      <point x="270" y="66" type="curve" smooth="yes"/>
      <point x="190" y="66"/>
      <point x="123" y="157"/>
    </contour>
  </outline>
</glyph>
<glyph name="one" format="1">
  <advance width="322"/>
  <unicode hex="0031"/>
  <outline>
    <contour>
      <point x="246" y="0" type="line"/>
      <point x="246" y="654" type="line"/>
      <point x="172" y="654" type="line"/>
      <point x="18" y="561" type="line"/>
      <point x="18" y="476" type="line"/>
      <point x="169" y="569" type="line"/>
      <point x="169" y="0" type="line"/>
    </contour>
  </outline>
</glyph>
<glyph name="two" format="1">
  <advance width="494"/>
  <unicode hex="0032"/>
  <outline>
    <contour>
      <point x="430" y="465" type="curve" smooth="yes"/>
      <point x="430" y="597"/>
      <point x="331" y="661"/>
      <point x="222" y="661" type="curve" smooth="yes"/>
      <point x="166" y="661"/>
      <point x="103" y="640"/>
      <point x="59" y="606" type="curve"/>
      <point x="59" y="528" type="line"/>
      <point x="107" y="564"/>
      <point x="167" y="587"/>
      <point x="215" y="587" type="curve" smooth="yes"/>
      <point x="295" y="587"/>
      <point x="349" y="543"/>
      <point x="349" y="458" type="curve" smooth="yes"/>
      <point x="349" y="330"/>
      <point x="188" y="179"/>
      <point x="38" y="67" type="curve"/>
      <point x="78" y="18" type="line"/>
      <point x="283" y="163"/>
      <point x="430" y="320"/>
    </contour>
    <contour>
      <point x="451" y="0" type="line"/>
      <point x="451" y="69" type="line"/>
      <point x="115" y="69" type="line"/>
      <point x="38" y="67" type="line"/>
      <point x="38" y="0" type="line"/>
    </contour>
  </outline>
</glyph>
<glyph name="three" format="1">
  <advance width="465"/>
  <unicode hex="0033"/>
  <outline>
    <contour>
      <point x="414" y="180" type="curve" smooth="yes"/>
      <point x="414" y="277"/>
      <point x="341" y="336"/>
      <point x="241" y="337" type="curve"/>
      <point x="240" y="317" type="line"/>
      <point x="346" y="336"/>
      <point x="396" y="405"/>
      <point x="396" y="489" type="curve" smooth="yes"/>
      <point x="396" y="580"/>
      <point x="328" y="661"/>
      <point x="191" y="661" type="curve" smooth="yes"/>
      <point x="139" y="661"/>
      <point x="86" y="642"/>
      <point x="58" y="624" type="curve"/>
      <point x="58" y="548" type="line"/>
      <point x="92" y="570"/>
      <point x="144" y="588"/>
      <point x="190" y="588" type="curve" smooth="yes"/>
      <point x="265" y="588"/>
      <point x="315" y="555"/>
      <point x="315" y="481" type="curve" smooth="yes"/>
      <point x="315" y="407"/>
      <point x="252" y="365"/>
      <point x="182" y="365" type="curve"/>
      <point x="182" y="297" type="line"/>
      <point x="279" y="297"/>
      <point x="334" y="257"/>
      <point x="334" y="185" type="curve" smooth="yes"/>
      <point x="334" y="117"/>
      <point x="286" y="67"/>
      <point x="199" y="67" type="curve" smooth="yes"/>
      <point x="141" y="67"/>
      <point x="87" y="79"/>
      <point x="38" y="105" type="curve"/>
      <point x="38" y="27" type="line"/>
      <point x="82" y="6"/>
      <point x="149" y="-6"/>
      <point x="201" y="-6" type="curve" smooth="yes"/>
      <point x="342" y="-6"/>
      <point x="414" y="78"/>
    </contour>
    <contour>
      <point x="238" y="297" type="line"/>
      <point x="238" y="365" type="line"/>
      <point x="139" y="365" type="line"/>
      <point x="139" y="297" type="line"/>
    </contour>
  </outline>
</glyph>
<glyph name="four" format="1">
  <advance width="540"/>
  <unicode hex="0034"/>
  <outline>
    <contour>
      <point x="121" y="228" type="line"/>
      <point x="368" y="654" type="line"/>
      <point x="292" y="654" type="line"/>
      <point x="42" y="228" type="line"/>
    </contour>
    <contour>
      <point x="516" y="159" type="line"/>
      <point x="516" y="228" type="line"/>
      <point x="42" y="228" type="line"/>
      <point x="42" y="159" type="line"/>
    </contour>
    <contour>
      <point x="419" y="0" type="line"/>
      <point x="419" y="654" type="line"/>
      <point x="342" y="654" type="line"/>
      <point x="342" y="0" type="line"/>
    </contour>
  </outline>
</glyph>
<glyph name="six" format="1">
  <advance width="526"/>
  <unicode hex="0036"/>
  <outline>
    <contour>
      <point x="490" y="213" type="curve" smooth="yes"/>
      <point x="490" y="337"/>
      <point x="417" y="421"/>
      <point x="296" y="421" type="curve" smooth="yes"/>
      <point x="221" y="421"/>
      <point x="142" y="379"/>
      <point x="106" y="317" type="curve"/>
      <point x="107" y="246" type="line"/>
      <point x="141" y="301"/>
      <point x="208" y="350"/>
      <point x="287" y="350" type="curve" smooth="yes"/>
      <point x="359" y="350"/>
      <point x="409" y="299"/>
      <point x="409" y="214" type="curve" smooth="yes"/>
      <point x="409" y="124"/>
      <point x="362" y="61"/>
      <point x="284" y="61" type="curve" smooth="yes"/>
      <point x="197" y="61"/>
      <point x="130" y="135"/>
      <point x="130" y="296" type="curve" smooth="yes"/>
      <point x="130" y="449"/>
      <point x="201" y="601"/>
      <point x="353" y="601" type="curve" smooth="yes"/>
      <point x="387" y="601"/>
      <point x="417" y="594"/>
      <point x="443" y="581" type="curve"/>
      <point x="443" y="658" type="line"/>
      <point x="416" y="668"/>
      <point x="388" y="673"/>
      <point x="352" y="673" type="curve" smooth="yes"/>
      <point x="159" y="673"/>
      <point x="53" y="505"/>
      <point x="53" y="296" type="curve" smooth="yes"/>
      <point x="53" y="120"/>
      <point x="130" y="-10"/>
      <point x="284" y="-10" type="curve" smooth="yes"/>
      <point x="408" y="-10"/>
      <point x="490" y="80"/>
    </contour>
  </outline>
</glyph>
<glyph name="seven" format="1">
  <advance width="450"/>
  <unicode hex="0037"/>
  <outline>
    <contour>
      <point x="168" y="0" type="line"/>
      <point x="438" y="585" type="line"/>
      <point x="356" y="585" type="line"/>
      <point x="84" y="0" type="line"/>
    </contour>
    <contour>
      <point x="438" y="585" type="line"/>
      <point x="438" y="654" type="line"/>
      <point x="12" y="654" type="line"/>
      <point x="12" y="585" type="line"/>
    </contour>
  </outline>
</glyph>
<glyph name="eight" format="1">
  <advance width="535"/>
  <unicode hex="0038"/>
  <outline>
    <contour>
      <point x="484" y="170" type="curve" smooth="yes"/>
      <point x="484" y="291"/>
      <point x="388" y="341"/>
      <point x="264" y="341" type="curve" smooth="yes"/>
      <point x="143" y="341"/>
      <point x="51" y="279"/>
      <point x="51" y="165" type="curve" smooth="yes"/>
      <point x="51" y="57"/>
      <point x="146" y="-8"/>
      <point x="264" y="-8" type="curve" smooth="yes"/>
      <point x="386" y="-8"/>
      <point x="484" y="60"/>
    </contour>
    <contour>
      <point x="131" y="169" type="curve" smooth="yes"/>
      <point x="131" y="231"/>
      <point x="169" y="290"/>
      <point x="265" y="291" type="curve"/>
      <point x="365" y="291"/>
      <point x="405" y="235"/>
      <point x="405" y="177" type="curve" smooth="yes"/>
      <point x="405" y="117"/>
      <point x="360" y="61"/>
      <point x="265" y="61" type="curve" smooth="yes"/>
      <point x="174" y="61"/>
      <point x="131" y="112"/>
    </contour>
    <contour>
      <point x="142" y="478" type="curve" smooth="yes"/>
      <point x="142" y="538"/>
      <point x="186" y="592"/>
      <point x="264" y="592" type="curve" smooth="yes"/>
      <point x="350" y="592"/>
      <point x="389" y="540"/>
      <point x="389" y="479" type="curve" smooth="yes"/>
      <point x="389" y="403"/>
      <point x="336" y="363"/>
      <point x="268" y="363" type="curve" smooth="yes"/>
      <point x="199" y="363"/>
      <point x="142" y="398"/>
    </contour>
    <contour>
      <point x="469" y="476" type="curve" smooth="yes"/>
      <point x="469" y="603"/>
      <point x="368" y="661"/>
      <point x="264" y="661" type="curve" smooth="yes"/>
      <point x="162" y="661"/>
      <point x="62" y="599"/>
      <point x="62" y="477" type="curve" smooth="yes"/>
      <point x="62" y="375"/>
      <point x="144" y="311"/>
      <point x="264" y="311" type="curve" smooth="yes"/>
      <point x="386" y="311"/>
      <point x="469" y="377"/>
    </contour>
  </outline>
</glyph>
<glyph name="nine" format="1">
  <advance width="503"/>
  <unicode hex="0039"/>
  <outline>
    <contour>
      <point x="461" y="374" type="curve" smooth="yes"/>
      <point x="461" y="528"/>
      <point x="396" y="662"/>
      <point x="241" y="662" type="curve" smooth="yes"/>
      <point x="111" y="662"/>
      <point x="36" y="567"/>
      <point x="36" y="447" type="curve" smooth="yes"/>
      <point x="36" y="314"/>
      <point x="131" y="234"/>
      <point x="232" y="234" type="curve" smooth="yes"/>
      <point x="321" y="234"/>
      <point x="369" y="264"/>
      <point x="408" y="335" type="curve"/>
      <point x="407" y="405" type="line"/>
      <point x="383" y="352"/>
      <point x="331" y="304"/>
      <point x="252" y="304" type="curve" smooth="yes"/>
      <point x="171" y="304"/>
      <point x="117" y="354"/>
      <point x="117" y="448" type="curve" smooth="yes"/>
      <point x="117" y="536"/>
      <point x="167" y="590"/>
      <point x="243" y="590" type="curve" smooth="yes"/>
      <point x="350" y="590"/>
      <point x="384" y="487"/>
      <point x="384" y="374" type="curve" smooth="yes"/>
      <point x="384" y="182"/>
      <point x="324" y="65"/>
      <point x="174" y="65" type="curve" smooth="yes"/>
      <point x="134" y="65"/>
      <point x="98" y="73"/>
      <point x="64" y="88" type="curve"/>
      <point x="64" y="11" type="line"/>
      <point x="99" y="-1"/>
      <point x="135" y="-8"/>
      <point x="177" y="-8" type="curve" smooth="yes"/>
      <point x="372" y="-8"/>
      <point x="461" y="144"/>
    </contour>
  </outline>
</glyph>
<glyph name="colon" format="1">
  <advance width="177"/>
  <unicode hex="003A"/>
  <note>
    colon
  </note>
  <outline>
    <contour>
      <point x="115" y="250" type="line"/>
      <point x="115" y="302" type="line"/>
      <point x="61" y="302" type="line"/>
      <point x="61" y="250" type="line"/>
    </contour>
    <contour>
      <point x="115" y="13" type="line"/>
      <point x="115" y="64" type="line"/>
      <point x="61" y="64" type="line"/>
      <point x="61" y="13" type="line"/>
    </contour>
  </outline>
</glyph>
<glyph name="semicolon" format="1">
  <advance width="199"/>
  <unicode hex="003B"/>
  <note>
    semicolon
  </note>
  <outline>
    <contour>
      <point x="138" y="55" type="curve" smooth="yes"/>
      <point x="138" y="85"/>
      <point x="123" y="101"/>
      <point x="93" y="101" type="curve" smooth="yes"/>
      <point x="81" y="101"/>
      <point x="70" y="99"/>
      <point x="61" y="96" type="curve"/>
      <point x="61" y="67" type="line"/>
      <point x="102" y="67" type="line"/>
      <point x="101" y="24"/>
      <point x="92" y="-2"/>
      <point x="76" y="-31" type="curve"/>
      <point x="103" y="-37" type="line"/>
      <point x="125" y="-10"/>
      <point x="138" y="21"/>
    </contour>
    <contour>
      <point x="124" y="250" type="line"/>
      <point x="124" y="302" type="line"/>
      <point x="70" y="302" type="line"/>
      <point x="70" y="250" type="line"/>
    </contour>
  </outline>
</glyph>
<glyph name="less" format="1">
  <advance width="526"/>
  <unicode hex="003C"/>
  <outline>
    <contour>
      <point x="477" y="195" type="line"/>
      <point x="140" y="342" type="line"/>
      <point x="477" y="486" type="line"/>
      <point x="477" y="567" type="line"/>
      <point x="57" y="379" type="line"/>
      <point x="57" y="303" type="line"/>
      <point x="477" y="115" type="line"/>
    </contour>
  </outline>
</glyph>
<glyph name="equal" format="1">
  <advance width="553"/>
  <unicode hex="003D"/>
  <outline>
    <contour>
      <point x="496" y="407" type="line"/>
      <point x="496" y="475" type="line"/>
      <point x="57" y="475" type="line"/>
      <point x="57" y="407" type="line"/>
    </contour>
    <contour>
      <point x="496" y="205" type="line"/>
      <point x="496" y="274" type="line"/>
      <point x="57" y="274" type="line"/>
      <point x="57" y="205" type="line"/>
    </contour>
  </outline>
</glyph>
<glyph name="greater" format="1">
  <advance width="526"/>
  <unicode hex="003E"/>
  <outline>
    <contour>
      <point x="469" y="303" type="line"/>
      <point x="469" y="379" type="line"/>
      <point x="49" y="567" type="line"/>
      <point x="49" y="486" type="line"/>
      <point x="386" y="342" type="line"/>
      <point x="49" y="195" type="line"/>
      <point x="49" y="115" type="line"/>
    </contour>
  </outline>
</glyph>
<glyph name="question" format="1">
  <advance width="450"/>
  <unicode hex="003F"/>
  <note>
    question
  </note>
  <outline>
    <contour>
      <point x="224" y="113" type="line"/>
      <point x="224" y="155" type="line" smooth="yes"/>
      <point x="224" y="174"/>
      <point x="226" y="178"/>
      <point x="240" y="188" type="curve" smooth="yes"/>
      <point x="320" y="248" type="line" smooth="yes"/>
      <point x="353" y="272"/>
      <point x="360" y="297"/>
      <point x="360" y="338" type="curve" smooth="yes"/>
      <point x="360" y="415"/>
      <point x="320" y="451"/>
      <point x="230" y="451" type="curve" smooth="yes"/>
      <point x="172" y="451"/>
      <point x="121" y="438"/>
      <point x="90" y="424" type="curve"/>
      <point x="90" y="408" type="line" smooth="yes"/>
      <point x="90" y="388"/>
      <point x="93" y="366"/>
      <point x="99" y="348" type="curve"/>
      <point x="129" y="348" type="line"/>
      <point x="129" y="400" type="line"/>
      <point x="160" y="409"/>
      <point x="194" y="414"/>
      <point x="228" y="414" type="curve" smooth="yes"/>
      <point x="293" y="414"/>
      <point x="319" y="392"/>
      <point x="319" y="337" type="curve" smooth="yes"/>
      <point x="319" y="290" type="line"/>
      <point x="206" y="207" type="line" smooth="yes"/>
      <point x="190" y="194"/>
      <point x="184" y="185"/>
      <point x="184" y="165" type="curve" smooth="yes"/>
      <point x="184" y="113" type="line"/>
    </contour>
    <contour>
      <point x="225" y="0" type="line"/>
      <point x="225" y="61" type="line"/>
      <point x="182" y="61" type="line"/>
      <point x="182" y="0" type="line"/>
    </contour>
  </outline>
</glyph>
<glyph name="at" format="1">
  <advance width="904"/>
  <unicode hex="0040"/>
  <outline>
    <contour>
      <point x="589" y="-133" type="curve"/>
      <point x="593" y="-57" type="line"/>
      <point x="535" y="-89"/>
      <point x="474" y="-100"/>
      <point x="415" y="-100" type="curve" smooth="yes"/>
      <point x="271" y="-100"/>
      <point x="135" y="-4"/>
      <point x="135" y="196" type="curve" smooth="yes"/>
      <point x="135" y="399"/>
      <point x="301" y="546"/>
      <point x="488" y="546" type="curve" smooth="yes"/>
      <point x="655" y="546"/>
      <point x="788" y="447"/>
      <point x="788" y="259" type="curve" smooth="yes"/>
      <point x="788" y="155"/>
      <point x="742" y="84"/>
      <point x="685" y="84" type="curve" smooth="yes"/>
      <point x="634" y="84"/>
      <point x="618" y="123"/>
      <point x="618" y="186" type="curve" smooth="yes"/>
      <point x="618" y="205"/>
      <point x="619" y="231"/>
      <point x="622" y="270" type="curve" smooth="yes"/>
      <point x="637" y="409" type="line"/>
      <point x="571" y="409" type="line"/>
      <point x="565" y="289"/>
      <point x="556" y="224"/>
      <point x="556" y="165" type="curve" smooth="yes"/>
      <point x="556" y="124"/>
      <point x="566" y="21"/>
      <point x="681" y="21" type="curve" smooth="yes"/>
      <point x="763" y="21"/>
      <point x="857" y="99"/>
      <point x="857" y="263" type="curve" smooth="yes"/>
      <point x="857" y="480"/>
      <point x="690" y="612"/>
      <point x="491" y="612" type="curve" smooth="yes"/>
      <point x="255" y="612"/>
      <point x="60" y="438"/>
      <point x="60" y="196" type="curve" smooth="yes"/>
      <point x="60" y="-11"/>
      <point x="192" y="-167"/>
      <point x="414" y="-167" type="curve" smooth="yes"/>
      <point x="466" y="-167"/>
      <point x="537" y="-160"/>
    </contour>
    <contour>
      <point x="584" y="150" type="curve"/>
      <point x="561" y="206" type="line"/>
      <point x="542" y="126"/>
      <point x="484" y="83"/>
      <point x="428" y="83" type="curve" smooth="yes"/>
      <point x="371" y="83"/>
      <point x="331" y="128"/>
      <point x="331" y="197" type="curve" smooth="yes"/>
      <point x="331" y="281"/>
      <point x="380" y="350"/>
      <point x="452" y="350" type="curve" smooth="yes"/>
      <point x="526" y="350"/>
      <point x="556" y="301"/>
      <point x="562" y="223" type="curve"/>
      <point x="596" y="273" type="line"/>
      <point x="579" y="360"/>
      <point x="535" y="414"/>
      <point x="450" y="414" type="curve" smooth="yes"/>
      <point x="340" y="414"/>
      <point x="257" y="321"/>
      <point x="257" y="202" type="curve" smooth="yes"/>
      <point x="257" y="100"/>
      <point x="315" y="19"/>
      <point x="416" y="19" type="curve" smooth="yes"/>
      <point x="496" y="19"/>
      <point x="555" y="71"/>
    </contour>
  </outline>
</glyph>
<glyph name="A" format="1">
  <advance width="648"/>
  <unicode hex="0041"/>
  <outline>
    <contour>
      <point x="121" y="0" type="line"/>
      <point x="217" y="284" type="line" smooth="yes"/>
      <point x="313" y="568"/>
      <point x="325" y="610"/>
      <point x="325" y="610" type="curve"/>
      <point x="325" y="610"/>
      <point x="337" y="568"/>
      <point x="431" y="285" type="curve" smooth="yes"/>
      <point x="526" y="0" type="line"/>
      <point x="613" y="0" type="line"/>
      <point x="381" y="674" type="line"/>
      <point x="270" y="674" type="line"/>
      <point x="35" y="0" type="line"/>
    </contour>
    <contour>
      <point x="500" y="177" type="line"/>
      <point x="500" y="246" type="line"/>
      <point x="148" y="246" type="line"/>
      <point x="148" y="177" type="line"/>
    </contour>
  </outline>
</glyph>
<glyph name="C" format="1">
  <advance width="602"/>
  <unicode hex="0043"/>
  <outline>
    <contour>
      <point x="560" y="34" type="curve"/>
      <point x="560" y="119" type="line"/>
      <point x="520" y="88"/>
      <point x="459" y="67"/>
      <point x="396" y="67" type="curve" smooth="yes"/>
      <point x="238" y="67"/>
      <point x="132" y="173"/>
      <point x="132" y="340" type="curve" smooth="yes"/>
      <point x="132" y="503"/>
      <point x="245" y="608"/>
      <point x="387" y="608" type="curve" smooth="yes"/>
      <point x="470" y="608"/>
      <point x="506" y="593"/>
      <point x="558" y="565" type="curve"/>
      <point x="558" y="647" type="line"/>
      <point x="510" y="673"/>
      <point x="454" y="683"/>
      <point x="387" y="683" type="curve" smooth="yes"/>
      <point x="196" y="683"/>
      <point x="48" y="546"/>
      <point x="48" y="340" type="curve" smooth="yes"/>
      <point x="48" y="122"/>
      <point x="191" y="-8"/>
      <point x="390" y="-8" type="curve" smooth="yes"/>
      <point x="451" y="-8"/>
      <point x="517" y="5"/>
    </contour>
  </outline>
</glyph>
<glyph name="D" format="1">
  <advance width="661"/>
  <unicode hex="0044"/>
  <outline>
    <contour>
      <point x="281" y="0" type="line"/>
      <point x="503" y="0"/>
      <point x="617" y="159"/>
      <point x="617" y="342" type="curve" smooth="yes"/>
      <point x="617" y="539"/>
      <point x="475" y="674"/>
      <point x="277" y="674" type="curve"/>
      <point x="77" y="674" type="line"/>
      <point x="77" y="603" type="line"/>
      <point x="276" y="603" type="line"/>
      <point x="433" y="603"/>
      <point x="533" y="486"/>
      <point x="533" y="342" type="curve" smooth="yes"/>
      <point x="533" y="200"/>
      <point x="457" y="71"/>
      <point x="280" y="71" type="curve"/>
      <point x="77" y="71" type="line"/>
      <point x="77" y="0" type="line"/>
    </contour>
    <contour>
      <point x="158" y="0" type="line"/>
      <point x="158" y="674" type="line"/>
      <point x="77" y="674" type="line"/>
      <point x="77" y="0" type="line"/>
    </contour>
  </outline>
</glyph>
<glyph name="E" format="1">
  <advance width="501"/>
  <unicode hex="0045"/>
  <outline>
    <contour>
      <point x="158" y="0" type="line"/>
      <point x="158" y="674" type="line"/>
      <point x="77" y="674" type="line"/>
      <point x="77" y="0" type="line"/>
    </contour>
    <contour>
      <point x="453" y="0" type="line"/>
      <point x="453" y="70" type="line"/>
      <point x="95" y="70" type="line"/>
      <point x="95" y="0" type="line"/>
    </contour>
    <contour>
      <point x="414" y="302" type="line"/>
      <point x="414" y="372" type="line"/>
      <point x="95" y="372" type="line"/>
      <point x="95" y="302" type="line"/>
    </contour>
    <contour>
      <point x="447" y="604" type="line"/>
      <point x="447" y="674" type="line"/>
      <point x="95" y="674" type="line"/>
      <point x="95" y="604" type="line"/>
    </contour>
  </outline>
</glyph>
<glyph name="F" format="1">
  <advance width="488"/>
  <unicode hex="0046"/>
  <outline>
    <contour>
      <point x="158" y="0" type="line"/>
      <point x="158" y="674" type="line"/>
      <point x="77" y="674" type="line"/>
      <point x="77" y="0" type="line"/>
    </contour>
    <contour>
      <point x="412" y="293" type="line"/>
      <point x="412" y="363" type="line"/>
      <point x="95" y="363" type="line"/>
      <point x="95" y="293" type="line"/>
    </contour>
    <contour>
      <point x="446" y="604" type="line"/>
      <point x="446" y="674" type="line"/>
      <point x="95" y="674" type="line"/>
      <point x="95" y="604" type="line"/>
    </contour>
  </outline>
</glyph>
<glyph name="G" format="1">
  <advance width="670"/>
  <unicode hex="0047"/>
  <outline>
    <contour>
      <point x="602" y="52" type="curve"/>
      <point x="578" y="130" type="line"/>
      <point x="547" y="106"/>
      <point x="486" y="69"/>
      <point x="396" y="69" type="curve" smooth="yes"/>
      <point x="232" y="69"/>
      <point x="132" y="170"/>
      <point x="132" y="338" type="curve" smooth="yes"/>
      <point x="132" y="502"/>
      <point x="237" y="608"/>
      <point x="387" y="608" type="curve" smooth="yes"/>
      <point x="449" y="608"/>
      <point x="519" y="593"/>
      <point x="577" y="554" type="curve"/>
      <point x="577" y="640" type="line"/>
      <point x="519" y="674"/>
      <point x="446" y="686"/>
      <point x="381" y="686" type="curve" smooth="yes"/>
      <point x="190" y="686"/>
      <point x="48" y="543"/>
      <point x="48" y="338" type="curve" smooth="yes"/>
      <point x="48" y="121"/>
      <point x="189" y="-8"/>
      <point x="394" y="-8" type="curve" smooth="yes"/>
      <point x="477" y="-8"/>
      <point x="554" y="17"/>
    </contour>
    <contour>
      <point x="602" y="55" type="line"/>
      <point x="602" y="377" type="line"/>
      <point x="522" y="377" type="line"/>
      <point x="522" y="35" type="line"/>
    </contour>
    <contour>
      <point x="602" y="307" type="line"/>
      <point x="602" y="377" type="line"/>
      <point x="373" y="377" type="line"/>
      <point x="373" y="307" type="line"/>
    </contour>
  </outline>
</glyph>
<glyph name="H" format="1">
  <advance width="643"/>
  <unicode hex="0048"/>
  <outline>
    <contour>
      <point x="566" y="0" type="line"/>
      <point x="566" y="674" type="line"/>
      <point x="485" y="674" type="line"/>
      <point x="485" y="0" type="line"/>
    </contour>
    <contour>
      <point x="157" y="0" type="line"/>
      <point x="157" y="674" type="line"/>
      <point x="77" y="674" type="line"/>
      <point x="77" y="0" type="line"/>
    </contour>
    <contour>
      <point x="513" y="306" type="line"/>
      <point x="513" y="378" type="line"/>
      <point x="129" y="378" type="line"/>
      <point x="129" y="306" type="line"/>
    </contour>
  </outline>
</glyph>
<glyph name="J" format="1">
  <advance width="358"/>
  <unicode hex="004A"/>
  <outline>
    <contour>
      <point x="282" y="173" type="curve"/>
      <point x="282" y="674" type="line"/>
      <point x="201" y="674" type="line"/>
      <point x="201" y="166" type="line" smooth="yes"/>
      <point x="201" y="102"/>
      <point x="171" y="74"/>
      <point x="114" y="74" type="curve" smooth="yes"/>
      <point x="84" y="74"/>
      <point x="53" y="84"/>
      <point x="30" y="100" type="curve"/>
      <point x="30" y="22" type="line"/>
      <point x="55" y="8"/>
      <point x="95" y="0"/>
      <point x="125" y="0" type="curve" smooth="yes"/>
      <point x="211" y="0"/>
      <point x="282" y="42"/>
    </contour>
  </outline>
</glyph>
<glyph name="K" format="1">
  <advance width="572"/>
  <unicode hex="004B"/>
  <outline>
    <contour>
      <point x="544" y="0" type="line"/>
      <point x="272" y="333" type="line"/>
      <point x="173" y="333" type="line"/>
      <point x="440" y="0" type="line"/>
    </contour>
    <contour>
      <point x="157" y="0" type="line"/>
      <point x="157" y="674" type="line"/>
      <point x="77" y="674" type="line"/>
      <point x="77" y="0" type="line"/>
    </contour>
    <contour>
      <point x="272" y="333" type="line"/>
      <point x="529" y="674" type="line"/>
      <point x="430" y="674" type="line"/>
      <point x="173" y="333" type="line"/>
    </contour>
  </outline>
</glyph>
<glyph name="L" format="1">
  <advance width="477"/>
  <unicode hex="004C"/>
  <outline>
    <contour>
      <point x="157" y="0" type="line"/>
      <point x="157" y="674" type="line"/>
      <point x="77" y="674" type="line"/>
      <point x="77" y="0" type="line"/>
    </contour>
    <contour>
      <point x="445" y="0" type="line"/>
      <point x="445" y="73" type="line"/>
      <point x="95" y="73" type="line"/>
      <point x="95" y="0" type="line"/>
    </contour>
  </outline>
</glyph>
<glyph name="M" format="1">
  <advance width="857"/>
  <unicode hex="004D"/>
  <outline>
    <contour>
      <point x="150" y="0" type="line"/>
      <point x="170" y="266" type="line" smooth="yes"/>
      <point x="180" y="414"/>
      <point x="188" y="549"/>
      <point x="188" y="560" type="curve"/>
      <point x="188" y="560"/>
      <point x="234" y="428"/>
      <point x="291" y="266" type="curve" smooth="yes"/>
      <point x="380" y="15" type="line"/>
      <point x="457" y="15" type="line"/>
      <point x="550" y="266" type="line" smooth="yes"/>
      <point x="607" y="417"/>
      <point x="660" y="566"/>
      <point x="660" y="566" type="curve"/>
      <point x="660" y="566"/>
      <point x="671" y="418"/>
      <point x="684" y="266" type="curve" smooth="yes"/>
      <point x="707" y="0" type="line"/>
      <point x="788" y="0" type="line"/>
      <point x="728" y="674" type="line"/>
      <point x="626" y="674" type="line"/>
      <point x="534" y="428" type="line" smooth="yes"/>
      <point x="477" y="278"/>
      <point x="419" y="112"/>
      <point x="419" y="112" type="curve"/>
      <point x="419" y="112"/>
      <point x="362" y="283"/>
      <point x="310" y="428" type="curve" smooth="yes"/>
      <point x="221" y="674" type="line"/>
      <point x="119" y="674" type="line"/>
      <point x="70" y="0" type="line"/>
    </contour>
  </outline>
</glyph>
<glyph name="O" format="1">
  <advance width="700"/>
  <unicode hex="004F"/>
  <outline>
    <contour>
      <point x="652" y="340" type="curve" smooth="yes"/>
      <point x="652" y="551"/>
      <point x="540" y="687"/>
      <point x="350" y="687" type="curve" smooth="yes"/>
      <point x="165" y="687"/>
      <point x="48" y="551"/>
      <point x="48" y="340" type="curve" smooth="yes"/>
      <point x="48" y="129"/>
      <point x="169" y="-8"/>
      <point x="351" y="-8" type="curve" smooth="yes"/>
      <point x="537" y="-8"/>
      <point x="652" y="129"/>
    </contour>
    <contour>
      <point x="132" y="340" type="curve" smooth="yes"/>
      <point x="132" y="508"/>
      <point x="214" y="611"/>
      <point x="350" y="611" type="curve" smooth="yes"/>
      <point x="490" y="611"/>
      <point x="568" y="508"/>
      <point x="568" y="340" type="curve" smooth="yes"/>
      <point x="568" y="171"/>
      <point x="490" y="68"/>
      <point x="351" y="68" type="curve" smooth="yes"/>
      <point x="219" y="68"/>
      <point x="132" y="171"/>
    </contour>
  </outline>
</glyph>
<glyph name="R" format="1">
  <advance width="548"/>
  <unicode hex="0052"/>
  <outline>
    <contour>
      <point x="255" y="266" type="line" smooth="yes"/>
      <point x="399" y="266"/>
      <point x="480" y="346"/>
      <point x="483" y="467" type="curve"/>
      <point x="483" y="594"/>
      <point x="404" y="674"/>
      <point x="245" y="674" type="curve" smooth="yes"/>
      <point x="77" y="674" type="line"/>
      <point x="77" y="605" type="line"/>
      <point x="250" y="605" type="line" smooth="yes"/>
      <point x="353" y="605"/>
      <point x="402" y="557"/>
      <point x="402" y="469" type="curve" smooth="yes"/>
      <point x="402" y="395"/>
      <point x="356" y="335"/>
      <point x="259" y="335" type="curve" smooth="yes"/>
      <point x="77" y="335" type="line"/>
      <point x="77" y="266" type="line"/>
    </contour>
    <contour>
      <point x="157" y="0" type="line"/>
      <point x="157" y="674" type="line"/>
      <point x="77" y="674" type="line"/>
      <point x="77" y="0" type="line"/>
    </contour>
    <contour>
      <point x="524" y="0" type="line"/>
      <point x="327" y="310" type="line"/>
      <point x="237" y="310" type="line"/>
      <point x="428" y="0" type="line"/>
    </contour>
  </outline>
</glyph>
<glyph name="T" format="1">
  <advance width="481"/>
  <unicode hex="0054"/>
  <outline>
    <contour>
      <point x="280" y="0" type="line"/>
      <point x="280" y="670" type="line"/>
      <point x="200" y="670" type="line"/>
      <point x="200" y="0" type="line"/>
    </contour>
    <contour>
      <point x="463" y="604" type="line"/>
      <point x="463" y="674" type="line"/>
      <point x="18" y="674" type="line"/>
      <point x="18" y="604" type="line"/>
    </contour>
  </outline>
</glyph>
<glyph name="U" format="1">
  <advance width="645"/>
  <unicode hex="0055"/>
  <outline>
    <contour>
      <point x="569" y="256" type="curve" smooth="yes"/>
      <point x="569" y="674" type="line"/>
      <point x="488" y="674" type="line"/>
      <point x="488" y="254" type="line"/>
      <point x="488" y="116"/>
      <point x="419" y="68"/>
      <point x="321" y="68" type="curve" smooth="yes"/>
      <point x="228" y="68"/>
      <point x="156" y="117"/>
      <point x="156" y="249" type="curve" smooth="yes"/>
      <point x="156" y="674" type="line"/>
      <point x="76" y="674" type="line"/>
      <point x="76" y="248" type="line" smooth="yes"/>
      <point x="76" y="79"/>
      <point x="170" y="-8"/>
      <point x="321" y="-8" type="curve" smooth="yes"/>
      <point x="474" y="-8"/>
      <point x="569" y="79"/>
    </contour>
  </outline>
</glyph>
<glyph name="V" format="1">
  <advance width="637"/>
  <unicode hex="0056"/>
  <outline>
    <contour>
      <point x="366" y="0" type="line"/>
      <point x="601" y="674" type="line"/>
      <point x="514" y="674" type="line"/>
      <point x="425" y="407" type="line" smooth="yes"/>
      <point x="355" y="198"/>
      <point x="316" y="72"/>
      <point x="316" y="72" type="curve"/>
      <point x="316" y="72"/>
      <point x="278" y="198"/>
      <point x="210" y="407" type="curve" smooth="yes"/>
      <point x="123" y="674" type="line"/>
      <point x="36" y="674" type="line"/>
      <point x="264" y="0" type="line"/>
    </contour>
  </outline>
</glyph>
<glyph name="W" format="1">
  <advance width="937"/>
  <unicode hex="0057"/>
  <outline>
    <contour>
      <point x="314" y="0" type="line"/>
      <point x="377" y="213" type="line" smooth="yes"/>
      <point x="443" y="433"/>
      <point x="474" y="552"/>
      <point x="474" y="552" type="curve"/>
      <point x="474" y="552"/>
      <point x="507" y="433"/>
      <point x="575" y="213" type="curve" smooth="yes"/>
      <point x="641" y="0" type="line"/>
      <point x="743" y="0" type="line"/>
      <point x="902" y="674" type="line"/>
      <point x="821" y="674" type="line"/>
      <point x="763" y="423" type="line" smooth="yes"/>
      <point x="736" y="303"/>
      <point x="689" y="81"/>
      <point x="689" y="81" type="curve"/>
      <point x="689" y="81"/>
      <point x="620" y="312"/>
      <point x="586" y="424" type="curve" smooth="yes"/>
      <point x="513" y="664" type="line"/>
      <point x="432" y="664" type="line"/>
      <point x="362" y="424" type="line" smooth="yes"/>
      <point x="323" y="291"/>
      <point x="266" y="84"/>
      <point x="266" y="84" type="curve"/>
      <point x="266" y="84"/>
      <point x="209" y="320"/>
      <point x="183" y="424" type="curve" smooth="yes"/>
      <point x="120" y="674" type="line"/>
      <point x="36" y="674" type="line"/>
      <point x="212" y="0" type="line"/>
    </contour>
  </outline>
</glyph>
<glyph name="X" format="1">
  <advance width="613"/>
  <unicode hex="0058"/>
  <outline>
    <contour>
      <point x="134" y="0" type="line"/>
      <point x="302" y="272" type="line"/>
      <point x="479" y="0" type="line"/>
      <point x="574" y="0" type="line"/>
      <point x="347" y="340" type="line"/>
      <point x="551" y="674" type="line"/>
      <point x="456" y="674" type="line"/>
      <point x="301" y="412" type="line"/>
      <point x="145" y="674" type="line"/>
      <point x="51" y="674" type="line"/>
      <point x="256" y="340" type="line"/>
      <point x="39" y="0" type="line"/>
    </contour>
  </outline>
</glyph>
<glyph name="Y" format="1">
  <advance width="593"/>
  <unicode hex="0059"/>
  <outline>
    <contour>
      <point x="332" y="245" type="line"/>
      <point x="566" y="674" type="line"/>
      <point x="473" y="674" type="line"/>
      <point x="422" y="575" type="line" smooth="yes"/>
      <point x="303" y="348"/>
      <point x="295" y="324"/>
      <point x="295" y="324" type="curve"/>
      <point x="295" y="324"/>
      <point x="287" y="348"/>
      <point x="170" y="575" type="curve" smooth="yes"/>
      <point x="119" y="674" type="line"/>
      <point x="27" y="674" type="line"/>
      <point x="258" y="245" type="line"/>
    </contour>
    <contour>
      <point x="335" y="0" type="line"/>
      <point x="335" y="268" type="line"/>
      <point x="255" y="268" type="line"/>
      <point x="255" y="0" type="line"/>
    </contour>
  </outline>
</glyph>
<glyph name="Z" format="1">
  <advance width="568"/>
  <unicode hex="005A"/>
  <outline>
    <contour>
      <point x="516" y="0" type="line"/>
      <point x="516" y="69" type="line"/>
      <point x="145" y="69" type="line"/>
      <point x="502" y="608" type="line"/>
      <point x="502" y="674" type="line"/>
      <point x="56" y="674" type="line"/>
      <point x="56" y="605" type="line"/>
      <point x="408" y="605" type="line"/>
      <point x="52" y="67" type="line"/>
      <point x="52" y="0" type="line"/>
    </contour>
  </outline>
</glyph>
<glyph name="bracketleft" format="1">
  <advance width="206"/>
  <unicode hex="005B"/>
  <note>
    bracketleft
  </note>
  <outline>
    <contour>
      <point x="147" y="-62" type="line"/>
      <point x="147" y="-25" type="line"/>
      <point x="101" y="-25" type="line"/>
      <point x="101" y="475" type="line"/>
      <point x="147" y="475" type="line"/>
      <point x="147" y="513" type="line"/>
      <point x="61" y="513" type="line"/>
      <point x="61" y="-62" type="line"/>
    </contour>
  </outline>
</glyph>
<glyph name="backslash" format="1">
  <advance width="312"/>
  <unicode hex="005C"/>
  <note>
    backslash
  </note>
  <outline>
    <contour>
      <point x="263" y="-2" type="line"/>
      <point x="86" y="459" type="line"/>
      <point x="49" y="450" type="line"/>
      <point x="226" y="-12" type="line"/>
    </contour>
  </outline>
</glyph>
<glyph name="bracketright" format="1">
  <advance width="206"/>
  <unicode hex="005D"/>
  <note>
    bracketright
  </note>
  <outline>
    <contour>
      <point x="145" y="-62" type="line"/>
      <point x="145" y="513" type="line"/>
      <point x="59" y="513" type="line"/>
      <point x="59" y="475" type="line"/>
      <point x="105" y="475" type="line"/>
      <point x="105" y="-25" type="line"/>
      <point x="59" y="-25" type="line"/>
      <point x="59" y="-62" type="line"/>
    </contour>
  </outline>
</glyph>
<glyph name="asciicircum" format="1">
  <advance width="461"/>
  <unicode hex="005E"/>
  <outline>
    <contour>
      <point x="123" y="332" type="line"/>
      <point x="259" y="594" type="line"/>
      <point x="187" y="594" type="line"/>
      <point x="45" y="332" type="line"/>
    </contour>
    <contour>
      <point x="416" y="332" type="line"/>
      <point x="277" y="594" type="line"/>
      <point x="205" y="594" type="line"/>
      <point x="337" y="332" type="line"/>
    </contour>
  </outline>
</glyph>
<glyph name="underscore" format="1">
  <advance width="407"/>
  <unicode hex="005F"/>
  <note>
    underscore
  </note>
  <outline>
    <contour>
      <point x="356" y="-31" type="line"/>
      <point x="356" y="0" type="line"/>
      <point x="50" y="0" type="line"/>
      <point x="50" y="-31" type="line"/>
    </contour>
  </outline>
</glyph>
<glyph name="grave" format="1">
  <advance width="420"/>
  <unicode hex="0060"/>
  <outline>
    <contour>
      <point x="308" y="643" type="line"/>
      <point x="209" y="798" type="line"/>
      <point x="115" y="798" type="line"/>
      <point x="239" y="643" type="line"/>
    </contour>
  </outline>
</glyph>
<glyph name="b" format="1">
  <advance width="569"/>
  <unicode hex="0062"/>
  <outline>
    <contour>
      <point x="154" y="0" type="line"/>
      <point x="154" y="707" type="line"/>
      <point x="76" y="707" type="line"/>
      <point x="76" y="0" type="line"/>
    </contour>
    <contour>
      <point x="526" y="249" type="curve" smooth="yes"/>
      <point x="526" y="408"/>
      <point x="435" y="515"/>
      <point x="308" y="515" type="curve" smooth="yes"/>
      <point x="183" y="515"/>
      <point x="109" y="404"/>
      <point x="109" y="256" type="curve" smooth="yes"/>
      <point x="109" y="126"/>
      <point x="163" y="-8"/>
      <point x="310" y="-8" type="curve" smooth="yes"/>
      <point x="451" y="-8"/>
      <point x="526" y="114"/>
    </contour>
    <contour>
      <point x="154" y="257" type="curve" smooth="yes"/>
      <point x="154" y="401"/>
      <point x="241" y="444"/>
      <point x="299" y="444" type="curve" smooth="yes"/>
      <point x="379" y="444"/>
      <point x="446" y="379"/>
      <point x="446" y="248" type="curve" smooth="yes"/>
      <point x="446" y="138"/>
      <point x="384" y="63"/>
      <point x="304" y="63" type="curve" smooth="yes"/>
      <point x="232" y="63"/>
      <point x="154" y="109"/>
    </contour>
  </outline>
</glyph>
<glyph name="c" format="1">
  <advance width="471"/>
  <unicode hex="0063"/>
  <outline>
    <contour>
      <point x="421" y="18" type="curve"/>
      <point x="421" y="92" type="line"/>
      <point x="395" y="74"/>
      <point x="353" y="60"/>
      <point x="314" y="60" type="curve" smooth="yes"/>
      <point x="188" y="60"/>
      <point x="125" y="149"/>
      <point x="124" y="251" type="curve" smooth="yes"/>
      <point x="124" y="356"/>
      <point x="195" y="444"/>
      <point x="314" y="444" type="curve" smooth="yes"/>
      <point x="344" y="444"/>
      <point x="390" y="434"/>
      <point x="421" y="414" type="curve"/>
      <point x="421" y="488" type="line"/>
      <point x="383" y="509"/>
      <point x="337" y="516"/>
      <point x="306" y="516" type="curve" smooth="yes"/>
      <point x="136" y="516"/>
      <point x="43" y="387"/>
      <point x="43" y="252" type="curve" smooth="yes"/>
      <point x="43" y="112"/>
      <point x="136" y="-11"/>
      <point x="304" y="-11" type="curve" smooth="yes"/>
      <point x="344" y="-11"/>
      <point x="394" y="1"/>
    </contour>
  </outline>
</glyph>
<glyph name="d" format="1">
  <advance width="566"/>
  <unicode hex="0064"/>
  <outline>
    <contour>
      <point x="460" y="256" type="curve" smooth="yes"/>
      <point x="460" y="404"/>
      <point x="387" y="515"/>
      <point x="261" y="515" type="curve" smooth="yes"/>
      <point x="134" y="515"/>
      <point x="43" y="408"/>
      <point x="43" y="249" type="curve" smooth="yes"/>
      <point x="43" y="114"/>
      <point x="118" y="-8"/>
      <point x="259" y="-8" type="curve" smooth="yes"/>
      <point x="407" y="-8"/>
      <point x="460" y="126"/>
    </contour>
    <contour>
      <point x="124" y="248" type="curve" smooth="yes"/>
      <point x="124" y="379"/>
      <point x="190" y="444"/>
      <point x="270" y="444" type="curve" smooth="yes"/>
      <point x="328" y="444"/>
      <point x="415" y="401"/>
      <point x="415" y="257" type="curve" smooth="yes"/>
      <point x="415" y="109"/>
      <point x="337" y="63"/>
      <point x="266" y="63" type="curve" smooth="yes"/>
      <point x="185" y="63"/>
      <point x="124" y="138"/>
    </contour>
    <contour>
      <point x="493" y="0" type="line"/>
      <point x="493" y="707" type="line"/>
      <point x="415" y="707" type="line"/>
      <point x="415" y="0" type="line"/>
    </contour>
  </outline>
</glyph>
<glyph name="e" format="1">
  <advance width="522"/>
  <unicode hex="0065"/>
  <outline>
    <contour>
      <point x="443" y="26" type="curve"/>
      <point x="443" y="100" type="line"/>
      <point x="408" y="76"/>
      <point x="351" y="64"/>
      <point x="306" y="64" type="curve" smooth="yes"/>
      <point x="194" y="64"/>
      <point x="121" y="129"/>
      <point x="121" y="252" type="curve" smooth="yes"/>
      <point x="121" y="381"/>
      <point x="186" y="445"/>
      <point x="268" y="445" type="curve" smooth="yes"/>
      <point x="348" y="445"/>
      <point x="396" y="391"/>
      <point x="397" y="306" type="curve" smooth="yes"/>
      <point x="397" y="286" type="line"/>
      <point x="93" y="286" type="line"/>
      <point x="93" y="220" type="line"/>
      <point x="470" y="220" type="line"/>
      <point x="473" y="236"/>
      <point x="475" y="267"/>
      <point x="475" y="279" type="curve" smooth="yes"/>
      <point x="475" y="432"/>
      <point x="391" y="513"/>
      <point x="268" y="513" type="curve" smooth="yes"/>
      <point x="139" y="513"/>
      <point x="43" y="417"/>
      <point x="43" y="252" type="curve" smooth="yes"/>
      <point x="43" y="98"/>
      <point x="145" y="-5"/>
      <point x="299" y="-5" type="curve" smooth="yes"/>
      <point x="344" y="-5"/>
      <point x="405" y="6"/>
    </contour>
  </outline>
</glyph>
<glyph name="f" format="1">
  <advance width="329"/>
  <unicode hex="0066"/>
  <outline>
    <contour>
      <point x="195" y="0" type="line"/>
      <point x="195" y="553" type="line" smooth="yes"/>
      <point x="195" y="619"/>
      <point x="230" y="644"/>
      <point x="268" y="644" type="curve" smooth="yes"/>
      <point x="284" y="644"/>
      <point x="300" y="641"/>
      <point x="314" y="635" type="curve"/>
      <point x="314" y="707" type="line"/>
      <point x="300" y="711"/>
      <point x="278" y="714"/>
      <point x="266" y="714" type="curve" smooth="yes"/>
      <point x="171" y="714"/>
      <point x="118" y="651"/>
      <point x="118" y="554" type="curve" smooth="yes"/>
      <point x="118" y="0" type="line"/>
    </contour>
    <contour>
      <point x="307" y="444" type="line"/>
      <point x="307" y="507" type="line"/>
      <point x="30" y="507" type="line"/>
      <point x="30" y="444" type="line"/>
    </contour>
  </outline>
</glyph>
<glyph name="h" format="1">
  <advance width="539"/>
  <unicode hex="0068"/>
  <outline>
    <contour>
      <point x="472" y="0" type="line"/>
      <point x="472" y="348" type="line" smooth="yes"/>
      <point x="472" y="450"/>
      <point x="408" y="514"/>
      <point x="310" y="514" type="curve" smooth="yes"/>
      <point x="195" y="514"/>
      <point x="126" y="439"/>
      <point x="125" y="288" type="curve"/>
      <point x="151" y="278" type="line"/>
      <point x="151" y="391"/>
      <point x="223" y="444"/>
      <point x="291" y="444" type="curve" smooth="yes"/>
      <point x="350" y="444"/>
      <point x="394" y="405"/>
      <point x="394" y="328" type="curve" smooth="yes"/>
      <point x="394" y="0" type="line"/>
    </contour>
    <contour>
      <point x="151" y="0" type="line"/>
      <point x="151" y="707" type="line"/>
      <point x="73" y="707" type="line"/>
      <point x="73" y="0" type="line"/>
    </contour>
  </outline>
</glyph>
<glyph name="i" format="1">
  <advance width="232"/>
  <unicode hex="0069"/>
  <outline>
    <contour>
      <point x="155" y="0" type="line"/>
      <point x="155" y="507" type="line"/>
      <point x="77" y="507" type="line"/>
      <point x="77" y="0" type="line"/>
    </contour>
    <contour>
      <point x="167" y="666" type="curve" smooth="yes"/>
      <point x="167" y="695"/>
      <point x="144" y="717"/>
      <point x="116" y="717" type="curve" smooth="yes"/>
      <point x="87" y="717"/>
      <point x="65" y="695"/>
      <point x="65" y="666" type="curve" smooth="yes"/>
      <point x="65" y="637"/>
      <point x="87" y="615"/>
      <point x="116" y="615" type="curve" smooth="yes"/>
      <point x="144" y="615"/>
      <point x="167" y="637"/>
    </contour>
  </outline>
</glyph>
<glyph name="j" format="1">
  <advance width="228"/>
  <unicode hex="006A"/>
  <outline>
    <contour>
      <point x="156" y="-55" type="curve" smooth="yes"/>
      <point x="156" y="507" type="line"/>
      <point x="78" y="507" type="line"/>
      <point x="78" y="-53" type="line" smooth="yes"/>
      <point x="78" y="-106"/>
      <point x="56" y="-126"/>
      <point x="22" y="-126" type="curve" smooth="yes"/>
      <point x="1" y="-126"/>
      <point x="-22" y="-121"/>
      <point x="-46" y="-110" type="curve"/>
      <point x="-46" y="-180" type="line"/>
      <point x="-21" y="-190"/>
      <point x="-1" y="-195"/>
      <point x="25" y="-195" type="curve" smooth="yes"/>
      <point x="108" y="-195"/>
      <point x="156" y="-143"/>
    </contour>
    <contour>
      <point x="167" y="666" type="curve" smooth="yes"/>
      <point x="167" y="695"/>
      <point x="144" y="717"/>
      <point x="115" y="717" type="curve" smooth="yes"/>
      <point x="87" y="717"/>
      <point x="65" y="695"/>
      <point x="65" y="666" type="curve" smooth="yes"/>
      <point x="65" y="637"/>
      <point x="87" y="615"/>
      <point x="115" y="615" type="curve" smooth="yes"/>
      <point x="144" y="615"/>
      <point x="167" y="637"/>
    </contour>
  </outline>
</glyph>
<glyph name="k" format="1">
  <advance width="479"/>
  <unicode hex="006B"/>
  <outline>
    <contour>
      <point x="151" y="0" type="line"/>
      <point x="151" y="704" type="line"/>
      <point x="73" y="704" type="line"/>
      <point x="73" y="0" type="line"/>
    </contour>
    <contour>
      <point x="252" y="266" type="line"/>
      <point x="453" y="507" type="line"/>
      <point x="360" y="507" type="line"/>
      <point x="161" y="266" type="line"/>
    </contour>
    <contour>
      <point x="459" y="0" type="line"/>
      <point x="252" y="266" type="line"/>
      <point x="161" y="266" type="line"/>
      <point x="365" y="0" type="line"/>
    </contour>
  </outline>
</glyph>
<glyph name="m" format="1">
  <advance width="817"/>
  <unicode hex="006D"/>
  <outline>
    <contour>
      <point x="750" y="0" type="line"/>
      <point x="750" y="348" type="line" smooth="yes"/>
      <point x="750" y="445"/>
      <point x="702" y="514"/>
      <point x="592" y="514" type="curve" smooth="yes"/>
      <point x="496" y="514"/>
      <point x="417" y="440"/>
      <point x="418" y="291" type="curve"/>
      <point x="451" y="278" type="line"/>
      <point x="451" y="390"/>
      <point x="517" y="444"/>
      <point x="574" y="444" type="curve" smooth="yes"/>
      <point x="641" y="444"/>
      <point x="672" y="403"/>
      <point x="672" y="328" type="curve" smooth="yes"/>
      <point x="672" y="0" type="line"/>
    </contour>
    <contour>
      <point x="151" y="0" type="line"/>
      <point x="151" y="507" type="line"/>
      <point x="73" y="507" type="line"/>
      <point x="73" y="0" type="line"/>
    </contour>
    <contour>
      <point x="451" y="0" type="line"/>
      <point x="451" y="348" type="line" smooth="yes"/>
      <point x="451" y="447"/>
      <point x="403" y="514"/>
      <point x="293" y="514" type="curve" smooth="yes"/>
      <point x="193" y="514"/>
      <point x="124" y="439"/>
      <point x="125" y="288" type="curve"/>
      <point x="151" y="278" type="line"/>
      <point x="151" y="390"/>
      <point x="217" y="444"/>
      <point x="275" y="444" type="curve" smooth="yes"/>
      <point x="342" y="444"/>
      <point x="373" y="403"/>
      <point x="373" y="328" type="curve" smooth="yes"/>
      <point x="373" y="0" type="line"/>
    </contour>
  </outline>
</glyph>
<glyph name="o" format="1">
  <advance width="562"/>
  <unicode hex="006F"/>
  <outline>
    <contour>
      <point x="519" y="252" type="curve" smooth="yes"/>
      <point x="519" y="397"/>
      <point x="438" y="514"/>
      <point x="279" y="514" type="curve" smooth="yes"/>
      <point x="136" y="514"/>
      <point x="43" y="397"/>
      <point x="43" y="250" type="curve" smooth="yes"/>
      <point x="43" y="106"/>
      <point x="129" y="-9"/>
      <point x="279" y="-9" type="curve" smooth="yes"/>
      <point x="433" y="-9"/>
      <point x="519" y="106"/>
    </contour>
    <contour>
      <point x="125" y="251" type="curve" smooth="yes"/>
      <point x="125" y="353"/>
      <point x="178" y="445"/>
      <point x="279" y="445" type="curve" smooth="yes"/>
      <point x="394" y="445"/>
      <point x="438" y="353"/>
      <point x="438" y="251" type="curve" smooth="yes"/>
      <point x="438" y="149"/>
      <point x="386" y="60"/>
      <point x="279" y="60" type="curve" smooth="yes"/>
      <point x="183" y="60"/>
      <point x="125" y="150"/>
    </contour>
  </outline>
</glyph>
<glyph name="q" format="1">
  <advance width="566"/>
  <unicode hex="0071"/>
  <outline>
    <contour>
      <point x="460" y="252" type="curve" smooth="yes"/>
      <point x="460" y="380"/>
      <point x="408" y="515"/>
      <point x="260" y="515" type="curve" smooth="yes"/>
      <point x="120" y="515"/>
      <point x="43" y="398"/>
      <point x="43" y="258" type="curve" smooth="yes"/>
      <point x="43" y="104"/>
      <point x="130" y="-8"/>
      <point x="261" y="-8" type="curve" smooth="yes"/>
      <point x="386" y="-8"/>
      <point x="460" y="101"/>
    </contour>
    <contour>
      <point x="124" y="258" type="curve" smooth="yes"/>
      <point x="124" y="370"/>
      <point x="185" y="444"/>
      <point x="266" y="444" type="curve" smooth="yes"/>
      <point x="335" y="444"/>
      <point x="415" y="400"/>
      <point x="415" y="253" type="curve" smooth="yes"/>
      <point x="415" y="109"/>
      <point x="330" y="63"/>
      <point x="271" y="63" type="curve" smooth="yes"/>
      <point x="190" y="63"/>
      <point x="124" y="129"/>
    </contour>
    <contour>
      <point x="493" y="-197" type="line"/>
      <point x="493" y="507" type="line"/>
      <point x="415" y="507" type="line"/>
      <point x="415" y="-197" type="line"/>
    </contour>
  </outline>
</glyph>
<glyph name="r" format="1">
  <advance width="325"/>
  <unicode hex="0072"/>
  <outline>
    <contour>
      <point x="151" y="0" type="line"/>
      <point x="151" y="507" type="line"/>
      <point x="73" y="507" type="line"/>
      <point x="73" y="0" type="line"/>
    </contour>
    <contour>
      <point x="316" y="433" type="curve"/>
      <point x="316" y="510" type="line"/>
      <point x="306" y="512"/>
      <point x="298" y="512"/>
      <point x="289" y="512" type="curve" smooth="yes"/>
      <point x="172" y="512"/>
      <point x="130" y="412"/>
      <point x="127" y="293" type="curve"/>
      <point x="151" y="277" type="line"/>
      <point x="151" y="358"/>
      <point x="200" y="440"/>
      <point x="273" y="440" type="curve" smooth="yes"/>
      <point x="289" y="440"/>
      <point x="302" y="438"/>
    </contour>
  </outline>
</glyph>
<glyph name="u" format="1">
  <advance width="539"/>
  <unicode hex="0075"/>
  <outline>
    <contour>
      <point x="407" y="200" type="curve"/>
      <point x="388" y="228" type="line"/>
      <point x="388" y="127"/>
      <point x="333" y="64"/>
      <point x="249" y="64" type="curve" smooth="yes"/>
      <point x="188" y="64"/>
      <point x="145" y="102"/>
      <point x="145" y="178" type="curve" smooth="yes"/>
      <point x="145" y="507" type="line"/>
      <point x="67" y="507" type="line"/>
      <point x="67" y="158" type="line" smooth="yes"/>
      <point x="67" y="58"/>
      <point x="129" y="-6"/>
      <point x="229" y="-6" type="curve" smooth="yes"/>
      <point x="338" y="-6"/>
      <point x="408" y="56"/>
    </contour>
    <contour>
      <point x="466" y="0" type="line"/>
      <point x="466" y="507" type="line"/>
      <point x="388" y="507" type="line"/>
      <point x="388" y="0" type="line"/>
    </contour>
  </outline>
</glyph>
<glyph name="v" format="1">
  <advance width="505"/>
  <unicode hex="0076"/>
  <outline>
    <contour>
      <point x="298" y="0" type="line"/>
      <point x="480" y="507" type="line"/>
      <point x="399" y="507" type="line"/>
      <point x="326" y="293" type="line" smooth="yes"/>
      <point x="260" y="104"/>
      <point x="250" y="62"/>
      <point x="250" y="62" type="curve"/>
      <point x="250" y="62"/>
      <point x="239" y="104"/>
      <point x="177" y="293" type="curve" smooth="yes"/>
      <point x="107" y="507" type="line"/>
      <point x="25" y="507" type="line"/>
      <point x="202" y="0" type="line"/>
    </contour>
  </outline>
</glyph>
<glyph name="w" format="1">
  <advance width="792"/>
  <unicode hex="0077"/>
  <outline>
    <contour>
      <point x="277" y="0" type="line"/>
      <point x="324" y="166" type="line" smooth="yes"/>
      <point x="376" y="356"/>
      <point x="392" y="420"/>
      <point x="392" y="420" type="curve"/>
      <point x="392" y="420"/>
      <point x="407" y="357"/>
      <point x="463" y="166" type="curve" smooth="yes"/>
      <point x="511" y="0" type="line"/>
      <point x="606" y="0" type="line"/>
      <point x="767" y="507" type="line"/>
      <point x="687" y="507" type="line"/>
      <point x="636" y="340" type="line" smooth="yes"/>
      <point x="572" y="134"/>
      <point x="558" y="75"/>
      <point x="558" y="75" type="curve"/>
      <point x="558" y="75"/>
      <point x="544" y="134"/>
      <point x="483" y="340" type="curve" smooth="yes"/>
      <point x="433" y="507" type="line"/>
      <point x="351" y="507" type="line"/>
      <point x="302" y="340" type="line" smooth="yes"/>
      <point x="244" y="140"/>
      <point x="229" y="76"/>
      <point x="229" y="76" type="curve"/>
      <point x="229" y="76"/>
      <point x="216" y="141"/>
      <point x="158" y="339" type="curve" smooth="yes"/>
      <point x="109" y="507" type="line"/>
      <point x="25" y="507" type="line"/>
      <point x="182" y="0" type="line"/>
    </contour>
  </outline>
</glyph>
<glyph name="x" format="1">
  <advance width="477"/>
  <unicode hex="0078"/>
  <outline>
    <contour>
      <point x="112" y="0" type="line"/>
      <point x="239" y="201" type="line"/>
      <point x="362" y="0" type="line"/>
      <point x="452" y="0" type="line"/>
      <point x="282" y="259" type="line"/>
      <point x="446" y="508" type="line"/>
      <point x="357" y="508" type="line"/>
      <point x="241" y="318" type="line"/>
      <point x="125" y="508" type="line"/>
      <point x="35" y="508" type="line"/>
      <point x="195" y="260" type="line"/>
      <point x="25" y="0" type="line"/>
    </contour>
  </outline>
</glyph>
<glyph name="y" format="1">
  <advance width="492"/>
  <unicode hex="0079"/>
  <outline>
    <contour>
      <point x="292" y="13" type="curve" smooth="yes"/>
      <point x="476" y="507" type="line"/>
      <point x="391" y="507" type="line"/>
      <point x="332" y="339" type="line" smooth="yes"/>
      <point x="259" y="135"/>
      <point x="251" y="109"/>
      <point x="251" y="109" type="curve"/>
      <point x="251" y="109"/>
      <point x="243" y="135"/>
      <point x="162" y="339" type="curve" smooth="yes"/>
      <point x="96" y="507" type="line"/>
      <point x="8" y="507" type="line"/>
      <point x="213" y="13" type="line"/>
      <point x="186" y="-64"/>
      <point x="136" y="-103"/>
      <point x="70" y="-103" type="curve" smooth="yes"/>
      <point x="60" y="-103"/>
      <point x="47" y="-101"/>
      <point x="36" y="-98" type="curve"/>
      <point x="36" y="-169" type="line"/>
      <point x="49" y="-172"/>
      <point x="64" y="-174"/>
      <point x="77" y="-174" type="curve" smooth="yes"/>
      <point x="160" y="-174"/>
      <point x="237" y="-134"/>
    </contour>
  </outline>
</glyph>
<glyph name="z" format="1">
  <advance width="453"/>
  <unicode hex="007A"/>
  <outline>
    <contour>
      <point x="409" y="0" type="line"/>
      <point x="409" y="71" type="line"/>
      <point x="135" y="71" type="line"/>
      <point x="395" y="450" type="line"/>
      <point x="395" y="507" type="line"/>
      <point x="54" y="507" type="line"/>
      <point x="54" y="437" type="line"/>
      <point x="301" y="437" type="line"/>
      <point x="44" y="62" type="line"/>
      <point x="44" y="0" type="line"/>
    </contour>
  </outline>
</glyph>
<glyph name="braceleft" format="1">
  <advance width="297"/>
  <unicode hex="007B"/>
  <note>
    braceleft
  </note>
  <outline>
    <contour>
      <point x="254" y="-50" type="line"/>
      <point x="224" y="-49"/>
      <point x="204" y="-44"/>
      <point x="181" y="-35" type="curve"/>
      <point x="174" y="-3"/>
      <point x="171" y="20"/>
      <point x="173" y="54" type="curve" smooth="yes"/>
      <point x="175" y="126" type="line" smooth="yes"/>
      <point x="178" y="180"/>
      <point x="158" y="214"/>
      <point x="111" y="227" type="curve"/>
      <point x="111" y="232" type="line"/>
      <point x="158" y="245"/>
      <point x="178" y="279"/>
      <point x="175" y="333" type="curve" smooth="yes"/>
      <point x="173" y="395" type="line" smooth="yes"/>
      <point x="171" y="429"/>
      <point x="174" y="451"/>
      <point x="181" y="483" type="curve"/>
      <point x="204" y="491"/>
      <point x="224" y="497"/>
      <point x="254" y="499" type="curve"/>
      <point x="254" y="536" type="line"/>
      <point x="167" y="530"/>
      <point x="127" y="491"/>
      <point x="133" y="397" type="curve" smooth="yes"/>
      <point x="137" y="345" type="line" smooth="yes"/>
      <point x="140" y="290"/>
      <point x="123" y="246"/>
      <point x="50" y="246" type="curve"/>
      <point x="50" y="213" type="line"/>
      <point x="123" y="213"/>
      <point x="140" y="169"/>
      <point x="137" y="114" type="curve" smooth="yes"/>
      <point x="133" y="51" type="line" smooth="yes"/>
      <point x="127" y="-43"/>
      <point x="167" y="-82"/>
      <point x="254" y="-88" type="curve"/>
    </contour>
  </outline>
</glyph>
<glyph name="braceright" format="1">
  <advance width="297"/>
  <unicode hex="007D"/>
  <note>
    braceright
  </note>
  <outline>
    <contour>
      <point x="164" y="51" type="curve" smooth="yes"/>
      <point x="160" y="114" type="line" smooth="yes"/>
      <point x="157" y="169"/>
      <point x="174" y="213"/>
      <point x="246" y="213" type="curve"/>
      <point x="246" y="246" type="line"/>
      <point x="174" y="246"/>
      <point x="157" y="290"/>
      <point x="160" y="345" type="curve" smooth="yes"/>
      <point x="164" y="397" type="line" smooth="yes"/>
      <point x="170" y="491"/>
      <point x="129" y="530"/>
      <point x="43" y="536" type="curve"/>
      <point x="43" y="499" type="line"/>
      <point x="73" y="497"/>
      <point x="94" y="491"/>
      <point x="116" y="483" type="curve"/>
      <point x="123" y="451"/>
      <point x="126" y="429"/>
      <point x="125" y="395" type="curve" smooth="yes"/>
      <point x="122" y="333" type="line" smooth="yes"/>
      <point x="120" y="279"/>
      <point x="139" y="245"/>
      <point x="186" y="232" type="curve"/>
      <point x="186" y="227" type="line"/>
      <point x="139" y="214"/>
      <point x="120" y="180"/>
      <point x="122" y="126" type="curve" smooth="yes"/>
      <point x="125" y="54" type="line" smooth="yes"/>
      <point x="126" y="20"/>
      <point x="123" y="-3"/>
      <point x="116" y="-35" type="curve"/>
      <point x="94" y="-44"/>
      <point x="73" y="-49"/>
      <point x="43" y="-50" type="curve"/>
      <point x="43" y="-88" type="line"/>
      <point x="129" y="-82"/>
      <point x="170" y="-43"/>
    </contour>
  </outline>
</glyph>
<glyph name="asciitilde" format="1">
  <advance width="599"/>
  <unicode hex="007E"/>
  <outline>
    <contour>
      <point x="204" y="268" type="curve" smooth="yes"/>
      <point x="266" y="268"/>
      <point x="331" y="194"/>
      <point x="419" y="194" type="curve" smooth="yes"/>
      <point x="485" y="194"/>
      <point x="527" y="229"/>
      <point x="562" y="284" type="curve"/>
      <point x="504" y="325" type="line"/>
      <point x="483" y="290"/>
      <point x="453" y="266"/>
      <point x="413" y="266" type="curve" smooth="yes"/>
      <point x="342" y="266"/>
      <point x="292" y="339"/>
      <point x="192" y="339" type="curve" smooth="yes"/>
      <point x="134" y="339"/>
      <point x="79" y="305"/>
      <point x="36" y="245" type="curve"/>
      <point x="88" y="199" type="line"/>
      <point x="123" y="249"/>
      <point x="161" y="268"/>
    </contour>
  </outline>
</glyph>
<glyph name="exclamdown" format="1">
  <advance width="168"/>
  <unicode hex="00A1"/>
  <note>
    exclamdown
  </note>
  <outline>
    <contour>
      <point x="105" y="-1" type="line"/>
      <point x="105" y="148" type="line"/>
      <point x="100" y="317" type="line"/>
      <point x="68" y="317" type="line"/>
      <point x="63" y="147" type="line"/>
      <point x="63" y="-1" type="line"/>
    </contour>
    <contour>
      <point x="106" y="383" type="line"/>
      <point x="106" y="443" type="line"/>
      <point x="62" y="443" type="line"/>
      <point x="62" y="383" type="line"/>
    </contour>
  </outline>
</glyph>
<glyph name="sterling" format="1">
  <advance width="522"/>
  <unicode hex="00A3"/>
  <outline>
    <contour>
      <point x="483" y="0" type="line"/>
      <point x="483" y="69" type="line"/>
      <point x="161" y="69" type="line"/>
      <point x="203" y="95"/>
      <point x="240" y="137"/>
      <point x="240" y="250" type="curve"/>
      <point x="240" y="312"/>
      <point x="224" y="389"/>
      <point x="224" y="453" type="curve"/>
      <point x="224" y="544"/>
      <point x="271" y="585"/>
      <point x="354" y="585" type="curve" smooth="yes"/>
      <point x="392" y="585"/>
      <point x="421" y="576"/>
      <point x="455" y="556" type="curve"/>
      <point x="455" y="634" type="line"/>
      <point x="425" y="649"/>
      <point x="386" y="659"/>
      <point x="347" y="659" type="curve" smooth="yes"/>
      <point x="218" y="659"/>
      <point x="143" y="585"/>
      <point x="143" y="450" type="curve"/>
      <point x="143" y="392"/>
      <point x="160" y="311"/>
      <point x="160" y="249" type="curve"/>
      <point x="160" y="149"/>
      <point x="139" y="102"/>
      <point x="61" y="66" type="curve"/>
      <point x="61" y="0" type="line"/>
    </contour>
    <contour>
      <point x="412" y="293" type="line"/>
      <point x="412" y="355" type="line"/>
      <point x="66" y="355" type="line"/>
      <point x="66" y="293" type="line"/>
    </contour>
  </outline>
</glyph>
<glyph name="currency" format="1">
  <advance width="543"/>
  <unicode hex="00A4"/>
  <outline>
    <contour>
      <point x="143" y="135" type="line"/>
      <point x="177" y="111"/>
      <point x="220" y="98"/>
      <point x="268" y="98" type="curve" smooth="yes"/>
      <point x="317" y="98"/>
      <point x="361" y="112"/>
      <point x="397" y="137" type="curve"/>
      <point x="459" y="76" type="line"/>
      <point x="509" y="125" type="line"/>
      <point x="446" y="186" type="line"/>
      <point x="472" y="221"/>
      <point x="488" y="266"/>
      <point x="488" y="315" type="curve" smooth="yes"/>
      <point x="488" y="363"/>
      <point x="474" y="406"/>
      <point x="451" y="440" type="curve"/>
      <point x="509" y="498" type="line"/>
      <point x="459" y="547" type="line"/>
      <point x="401" y="490" type="line"/>
      <point x="366" y="513"/>
      <point x="323" y="527"/>
      <point x="275" y="527" type="curve" smooth="yes"/>
      <point x="225" y="527"/>
      <point x="181" y="512"/>
      <point x="145" y="486" type="curve"/>
      <point x="84" y="547" type="line"/>
      <point x="34" y="498" type="line"/>
      <point x="95" y="437" type="line"/>
      <point x="70" y="402"/>
      <point x="55" y="357"/>
      <point x="55" y="309" type="curve" smooth="yes"/>
      <point x="55" y="261"/>
      <point x="68" y="217"/>
      <point x="93" y="183" type="curve"/>
      <point x="34" y="125" type="line"/>
      <point x="84" y="76" type="line"/>
    </contour>
    <contour>
      <point x="122" y="313" type="curve" smooth="yes"/>
      <point x="122" y="398"/>
      <point x="185" y="463"/>
      <point x="272" y="463" type="curve" smooth="yes"/>
      <point x="359" y="463"/>
      <point x="421" y="398"/>
      <point x="421" y="312" type="curve" smooth="yes"/>
      <point x="421" y="226"/>
      <point x="359" y="162"/>
      <point x="272" y="162" type="curve" smooth="yes"/>
      <point x="185" y="162"/>
      <point x="122" y="227"/>
    </contour>
  </outline>
</glyph>
<glyph name="yen" format="1">
  <advance width="585"/>
  <unicode hex="00A5"/>
  <outline>
    <contour>
      <point x="327" y="247" type="line"/>
      <point x="548" y="654" type="line"/>
      <point x="457" y="654" type="line"/>
      <point x="289" y="331" type="line"/>
      <point x="124" y="654" type="line"/>
      <point x="34" y="654" type="line"/>
      <point x="252" y="247" type="line"/>
    </contour>
    <contour>
      <point x="330" y="0" type="line"/>
      <point x="330" y="268" type="line"/>
      <point x="249" y="268" type="line"/>
      <point x="249" y="0" type="line"/>
    </contour>
    <contour>
      <point x="508" y="157" type="line"/>
      <point x="508" y="215" type="line"/>
      <point x="72" y="215" type="line"/>
      <point x="72" y="157" type="line"/>
    </contour>
    <contour>
      <point x="258" y="304" type="line"/>
      <point x="258" y="362" type="line"/>
      <point x="72" y="362" type="line"/>
      <point x="72" y="304" type="line"/>
    </contour>
    <contour>
      <point x="508" y="304" type="line"/>
      <point x="508" y="362" type="line"/>
      <point x="321" y="362" type="line"/>
      <point x="321" y="304" type="line"/>
    </contour>
  </outline>
</glyph>
<glyph name="brokenbar" format="1">
  <advance width="227"/>
  <unicode hex="00A6"/>
  <outline>
    <contour>
      <point x="149" y="367" type="line"/>
      <point x="149" y="697" type="line"/>
      <point x="78" y="697" type="line"/>
      <point x="78" y="367" type="line"/>
    </contour>
    <contour>
      <point x="149" y="-179" type="line"/>
      <point x="149" y="152" type="line"/>
      <point x="78" y="152" type="line"/>
      <point x="78" y="-179" type="line"/>
    </contour>
  </outline>
</glyph>
<glyph name="section" format="1">
  <advance width="511"/>
  <unicode hex="00A7"/>
  <outline>
    <contour>
      <point x="457" y="203" type="curve" smooth="yes"/>
      <point x="457" y="314"/>
      <point x="372" y="355"/>
      <point x="287" y="394" type="curve" smooth="yes"/>
      <point x="204" y="432"/>
      <point x="138" y="443"/>
      <point x="138" y="511" type="curve" smooth="yes"/>
      <point x="138" y="572"/>
      <point x="188" y="605"/>
      <point x="271" y="605" type="curve" smooth="yes"/>
      <point x="322" y="605"/>
      <point x="381" y="588"/>
      <point x="416" y="565" type="curve"/>
      <point x="416" y="649" type="line"/>
      <point x="374" y="671"/>
      <point x="318" y="680"/>
      <point x="269" y="680" type="curve" smooth="yes"/>
      <point x="151" y="680"/>
      <point x="55" y="624"/>
      <point x="55" y="508" type="curve" smooth="yes"/>
      <point x="55" y="394"/>
      <point x="162" y="370"/>
      <point x="253" y="328" type="curve" smooth="yes"/>
      <point x="322" y="295"/>
      <point x="379" y="267"/>
      <point x="379" y="203" type="curve" smooth="yes"/>
      <point x="379" y="164"/>
      <point x="363" y="133"/>
      <point x="334" y="113" type="curve"/>
      <point x="390" y="63" type="line"/>
      <point x="431" y="92"/>
      <point x="457" y="141"/>
    </contour>
    <contour>
      <point x="455" y="-22" type="curve" smooth="yes"/>
      <point x="455" y="91"/>
      <point x="358" y="132"/>
      <point x="273" y="169" type="curve" smooth="yes"/>
      <point x="195" y="203"/>
      <point x="131" y="231"/>
      <point x="131" y="300" type="curve" smooth="yes"/>
      <point x="131" y="330"/>
      <point x="143" y="360"/>
      <point x="167" y="380" type="curve"/>
      <point x="101" y="421" type="line"/>
      <point x="71" y="391"/>
      <point x="51" y="350"/>
      <point x="51" y="299" type="curve" smooth="yes"/>
      <point x="51" y="181"/>
      <point x="152" y="140"/>
      <point x="243" y="100" type="curve" smooth="yes"/>
      <point x="327" y="63"/>
      <point x="373" y="36"/>
      <point x="373" y="-23" type="curve" smooth="yes"/>
      <point x="373" y="-93"/>
      <point x="322" y="-129"/>
      <point x="237" y="-129" type="curve" smooth="yes"/>
      <point x="171" y="-129"/>
      <point x="103" y="-107"/>
      <point x="59" y="-73" type="curve"/>
      <point x="59" y="-159" type="line"/>
      <point x="107" y="-188"/>
      <point x="175" y="-203"/>
      <point x="239" y="-203" type="curve" smooth="yes"/>
      <point x="362" y="-203"/>
      <point x="455" y="-142"/>
    </contour>
  </outline>
</glyph>
<glyph name="dieresis" format="1">
  <advance width="420"/>
  <unicode hex="00A8"/>
  <outline>
    <contour>
      <point x="361" y="723" type="curve" smooth="yes"/>
      <point x="361" y="752"/>
      <point x="340" y="773"/>
      <point x="310" y="773" type="curve" smooth="yes"/>
      <point x="282" y="773"/>
      <point x="259" y="752"/>
      <point x="259" y="723" type="curve" smooth="yes"/>
      <point x="259" y="694"/>
      <point x="282" y="672"/>
      <point x="310" y="672" type="curve" smooth="yes"/>
      <point x="340" y="672"/>
      <point x="361" y="694"/>
    </contour>
    <contour>
      <point x="160" y="723" type="curve" smooth="yes"/>
      <point x="160" y="752"/>
      <point x="138" y="773"/>
      <point x="110" y="773" type="curve" smooth="yes"/>
      <point x="80" y="773"/>
      <point x="59" y="752"/>
      <point x="59" y="723" type="curve" smooth="yes"/>
      <point x="59" y="694"/>
      <point x="80" y="672"/>
      <point x="110" y="672" type="curve" smooth="yes"/>
      <point x="138" y="672"/>
      <point x="160" y="694"/>
    </contour>
  </outline>
</glyph>
<glyph name="copyright" format="1">
  <advance width="776"/>
  <unicode hex="00A9"/>
  <outline>
    <contour>
      <point x="495" y="168" type="curve"/>
      <point x="495" y="233" type="line"/>
      <point x="477" y="218"/>
      <point x="446" y="208"/>
      <point x="417" y="208" type="curve" smooth="yes"/>
      <point x="342" y="208"/>
      <point x="293" y="263"/>
      <point x="292" y="334" type="curve" smooth="yes"/>
      <point x="293" y="410"/>
      <point x="344" y="462"/>
      <point x="417" y="462" type="curve" smooth="yes"/>
      <point x="440" y="462"/>
      <point x="473" y="455"/>
      <point x="495" y="440" type="curve"/>
      <point x="495" y="504" type="line"/>
      <point x="468" y="519"/>
      <point x="434" y="524"/>
      <point x="412" y="524" type="curve" smooth="yes"/>
      <point x="291" y="524"/>
      <point x="224" y="432"/>
      <point x="223" y="335" type="curve" smooth="yes"/>
      <point x="223" y="234"/>
      <point x="293" y="146"/>
      <point x="411" y="146" type="curve" smooth="yes"/>
      <point x="440" y="146"/>
      <point x="475" y="155"/>
    </contour>
    <contour>
      <point x="733" y="336" type="curve" smooth="yes"/>
      <point x="733" y="525"/>
      <point x="577" y="682"/>
      <point x="388" y="682" type="curve" smooth="yes"/>
      <point x="200" y="682"/>
      <point x="43" y="525"/>
      <point x="43" y="336" type="curve" smooth="yes"/>
      <point x="43" y="148"/>
      <point x="200" y="-9"/>
      <point x="388" y="-9" type="curve" smooth="yes"/>
      <point x="577" y="-9"/>
      <point x="733" y="148"/>
    </contour>
    <contour>
      <point x="110" y="336" type="curve" smooth="yes"/>
      <point x="110" y="490"/>
      <point x="235" y="616"/>
      <point x="389" y="616" type="curve" smooth="yes"/>
      <point x="543" y="616"/>
      <point x="668" y="490"/>
      <point x="668" y="336" type="curve" smooth="yes"/>
      <point x="668" y="182"/>
      <point x="543" y="57"/>
      <point x="389" y="57" type="curve" smooth="yes"/>
      <point x="235" y="57"/>
      <point x="110" y="182"/>
    </contour>
  </outline>
</glyph>
<glyph name="ordfeminine" format="1">
  <advance width="350"/>
  <unicode hex="00AA"/>
  <outline>
    <contour>
      <point x="255" y="446" type="curve"/>
      <point x="255" y="392" type="line"/>
      <point x="320" y="392" type="line"/>
      <point x="320" y="662" type="line" smooth="yes"/>
      <point x="320" y="767"/>
      <point x="273" y="826"/>
      <point x="159" y="826" type="curve" smooth="yes"/>
      <point x="112" y="826"/>
      <point x="62" y="812"/>
      <point x="33" y="795" type="curve"/>
      <point x="33" y="731" type="line"/>
      <point x="65" y="752"/>
      <point x="113" y="767"/>
      <point x="154" y="767" type="curve" smooth="yes"/>
      <point x="230" y="767"/>
      <point x="254" y="728"/>
      <point x="254" y="663" type="curve" smooth="yes"/>
      <point x="254" y="529" type="line"/>
      <point x="254" y="485"/>
      <point x="213" y="445"/>
      <point x="154" y="445" type="curve" smooth="yes"/>
      <point x="98" y="445"/>
      <point x="70" y="474"/>
      <point x="70" y="514" type="curve" smooth="yes"/>
      <point x="70" y="563"/>
      <point x="112" y="588"/>
      <point x="190" y="588" type="curve" smooth="yes"/>
      <point x="268" y="588" type="line"/>
      <point x="268" y="643" type="line"/>
      <point x="178" y="643" type="line" smooth="yes"/>
      <point x="70" y="643"/>
      <point x="2" y="595"/>
      <point x="2" y="512" type="curve" smooth="yes"/>
      <point x="2" y="436"/>
      <point x="56" y="388"/>
      <point x="136" y="388" type="curve" smooth="yes"/>
      <point x="188" y="388"/>
      <point x="230" y="413"/>
    </contour>
  </outline>
</glyph>
<glyph name="guillemotleft" format="1">
  <advance width="351"/>
  <unicode hex="00AB"/>
  <note>
    guillemotleft
  </note>
  <outline>
    <contour>
      <point x="263" y="68" type="line"/>
      <point x="179" y="181" type="line"/>
      <point x="179" y="183" type="line"/>
      <point x="263" y="296" type="line"/>
      <point x="235" y="308" type="line"/>
      <point x="140" y="182" type="line"/>
      <point x="235" y="56" type="line"/>
    </contour>
    <contour>
      <point x="197" y="70" type="line"/>
      <point x="114" y="181" type="line"/>
      <point x="114" y="183" type="line"/>
      <point x="197" y="294" type="line"/>
      <point x="170" y="306" type="line"/>
      <point x="75" y="182" type="line"/>
      <point x="170" y="58" type="line"/>
    </contour>
  </outline>
</glyph>
<glyph name="logicalnot" format="1">
  <advance width="549"/>
  <unicode hex="00AC"/>
  <outline>
    <contour>
      <point x="512" y="160" type="line"/>
      <point x="512" y="413" type="line"/>
      <point x="25" y="413" type="line"/>
      <point x="25" y="343" type="line"/>
      <point x="439" y="343" type="line"/>
      <point x="439" y="160" type="line"/>
    </contour>
  </outline>
</glyph>
<glyph name="softhyphen" format="1">
  <advance width="233"/>
  <unicode hex="00AD"/>
  <note>
    softhyphen
  </note>
  <outline>
    <contour>
      <point x="189" y="166" type="line"/>
      <point x="189" y="203" type="line"/>
      <point x="43" y="203" type="line"/>
      <point x="43" y="166" type="line"/>
    </contour>
  </outline>
</glyph>
<glyph name="degree" format="1">
  <advance width="354"/>
  <unicode hex="00B0"/>
  <outline>
    <contour>
      <point x="324" y="533" type="curve" smooth="yes"/>
      <point x="324" y="618"/>
      <point x="263" y="676"/>
      <point x="178" y="676" type="curve" smooth="yes"/>
      <point x="94" y="676"/>
      <point x="30" y="614"/>
      <point x="30" y="530" type="curve" smooth="yes"/>
      <point x="30" y="446"/>
      <point x="91" y="387"/>
      <point x="175" y="387" type="curve" smooth="yes"/>
      <point x="259" y="387"/>
      <point x="324" y="449"/>
    </contour>
    <contour>
      <point x="93" y="532" type="curve" smooth="yes"/>
      <point x="93" y="580"/>
      <point x="127" y="618"/>
      <point x="175" y="618" type="curve" smooth="yes"/>
      <point x="223" y="618"/>
      <point x="261" y="580"/>
      <point x="261" y="532" type="curve" smooth="yes"/>
      <point x="261" y="484"/>
      <point x="226" y="445"/>
      <point x="178" y="445" type="curve" smooth="yes"/>
      <point x="130" y="445"/>
      <point x="93" y="484"/>
    </contour>
  </outline>
</glyph>
<glyph name="plusminus" format="1">
  <advance width="553"/>
  <unicode hex="00B1"/>
  <outline>
    <contour>
      <point x="496" y="331" type="line"/>
      <point x="496" y="400" type="line"/>
      <point x="57" y="400" type="line"/>
      <point x="57" y="331" type="line"/>
    </contour>
    <contour>
      <point x="496" y="30" type="line"/>
      <point x="496" y="99" type="line"/>
      <point x="57" y="99" type="line"/>
      <point x="57" y="30" type="line"/>
    </contour>
    <contour>
      <point x="309" y="161" type="line"/>
      <point x="309" y="569" type="line"/>
      <point x="237" y="569" type="line"/>
      <point x="237" y="161" type="line"/>
    </contour>
  </outline>
</glyph>
<glyph name="acute" format="1">
  <advance width="420"/>
  <unicode hex="00B4"/>
  <outline>
    <contour>
      <point x="183" y="643" type="line"/>
      <point x="308" y="798" type="line"/>
      <point x="214" y="798" type="line"/>
      <point x="115" y="643" type="line"/>
    </contour>
  </outline>
</glyph>
<glyph name="mu.math" format="1">
  <advance width="545"/>
  <unicode hex="00B5"/>
  <outline>
    <contour>
      <point x="413" y="200" type="curve"/>
      <point x="394" y="228" type="line"/>
      <point x="394" y="127"/>
      <point x="348" y="64"/>
      <point x="273" y="64" type="curve" smooth="yes"/>
      <point x="211" y="64"/>
      <point x="151" y="102"/>
      <point x="151" y="178" type="curve" smooth="yes"/>
      <point x="151" y="460" type="line"/>
      <point x="99" y="460" type="line"/>
      <point x="99" y="158" type="line" smooth="yes"/>
      <point x="99" y="59"/>
      <point x="164" y="-6"/>
      <point x="261" y="-6" type="curve" smooth="yes"/>
      <point x="360" y="-6"/>
      <point x="418" y="62"/>
    </contour>
    <contour>
      <point x="151" y="-179" type="line"/>
      <point x="151" y="507" type="line"/>
      <point x="73" y="507" type="line"/>
      <point x="73" y="-179" type="line"/>
    </contour>
    <contour>
      <point x="472" y="0" type="line"/>
      <point x="472" y="507" type="line"/>
      <point x="394" y="507" type="line"/>
      <point x="394" y="0" type="line"/>
    </contour>
  </outline>
</glyph>
<glyph name="periodcentered" format="1">
  <advance width="248"/>
  <unicode hex="00B7"/>
  <note>
    periodcentered
  </note>
  <outline>
    <contour>
      <point x="156" y="195" type="curve" smooth="yes"/>
      <point x="156" y="215"/>
      <point x="144" y="226"/>
      <point x="125" y="226" type="curve" smooth="yes"/>
      <point x="105" y="226"/>
      <point x="92" y="215"/>
      <point x="92" y="195" type="curve" smooth="yes"/>
      <point x="92" y="176"/>
      <point x="105" y="165"/>
      <point x="125" y="165" type="curve" smooth="yes"/>
      <point x="144" y="165"/>
      <point x="156" y="176"/>
    </contour>
  </outline>
</glyph>
<glyph name="cedilla" format="1">
  <advance width="420"/>
  <unicode hex="00B8"/>
  <outline>
    <contour>
      <point x="285" y="-122" type="curve" smooth="yes"/>
      <point x="285" y="-99"/>
      <point x="278" y="-68"/>
      <point x="267" y="-51" type="curve"/>
      <point x="195" y="-51" type="line"/>
      <point x="211" y="-76"/>
      <point x="219" y="-96"/>
      <point x="219" y="-123" type="curve" smooth="yes"/>
      <point x="219" y="-165"/>
      <point x="190" y="-190"/>
      <point x="134" y="-195" type="curve"/>
      <point x="134" y="-252" type="line"/>
      <point x="236" y="-249"/>
      <point x="285" y="-189"/>
    </contour>
  </outline>
</glyph>
<glyph name="ordmasculine" format="1">
  <advance width="375"/>
  <unicode hex="00BA"/>
  <outline>
    <contour>
      <point x="381" y="607" type="curve" smooth="yes"/>
      <point x="381" y="728"/>
      <point x="316" y="828"/>
      <point x="186" y="828" type="curve" smooth="yes"/>
      <point x="68" y="828"/>
      <point x="-6" y="728"/>
      <point x="-6" y="605" type="curve" smooth="yes"/>
      <point x="-6" y="483"/>
      <point x="63" y="386"/>
      <point x="186" y="386" type="curve" smooth="yes"/>
      <point x="312" y="386"/>
      <point x="381" y="483"/>
    </contour>
    <contour>
      <point x="62" y="606" type="curve" smooth="yes"/>
      <point x="62" y="691"/>
      <point x="104" y="770"/>
      <point x="186" y="770" type="curve" smooth="yes"/>
      <point x="280" y="770"/>
      <point x="312" y="691"/>
      <point x="312" y="606" type="curve" smooth="yes"/>
      <point x="312" y="519"/>
      <point x="272" y="444"/>
      <point x="186" y="444" type="curve" smooth="yes"/>
      <point x="108" y="444"/>
      <point x="62" y="519"/>
    </contour>
  </outline>
</glyph>
<glyph name="guillemotright" format="1">
  <advance width="336"/>
  <unicode hex="00BB"/>
  <note>
    guillemotright
  </note>
  <outline>
    <contour>
      <point x="289" y="182" type="line"/>
      <point x="194" y="308" type="line"/>
      <point x="166" y="296" type="line"/>
      <point x="249" y="183" type="line"/>
      <point x="249" y="181" type="line"/>
      <point x="166" y="68" type="line"/>
      <point x="194" y="56" type="line"/>
    </contour>
    <contour>
      <point x="168" y="182" type="line"/>
      <point x="74" y="306" type="line"/>
      <point x="46" y="294" type="line"/>
      <point x="129" y="183" type="line"/>
      <point x="129" y="181" type="line"/>
      <point x="46" y="70" type="line"/>
      <point x="74" y="58" type="line"/>
    </contour>
  </outline>
</glyph>
<glyph name="onequarter" format="1">
  <advance width="832"/>
  <unicode hex="00BC"/>
  <outline>
    <contour>
      <point x="215" y="0" type="line"/>
      <point x="666" y="712" type="line"/>
      <point x="595" y="712" type="line"/>
      <point x="145" y="0" type="line"/>
    </contour>
    <contour>
      <point x="235" y="281" type="line"/>
      <point x="235" y="711" type="line"/>
      <point x="183" y="711" type="line"/>
      <point x="66" y="645" type="line"/>
      <point x="66" y="579" type="line"/>
      <point x="172" y="638" type="line"/>
      <point x="172" y="281" type="line"/>
    </contour>
    <contour>
      <point x="787" y="99" type="line"/>
      <point x="787" y="149" type="line"/>
      <point x="467" y="149" type="line"/>
      <point x="467" y="99" type="line"/>
    </contour>
    <contour>
      <point x="530" y="149" type="line"/>
      <point x="692" y="429" type="line"/>
      <point x="632" y="429" type="line"/>
      <point x="467" y="149" type="line"/>
    </contour>
    <contour>
      <point x="724" y="0" type="line"/>
      <point x="724" y="429" type="line"/>
      <point x="664" y="429" type="line"/>
      <point x="664" y="0" type="line"/>
    </contour>
  </outline>
</glyph>
<glyph name="onehalf" format="1">
  <advance width="833"/>
  <unicode hex="00BD"/>
  <outline>
    <contour>
      <point x="215" y="0" type="line"/>
      <point x="666" y="712" type="line"/>
      <point x="595" y="712" type="line"/>
      <point x="145" y="0" type="line"/>
    </contour>
    <contour>
      <point x="235" y="281" type="line"/>
      <point x="235" y="711" type="line"/>
      <point x="183" y="711" type="line"/>
      <point x="66" y="645" type="line"/>
      <point x="66" y="579" type="line"/>
      <point x="172" y="638" type="line"/>
      <point x="172" y="281" type="line"/>
    </contour>
    <contour>
      <point x="793" y="0" type="line"/>
      <point x="793" y="55" type="line"/>
      <point x="603" y="55" type="line"/>
      <point x="701" y="129"/>
      <point x="778" y="221"/>
      <point x="778" y="303" type="curve" smooth="yes"/>
      <point x="778" y="390"/>
      <point x="710" y="434"/>
      <point x="637" y="434" type="curve" smooth="yes"/>
      <point x="595" y="434"/>
      <point x="556" y="418"/>
      <point x="528" y="401" type="curve"/>
      <point x="528" y="333" type="line"/>
      <point x="559" y="357"/>
      <point x="598" y="375"/>
      <point x="635" y="375" type="curve" smooth="yes"/>
      <point x="678" y="375"/>
      <point x="712" y="352"/>
      <point x="712" y="299" type="curve" smooth="yes"/>
      <point x="712" y="219"/>
      <point x="612" y="122"/>
      <point x="514" y="48" type="curve"/>
      <point x="514" y="0" type="line"/>
    </contour>
  </outline>
</glyph>
<glyph name="threequarters" format="1">
  <advance width="866"/>
  <unicode hex="00BE"/>
  <outline>
    <contour>
      <point x="271" y="0" type="line"/>
      <point x="723" y="712" type="line"/>
      <point x="651" y="712" type="line"/>
      <point x="201" y="0" type="line"/>
    </contour>
    <contour>
      <point x="328" y="397" type="curve" smooth="yes"/>
      <point x="328" y="455"/>
      <point x="284" y="496"/>
      <point x="236" y="500" type="curve"/>
      <point x="284" y="511"/>
      <point x="315" y="546"/>
      <point x="315" y="599" type="curve" smooth="yes"/>
      <point x="315" y="661"/>
      <point x="271" y="715"/>
      <point x="178" y="715" type="curve" smooth="yes"/>
      <point x="143" y="715"/>
      <point x="106" y="702"/>
      <point x="85" y="689" type="curve"/>
      <point x="85" y="626" type="line"/>
      <point x="113" y="645"/>
      <point x="148" y="658"/>
      <point x="177" y="658" type="curve" smooth="yes"/>
      <point x="221" y="658"/>
      <point x="250" y="638"/>
      <point x="250" y="594" type="curve" smooth="yes"/>
      <point x="250" y="549"/>
      <point x="210" y="525"/>
      <point x="165" y="525" type="curve" smooth="yes"/>
      <point x="140" y="525" type="line"/>
      <point x="140" y="471" type="line"/>
      <point x="165" y="471" type="line" smooth="yes"/>
      <point x="228" y="471"/>
      <point x="263" y="444"/>
      <point x="263" y="400" type="curve" smooth="yes"/>
      <point x="263" y="359"/>
      <point x="233" y="334"/>
      <point x="183" y="334" type="curve" smooth="yes"/>
      <point x="146" y="334"/>
      <point x="109" y="342"/>
      <point x="73" y="361" type="curve"/>
      <point x="73" y="302" type="line"/>
      <point x="104" y="286"/>
      <point x="151" y="277"/>
      <point x="187" y="277" type="curve" smooth="yes"/>
      <point x="278" y="277"/>
      <point x="328" y="328"/>
    </contour>
    <contour>
      <point x="843" y="99" type="line"/>
      <point x="843" y="149" type="line"/>
      <point x="523" y="149" type="line"/>
      <point x="523" y="99" type="line"/>
    </contour>
    <contour>
      <point x="586" y="149" type="line"/>
      <point x="748" y="429" type="line"/>
      <point x="688" y="429" type="line"/>
      <point x="523" y="149" type="line"/>
    </contour>
    <contour>
      <point x="780" y="0" type="line"/>
      <point x="780" y="429" type="line"/>
      <point x="720" y="429" type="line"/>
      <point x="720" y="0" type="line"/>
    </contour>
  </outline>
</glyph>
<glyph name="questiondown" format="1">
  <advance width="425"/>
  <unicode hex="00BF"/>
  <note>
    questiondown
  </note>
  <outline>
    <contour>
      <point x="348" y="-48" type="curve"/>
      <point x="348" y="-33" type="line" smooth="yes"/>
      <point x="348" y="-13"/>
      <point x="344" y="9"/>
      <point x="338" y="27" type="curve"/>
      <point x="309" y="27" type="line"/>
      <point x="309" y="-24" type="line"/>
      <point x="277" y="-34"/>
      <point x="244" y="-38"/>
      <point x="208" y="-38" type="curve" smooth="yes"/>
      <point x="145" y="-38"/>
      <point x="119" y="-17"/>
      <point x="119" y="38" type="curve" smooth="yes"/>
      <point x="119" y="85" type="line"/>
      <point x="231" y="168" type="line" smooth="yes"/>
      <point x="248" y="181"/>
      <point x="254" y="191"/>
      <point x="254" y="211" type="curve" smooth="yes"/>
      <point x="254" y="263" type="line"/>
      <point x="214" y="263" type="line"/>
      <point x="214" y="221" type="line" smooth="yes"/>
      <point x="214" y="202"/>
      <point x="212" y="197"/>
      <point x="198" y="187" type="curve" smooth="yes"/>
      <point x="118" y="128" type="line" smooth="yes"/>
      <point x="84" y="104"/>
      <point x="78" y="78"/>
      <point x="78" y="38" type="curve" smooth="yes"/>
      <point x="78" y="-40"/>
      <point x="117" y="-76"/>
      <point x="207" y="-76" type="curve" smooth="yes"/>
      <point x="265" y="-76"/>
      <point x="317" y="-62"/>
    </contour>
    <contour>
      <point x="255" y="315" type="line"/>
      <point x="255" y="376" type="line"/>
      <point x="212" y="376" type="line"/>
      <point x="212" y="315" type="line"/>
    </contour>
  </outline>
</glyph>
<glyph name="AE" format="1">
  <advance width="878"/>
  <unicode hex="00C6"/>
  <outline>
    <contour>
      <point x="109" y="0" type="line"/>
      <point x="273" y="284" type="line" smooth="yes"/>
      <point x="417" y="532"/>
      <point x="484" y="661"/>
      <point x="487" y="674" type="curve"/>
      <point x="407" y="674" type="line"/>
      <point x="23" y="0" type="line"/>
    </contour>
    <contour>
      <point x="492" y="177" type="line"/>
      <point x="492" y="246" type="line"/>
      <point x="191" y="246" type="line"/>
      <point x="191" y="177" type="line"/>
    </contour>
    <contour>
      <point x="830" y="0" type="line"/>
      <point x="830" y="70" type="line"/>
      <point x="473" y="70" type="line"/>
      <point x="473" y="0" type="line"/>
    </contour>
    <contour>
      <point x="535" y="0" type="line"/>
      <point x="535" y="674" type="line"/>
      <point x="456" y="674" type="line"/>
      <point x="456" y="0" type="line"/>
    </contour>
    <contour>
      <point x="791" y="302" type="line"/>
      <point x="791" y="372" type="line"/>
      <point x="473" y="372" type="line"/>
      <point x="473" y="302" type="line"/>
    </contour>
    <contour>
      <point x="825" y="604" type="line"/>
      <point x="825" y="674" type="line"/>
      <point x="473" y="674" type="line"/>
      <point x="473" y="604" type="line"/>
    </contour>
  </outline>
</glyph>
<glyph name="multiply" format="1">
  <advance width="491"/>
  <unicode hex="00D7"/>
  <outline>
    <contour>
      <point x="427" y="210" type="line"/>
      <point x="109" y="525" type="line"/>
      <point x="59" y="475" type="line"/>
      <point x="377" y="159" type="line"/>
    </contour>
    <contour>
      <point x="431" y="475" type="line"/>
      <point x="380" y="526" type="line"/>
      <point x="63" y="211" type="line"/>
      <point x="114" y="160" type="line"/>
    </contour>
  </outline>
</glyph>
<glyph name="Oslash" format="1">
  <advance width="674"/>
  <unicode hex="00D8"/>
  <outline>
    <contour>
      <point x="645" y="340" type="curve" smooth="yes"/>
      <point x="645" y="551"/>
      <point x="533" y="687"/>
      <point x="343" y="687" type="curve" smooth="yes"/>
      <point x="158" y="687"/>
      <point x="41" y="551"/>
      <point x="41" y="340" type="curve" smooth="yes"/>
      <point x="41" y="129"/>
      <point x="162" y="-8"/>
      <point x="344" y="-8" type="curve" smooth="yes"/>
      <point x="530" y="-8"/>
      <point x="645" y="129"/>
    </contour>
    <contour>
      <point x="124" y="340" type="curve" smooth="yes"/>
      <point x="124" y="509"/>
      <point x="206" y="613"/>
      <point x="343" y="613" type="curve" smooth="yes"/>
      <point x="484" y="613"/>
      <point x="562" y="510"/>
      <point x="562" y="340" type="curve" smooth="yes"/>
      <point x="562" y="170"/>
      <point x="484" y="67"/>
      <point x="344" y="67" type="curve" smooth="yes"/>
      <point x="212" y="67"/>
      <point x="124" y="169"/>
    </contour>
    <contour>
      <point x="127" y="-9" type="line"/>
      <point x="646" y="687" type="line"/>
      <point x="560" y="687" type="line"/>
      <point x="41" y="-9" type="line"/>
    </contour>
  </outline>
</glyph>
<glyph name="Thorn" format="1">
  <advance width="536"/>
  <unicode hex="00DE"/>
  <outline>
    <contour>
      <point x="254" y="124" type="line"/>
      <point x="412" y="124"/>
      <point x="498" y="216"/>
      <point x="498" y="332" type="curve" smooth="yes"/>
      <point x="498" y="459"/>
      <point x="412" y="550"/>
      <point x="245" y="550" type="curve" smooth="yes"/>
      <point x="77" y="550" type="line"/>
      <point x="77" y="481" type="line"/>
      <point x="248" y="481" type="line" smooth="yes"/>
      <point x="367" y="481"/>
      <point x="416" y="418"/>
      <point x="416" y="331" type="curve" smooth="yes"/>
      <point x="416" y="255"/>
      <point x="367" y="193"/>
      <point x="257" y="193" type="curve" smooth="yes"/>
      <point x="77" y="193" type="line"/>
      <point x="77" y="124" type="line"/>
    </contour>
    <contour>
      <point x="157" y="0" type="line"/>
      <point x="157" y="674" type="line"/>
      <point x="77" y="674" type="line"/>
      <point x="77" y="0" type="line"/>
    </contour>
  </outline>
</glyph>
<glyph name="germandbls" format="1">
  <advance width="540"/>
  <unicode hex="00DF"/>
  <outline>
    <contour>
      <point x="511" y="137" type="curve" smooth="yes"/>
      <point x="511" y="267"/>
      <point x="367" y="291"/>
      <point x="367" y="358" type="curve" smooth="yes"/>
      <point x="367" y="409"/>
      <point x="444" y="434"/>
      <point x="444" y="537" type="curve" smooth="yes"/>
      <point x="444" y="619"/>
      <point x="377" y="690"/>
      <point x="269" y="690" type="curve" smooth="yes"/>
      <point x="156" y="690"/>
      <point x="76" y="629"/>
      <point x="76" y="496" type="curve"/>
      <point x="76" y="0" type="line"/>
      <point x="154" y="0" type="line"/>
      <point x="154" y="498" type="line"/>
      <point x="154" y="581"/>
      <point x="195" y="617"/>
      <point x="266" y="617" type="curve" smooth="yes"/>
      <point x="325" y="617"/>
      <point x="365" y="585"/>
      <point x="365" y="534" type="curve" smooth="yes"/>
      <point x="365" y="456"/>
      <point x="284" y="434"/>
      <point x="284" y="352" type="curve" smooth="yes"/>
      <point x="284" y="245"/>
      <point x="434" y="225"/>
      <point x="434" y="132" type="curve" smooth="yes"/>
      <point x="434" y="90"/>
      <point x="398" y="61"/>
      <point x="343" y="61" type="curve" smooth="yes"/>
      <point x="308" y="61"/>
      <point x="286" y="66"/>
      <point x="258" y="81" type="curve"/>
      <point x="258" y="5" type="line"/>
      <point x="284" y="-5"/>
      <point x="312" y="-7"/>
      <point x="343" y="-7" type="curve" smooth="yes"/>
      <point x="452" y="-7"/>
      <point x="511" y="55"/>
    </contour>
  </outline>
</glyph>
<glyph name="ae" format="1">
  <advance width="819"/>
  <unicode hex="00E6"/>
  <outline>
    <contour>
      <point x="396" y="99" type="curve"/>
      <point x="436" y="35"/>
      <point x="516" y="-5"/>
      <point x="603" y="-5" type="curve" smooth="yes"/>
      <point x="648" y="-5"/>
      <point x="706" y="6"/>
      <point x="743" y="26" type="curve"/>
      <point x="743" y="100" type="line"/>
      <point x="708" y="76"/>
      <point x="654" y="64"/>
      <point x="609" y="64" type="curve" smooth="yes"/>
      <point x="516" y="64"/>
      <point x="442" y="117"/>
      <point x="430" y="220" type="curve"/>
      <point x="774" y="220" type="line"/>
      <point x="777" y="236"/>
      <point x="779" y="263"/>
      <point x="779" y="275" type="curve" smooth="yes"/>
      <point x="779" y="428"/>
      <point x="707" y="513"/>
      <point x="576" y="513" type="curve" smooth="yes"/>
      <point x="502" y="513"/>
      <point x="440" y="482"/>
      <point x="401" y="424" type="curve"/>
      <point x="378" y="482"/>
      <point x="324" y="515"/>
      <point x="236" y="515" type="curve" smooth="yes"/>
      <point x="181" y="515"/>
      <point x="123" y="500"/>
      <point x="89" y="479" type="curve"/>
      <point x="89" y="402" type="line"/>
      <point x="127" y="428"/>
      <point x="184" y="445"/>
      <point x="233" y="445" type="curve" smooth="yes"/>
      <point x="322" y="445"/>
      <point x="351" y="399"/>
      <point x="351" y="323" type="curve" smooth="yes"/>
      <point x="351" y="298" type="line"/>
      <point x="262" y="298" type="line" smooth="yes"/>
      <point x="134" y="298"/>
      <point x="52" y="241"/>
      <point x="52" y="142" type="curve" smooth="yes"/>
      <point x="52" y="51"/>
      <point x="118" y="-5"/>
      <point x="215" y="-5" type="curve" smooth="yes"/>
      <point x="309" y="-5"/>
      <point x="372" y="40"/>
    </contour>
    <contour>
      <point x="134" y="145" type="curve" smooth="yes"/>
      <point x="134" y="203"/>
      <point x="183" y="233"/>
      <point x="276" y="233" type="curve" smooth="yes"/>
      <point x="351" y="233" type="line"/>
      <point x="351" y="177" type="line"/>
      <point x="351" y="106"/>
      <point x="298" y="63"/>
      <point x="233" y="63" type="curve" smooth="yes"/>
      <point x="166" y="63"/>
      <point x="134" y="96"/>
    </contour>
    <contour>
      <point x="576" y="445" type="curve" smooth="yes"/>
      <point x="648" y="445"/>
      <point x="701" y="398"/>
      <point x="702" y="306" type="curve"/>
      <point x="702" y="286" type="line"/>
      <point x="429" y="286" type="line"/>
      <point x="440" y="396"/>
      <point x="505" y="445"/>
    </contour>
  </outline>
</glyph>
<glyph name="igrave" format="1">
  <advance width="232"/>
  <unicode hex="00EC"/>
  <outline>
    <contour>
      <point x="155" y="0" type="line"/>
      <point x="155" y="507" type="line"/>
      <point x="77" y="507" type="line"/>
      <point x="77" y="0" type="line"/>
    </contour>
    <component base="grave" xOffset="-163" yOffset="-83"/>
  </outline>
</glyph>
<glyph name="icircumflex" format="1">
  <advance width="232"/>
  <unicode hex="00EE"/>
  <outline>
    <contour>
      <point x="155" y="0" type="line"/>
      <point x="155" y="507" type="line"/>
      <point x="77" y="507" type="line"/>
      <point x="77" y="0" type="line"/>
    </contour>
    <component base="circumflex" xOffset="-93" yOffset="-82"/>
  </outline>
</glyph>
<glyph name="eth" format="1">
  <advance width="516"/>
  <unicode hex="00F0"/>
  <outline>
    <contour>
      <point x="471" y="269" type="curve" smooth="yes"/>
      <point x="471" y="461"/>
      <point x="357" y="608"/>
      <point x="254" y="674" type="curve"/>
      <point x="131" y="674" type="line"/>
      <point x="244" y="616"/>
      <point x="396" y="481"/>
      <point x="396" y="270" type="curve" smooth="yes"/>
      <point x="396" y="119"/>
      <point x="327" y="63"/>
      <point x="251" y="63" type="curve" smooth="yes"/>
      <point x="175" y="63"/>
      <point x="119" y="114"/>
      <point x="119" y="200" type="curve" smooth="yes"/>
      <point x="119" y="289"/>
      <point x="175" y="336"/>
      <point x="245" y="336" type="curve" smooth="yes"/>
      <point x="325" y="336"/>
      <point x="386" y="285"/>
      <point x="417" y="222" type="curve"/>
      <point x="418" y="298" type="line"/>
      <point x="385" y="366"/>
      <point x="317" y="408"/>
      <point x="240" y="408" type="curve" smooth="yes"/>
      <point x="136" y="408"/>
      <point x="38" y="336"/>
      <point x="38" y="202" type="curve" smooth="yes"/>
      <point x="38" y="90"/>
      <point x="120" y="-9"/>
      <point x="251" y="-9" type="curve" smooth="yes"/>
      <point x="384" y="-9"/>
      <point x="471" y="84"/>
    </contour>
    <contour>
      <point x="452" y="613" type="line"/>
      <point x="452" y="674" type="line"/>
      <point x="161" y="525" type="line"/>
      <point x="161" y="464" type="line"/>
    </contour>
  </outline>
</glyph>
<glyph name="divide" format="1">
  <advance width="553"/>
  <unicode hex="00F7"/>
  <outline>
    <contour>
      <point x="496" y="305" type="line"/>
      <point x="496" y="375" type="line"/>
      <point x="57" y="375" type="line"/>
      <point x="57" y="305" type="line"/>
    </contour>
    <contour>
      <point x="328" y="162" type="curve" smooth="yes"/>
      <point x="328" y="190"/>
      <point x="304" y="214"/>
      <point x="276" y="214" type="curve" smooth="yes"/>
      <point x="247" y="214"/>
      <point x="224" y="190"/>
      <point x="224" y="162" type="curve" smooth="yes"/>
      <point x="224" y="133"/>
      <point x="247" y="110"/>
      <point x="276" y="110" type="curve" smooth="yes"/>
      <point x="304" y="110"/>
      <point x="328" y="133"/>
    </contour>
    <contour>
      <point x="328" y="518" type="curve" smooth="yes"/>
      <point x="328" y="547"/>
      <point x="304" y="570"/>
      <point x="276" y="570" type="curve" smooth="yes"/>
      <point x="247" y="570"/>
      <point x="224" y="547"/>
      <point x="224" y="518" type="curve" smooth="yes"/>
      <point x="224" y="490"/>
      <point x="247" y="466"/>
      <point x="276" y="466" type="curve" smooth="yes"/>
      <point x="304" y="466"/>
      <point x="328" y="490"/>
    </contour>
  </outline>
</glyph>
<glyph name="oslash" format="1">
  <advance width="563"/>
  <unicode hex="00F8"/>
  <outline>
    <contour>
      <point x="533" y="252" type="curve" smooth="yes"/>
      <point x="533" y="397"/>
      <point x="451" y="514"/>
      <point x="293" y="514" type="curve" smooth="yes"/>
      <point x="150" y="514"/>
      <point x="57" y="397"/>
      <point x="57" y="250" type="curve" smooth="yes"/>
      <point x="57" y="106"/>
      <point x="143" y="-9"/>
      <point x="293" y="-9" type="curve" smooth="yes"/>
      <point x="447" y="-9"/>
      <point x="533" y="106"/>
    </contour>
    <contour>
      <point x="132" y="251" type="curve" smooth="yes"/>
      <point x="132" y="357"/>
      <point x="187" y="450"/>
      <point x="293" y="450" type="curve" smooth="yes"/>
      <point x="412" y="450"/>
      <point x="457" y="356"/>
      <point x="457" y="251" type="curve" smooth="yes"/>
      <point x="457" y="146"/>
      <point x="403" y="55"/>
      <point x="293" y="55" type="curve" smooth="yes"/>
      <point x="192" y="55"/>
      <point x="132" y="146"/>
    </contour>
    <contour>
      <point x="138" y="-9" type="line"/>
      <point x="533" y="514" type="line"/>
      <point x="451" y="514" type="line"/>
      <point x="57" y="-9" type="line"/>
    </contour>
  </outline>
</glyph>
<glyph name="thorn" format="1">
  <advance width="566"/>
  <unicode hex="00FE"/>
  <outline>
    <contour>
      <point x="151" y="-197" type="line"/>
      <point x="151" y="707" type="line"/>
      <point x="73" y="707" type="line"/>
      <point x="73" y="-197" type="line"/>
    </contour>
    <contour>
      <point x="523" y="258" type="curve" smooth="yes"/>
      <point x="523" y="398"/>
      <point x="447" y="515"/>
      <point x="307" y="515" type="curve" smooth="yes"/>
      <point x="158" y="515"/>
      <point x="106" y="379"/>
      <point x="106" y="252" type="curve" smooth="yes"/>
      <point x="106" y="101"/>
      <point x="179" y="-8"/>
      <point x="305" y="-8" type="curve" smooth="yes"/>
      <point x="436" y="-8"/>
      <point x="523" y="104"/>
    </contour>
    <contour>
      <point x="151" y="253" type="curve" smooth="yes"/>
      <point x="151" y="400"/>
      <point x="231" y="444"/>
      <point x="301" y="444" type="curve" smooth="yes"/>
      <point x="381" y="444"/>
      <point x="442" y="371"/>
      <point x="442" y="258" type="curve" smooth="yes"/>
      <point x="442" y="128"/>
      <point x="377" y="63"/>
      <point x="296" y="63" type="curve" smooth="yes"/>
      <point x="236" y="63"/>
      <point x="151" y="109"/>
    </contour>
  </outline>
</glyph>
<glyph name="Aogonek" format="1">
  <advance width="646"/>
  <unicode hex="0104"/>
  <outline>
    <contour>
      <point x="120" y="0" type="line"/>
      <point x="216" y="284" type="line" smooth="yes"/>
      <point x="312" y="568"/>
      <point x="324" y="610"/>
      <point x="324" y="610" type="curve"/>
      <point x="324" y="610"/>
      <point x="336" y="568"/>
      <point x="430" y="285" type="curve" smooth="yes"/>
      <point x="525" y="0" type="line"/>
      <point x="612" y="0" type="line"/>
      <point x="380" y="674" type="line"/>
      <point x="269" y="674" type="line"/>
      <point x="34" y="0" type="line"/>
    </contour>
    <contour>
      <point x="632" y="-222" type="curve"/>
      <point x="632" y="-162" type="line"/>
      <point x="616" y="-174"/>
      <point x="589" y="-184"/>
      <point x="564" y="-184" type="curve" smooth="yes"/>
      <point x="525" y="-184"/>
      <point x="499" y="-164"/>
      <point x="499" y="-125" type="curve" smooth="yes"/>
      <point x="499" y="-73"/>
      <point x="550" y="-30"/>
      <point x="612" y="0" type="curve"/>
      <point x="578" y="38" type="line"/>
      <point x="508" y="13"/>
      <point x="431" y="-49"/>
      <point x="431" y="-132" type="curve" smooth="yes"/>
      <point x="431" y="-193"/>
      <point x="473" y="-242"/>
      <point x="554" y="-242" type="curve" smooth="yes"/>
      <point x="582" y="-242"/>
      <point x="611" y="-236"/>
    </contour>
    <contour>
      <point x="499" y="177" type="line"/>
      <point x="499" y="246" type="line"/>
      <point x="147" y="246" type="line"/>
      <point x="147" y="177" type="line"/>
    </contour>
  </outline>
</glyph>
<glyph name="aogonek" format="1">
  <advance width="491"/>
  <unicode hex="0105"/>
  <outline>
    <contour>
      <point x="348" y="63" type="curve"/>
      <point x="348" y="0" type="line"/>
      <point x="425" y="0" type="line"/>
      <point x="425" y="321" type="line" smooth="yes"/>
      <point x="425" y="445"/>
      <point x="369" y="515"/>
      <point x="233" y="515" type="curve" smooth="yes"/>
      <point x="178" y="515"/>
      <point x="118" y="500"/>
      <point x="84" y="479" type="curve"/>
      <point x="84" y="402" type="line"/>
      <point x="122" y="428"/>
      <point x="179" y="445"/>
      <point x="228" y="445" type="curve" smooth="yes"/>
      <point x="317" y="445"/>
      <point x="346" y="399"/>
      <point x="346" y="323" type="curve" smooth="yes"/>
      <point x="346" y="162" type="line"/>
      <point x="346" y="110"/>
      <point x="298" y="63"/>
      <point x="228" y="63" type="curve" smooth="yes"/>
      <point x="161" y="63"/>
      <point x="129" y="96"/>
      <point x="129" y="145" type="curve" smooth="yes"/>
      <point x="129" y="203"/>
      <point x="178" y="233"/>
      <point x="271" y="233" type="curve" smooth="yes"/>
      <point x="360" y="233" type="line"/>
      <point x="360" y="298" type="line"/>
      <point x="257" y="298" type="line" smooth="yes"/>
      <point x="129" y="298"/>
      <point x="47" y="241"/>
      <point x="47" y="142" type="curve" smooth="yes"/>
      <point x="47" y="53"/>
      <point x="112" y="-5"/>
      <point x="206" y="-5" type="curve" smooth="yes"/>
      <point x="268" y="-5"/>
      <point x="318" y="24"/>
    </contour>
    <contour>
      <point x="446" y="-222" type="curve"/>
      <point x="446" y="-162" type="line"/>
      <point x="429" y="-174"/>
      <point x="402" y="-184"/>
      <point x="377" y="-184" type="curve" smooth="yes"/>
      <point x="338" y="-184"/>
      <point x="313" y="-164"/>
      <point x="313" y="-125" type="curve" smooth="yes"/>
      <point x="313" y="-73"/>
      <point x="364" y="-30"/>
      <point x="425" y="0" type="curve"/>
      <point x="394" y="38" type="line"/>
      <point x="325" y="13"/>
      <point x="245" y="-49"/>
      <point x="245" y="-132" type="curve" smooth="yes"/>
      <point x="245" y="-193"/>
      <point x="287" y="-242"/>
      <point x="367" y="-242" type="curve" smooth="yes"/>
      <point x="396" y="-242"/>
      <point x="424" y="-236"/>
    </contour>
  </outline>
</glyph>
<glyph name="imacron" format="1">
  <advance width="232"/>
  <unicode hex="012B"/>
  <outline>
    <contour>
      <point x="155" y="0" type="line"/>
      <point x="155" y="507" type="line"/>
      <point x="77" y="507" type="line"/>
      <point x="77" y="0" type="line"/>
    </contour>
    <component base="macron" xOffset="-93" yOffset="-84"/>
  </outline>
</glyph>
<glyph name="kcommaaccent" format="1">
  <advance width="479"/>
  <unicode hex="0137"/>
  <outline>
    <contour>
      <point x="151" y="0" type="line"/>
      <point x="151" y="704" type="line"/>
      <point x="73" y="704" type="line"/>
      <point x="73" y="0" type="line"/>
    </contour>
    <contour>
      <point x="252" y="266" type="line"/>
      <point x="453" y="507" type="line"/>
      <point x="360" y="507" type="line"/>
      <point x="161" y="266" type="line"/>
    </contour>
    <contour>
      <point x="459" y="0" type="line"/>
      <point x="252" y="266" type="line"/>
      <point x="161" y="266" type="line"/>
      <point x="365" y="0" type="line"/>
    </contour>
    <contour>
      <point x="181" y="-243" type="line"/>
      <point x="292" y="-51" type="line"/>
      <point x="201" y="-51" type="line"/>
      <point x="117" y="-243" type="line"/>
    </contour>
  </outline>
</glyph>
<glyph name="Lcommaaccent" format="1">
  <advance width="477"/>
  <unicode hex="013B"/>
  <outline>
    <contour>
      <point x="157" y="0" type="line"/>
      <point x="157" y="674" type="line"/>
      <point x="77" y="674" type="line"/>
      <point x="77" y="0" type="line"/>
    </contour>
    <contour>
      <point x="203" y="-243" type="line"/>
      <point x="315" y="-51" type="line"/>
      <point x="224" y="-51" type="line"/>
      <point x="139" y="-243" type="line"/>
    </contour>
    <contour>
      <point x="445" y="0" type="line"/>
      <point x="445" y="73" type="line"/>
      <point x="95" y="73" type="line"/>
      <point x="95" y="0" type="line"/>
    </contour>
  </outline>
</glyph>
<glyph name="lcommaaccent" format="1">
  <advance width="232"/>
  <unicode hex="013C"/>
  <outline>
    <contour>
      <point x="155" y="0" type="line"/>
      <point x="155" y="707" type="line"/>
      <point x="77" y="707" type="line"/>
      <point x="77" y="0" type="line"/>
    </contour>
    <contour>
      <point x="51" y="-243" type="line"/>
      <point x="162" y="-51" type="line"/>
      <point x="71" y="-51" type="line"/>
      <point x="-13" y="-243" type="line"/>
    </contour>
  </outline>
</glyph>
<glyph name="lcaron" format="1">
  <advance width="258"/>
  <unicode hex="013E"/>
  <outline>
    <contour>
      <point x="155" y="0" type="line"/>
      <point x="155" y="707" type="line"/>
      <point x="77" y="707" type="line"/>
      <point x="77" y="0" type="line"/>
    </contour>
    <contour>
      <point x="287" y="516" type="line"/>
      <point x="398" y="707" type="line"/>
      <point x="307" y="707" type="line"/>
      <point x="223" y="516" type="line"/>
    </contour>
  </outline>
</glyph>
<glyph name="Lslash" format="1">
  <advance width="499"/>
  <unicode hex="0141"/>
  <outline>
    <contour>
      <point x="326" y="405" type="line"/>
      <point x="326" y="482" type="line"/>
      <point x="29" y="275" type="line"/>
      <point x="29" y="198" type="line"/>
    </contour>
    <contour>
      <point x="464" y="0" type="line"/>
      <point x="464" y="73" type="line"/>
      <point x="114" y="73" type="line"/>
      <point x="114" y="0" type="line"/>
    </contour>
    <contour>
      <point x="177" y="0" type="line"/>
      <point x="177" y="674" type="line"/>
      <point x="96" y="674" type="line"/>
      <point x="96" y="0" type="line"/>
    </contour>
  </outline>
</glyph>
<glyph name="lslash" format="1">
  <advance width="291"/>
  <unicode hex="0142"/>
  <outline>
    <contour>
      <point x="179" y="0" type="line"/>
      <point x="179" y="707" type="line"/>
      <point x="101" y="707" type="line"/>
      <point x="101" y="0" type="line"/>
    </contour>
    <contour>
      <point x="261" y="417" type="line"/>
      <point x="261" y="494" type="line"/>
      <point x="33" y="333" type="line"/>
      <point x="33" y="256" type="line"/>
    </contour>
  </outline>
</glyph>
<glyph name="Ncommaaccent" format="1">
  <advance width="673"/>
  <unicode hex="0145"/>
  <outline>
    <contour>
      <point x="157" y="0" type="line"/>
      <point x="157" y="284" type="line" smooth="yes"/>
      <point x="157" y="474"/>
      <point x="153" y="578"/>
      <point x="153" y="578" type="curve"/>
      <point x="153" y="578"/>
      <point x="210" y="474"/>
      <point x="325" y="282" type="curve" smooth="yes"/>
      <point x="494" y="0" type="line"/>
      <point x="596" y="0" type="line"/>
      <point x="596" y="674" type="line"/>
      <point x="516" y="674" type="line"/>
      <point x="516" y="389" type="line" smooth="yes"/>
      <point x="516" y="194"/>
      <point x="519" y="96"/>
      <point x="519" y="96" type="curve"/>
      <point x="519" y="96"/>
      <point x="465" y="194"/>
      <point x="348" y="390" type="curve" smooth="yes"/>
      <point x="179" y="674" type="line"/>
      <point x="77" y="674" type="line"/>
      <point x="77" y="0" type="line"/>
    </contour>
    <contour>
      <point x="282" y="-243" type="line"/>
      <point x="393" y="-51" type="line"/>
      <point x="302" y="-51" type="line"/>
      <point x="218" y="-243" type="line"/>
    </contour>
  </outline>
</glyph>
<glyph name="OE" format="1">
  <advance width="983"/>
  <unicode hex="0152"/>
  <outline>
    <contour>
      <point x="636" y="340" type="curve" smooth="yes"/>
      <point x="636" y="549"/>
      <point x="529" y="687"/>
      <point x="345" y="687" type="curve" smooth="yes"/>
      <point x="160" y="687"/>
      <point x="48" y="551"/>
      <point x="48" y="340" type="curve" smooth="yes"/>
      <point x="48" y="129"/>
      <point x="164" y="-8"/>
      <point x="346" y="-8" type="curve" smooth="yes"/>
      <point x="526" y="-8"/>
      <point x="636" y="131"/>
    </contour>
    <contour>
      <point x="132" y="340" type="curve" smooth="yes"/>
      <point x="132" y="508"/>
      <point x="209" y="611"/>
      <point x="345" y="611" type="curve" smooth="yes"/>
      <point x="485" y="611"/>
      <point x="559" y="508"/>
      <point x="559" y="340" type="curve" smooth="yes"/>
      <point x="559" y="171"/>
      <point x="485" y="68"/>
      <point x="346" y="68" type="curve" smooth="yes"/>
      <point x="214" y="68"/>
      <point x="132" y="171"/>
    </contour>
    <contour>
      <point x="935" y="0" type="line"/>
      <point x="935" y="70" type="line"/>
      <point x="577" y="70" type="line"/>
      <point x="577" y="0" type="line"/>
    </contour>
    <contour>
      <point x="638" y="0" type="line"/>
      <point x="638" y="674" type="line"/>
      <point x="559" y="674" type="line"/>
      <point x="559" y="0" type="line"/>
    </contour>
    <contour>
      <point x="896" y="302" type="line"/>
      <point x="896" y="372" type="line"/>
      <point x="577" y="372" type="line"/>
      <point x="577" y="302" type="line"/>
    </contour>
    <contour>
      <point x="930" y="604" type="line"/>
      <point x="930" y="674" type="line"/>
      <point x="577" y="674" type="line"/>
      <point x="577" y="604" type="line"/>
    </contour>
  </outline>
</glyph>
<glyph name="oe" format="1">
  <advance width="893"/>
  <unicode hex="0153"/>
  <outline>
    <contour>
      <point x="498" y="252" type="curve" smooth="yes"/>
      <point x="498" y="397"/>
      <point x="425" y="514"/>
      <point x="271" y="514" type="curve" smooth="yes"/>
      <point x="128" y="514"/>
      <point x="43" y="397"/>
      <point x="43" y="250" type="curve" smooth="yes"/>
      <point x="43" y="106"/>
      <point x="121" y="-9"/>
      <point x="271" y="-9" type="curve" smooth="yes"/>
      <point x="420" y="-9"/>
      <point x="498" y="106"/>
    </contour>
    <contour>
      <point x="125" y="251" type="curve" smooth="yes"/>
      <point x="125" y="353"/>
      <point x="170" y="445"/>
      <point x="271" y="445" type="curve" smooth="yes"/>
      <point x="386" y="445"/>
      <point x="419" y="353"/>
      <point x="419" y="251" type="curve" smooth="yes"/>
      <point x="419" y="149"/>
      <point x="378" y="60"/>
      <point x="271" y="60" type="curve" smooth="yes"/>
      <point x="175" y="60"/>
      <point x="125" y="150"/>
    </contour>
    <contour>
      <point x="814" y="26" type="curve"/>
      <point x="814" y="100" type="line"/>
      <point x="779" y="76"/>
      <point x="725" y="64"/>
      <point x="680" y="64" type="curve" smooth="yes"/>
      <point x="577" y="64"/>
      <point x="498" y="128"/>
      <point x="498" y="252" type="curve" smooth="yes"/>
      <point x="498" y="386"/>
      <point x="569" y="445"/>
      <point x="646" y="445" type="curve" smooth="yes"/>
      <point x="718" y="445"/>
      <point x="771" y="399"/>
      <point x="772" y="308" type="curve" smooth="yes"/>
      <point x="772" y="286" type="line"/>
      <point x="469" y="286" type="line"/>
      <point x="469" y="220" type="line"/>
      <point x="845" y="220" type="line"/>
      <point x="848" y="236"/>
      <point x="850" y="263"/>
      <point x="850" y="275" type="curve" smooth="yes"/>
      <point x="850" y="428"/>
      <point x="778" y="513"/>
      <point x="647" y="513" type="curve" smooth="yes"/>
      <point x="521" y="513"/>
      <point x="419" y="420"/>
      <point x="419" y="252" type="curve" smooth="yes"/>
      <point x="419" y="94"/>
      <point x="527" y="-5"/>
      <point x="673" y="-5" type="curve" smooth="yes"/>
      <point x="717" y="-5"/>
      <point x="776" y="6"/>
    </contour>
  </outline>
</glyph>
<glyph name="rcommaaccent" format="1">
  <advance width="325"/>
  <unicode hex="0157"/>
  <outline>
    <contour>
      <point x="44" y="-243" type="line"/>
      <point x="156" y="-51" type="line"/>
      <point x="65" y="-51" type="line"/>
      <point x="-20" y="-243" type="line"/>
    </contour>
    <component base="r"/>
  </outline>
</glyph>
<glyph name="tcedilla" format="1">
  <advance width="368"/>
  <unicode hex="0163"/>
  <outline>
    <contour>
      <point x="326" y="13" type="curve"/>
      <point x="326" y="87" type="line"/>
      <point x="309" y="74"/>
      <point x="282" y="65"/>
      <point x="258" y="65" type="curve" smooth="yes"/>
      <point x="206" y="65"/>
      <point x="182" y="93"/>
      <point x="182" y="145" type="curve" smooth="yes"/>
      <point x="182" y="633" type="line"/>
      <point x="103" y="633" type="line"/>
      <point x="103" y="148" type="line"/>
      <point x="103" y="51"/>
      <point x="147" y="-5"/>
      <point x="253" y="-5" type="curve" smooth="yes"/>
      <point x="274" y="-5"/>
      <point x="307" y="2"/>
    </contour>
    <contour>
      <point x="321" y="444" type="line"/>
      <point x="321" y="507" type="line"/>
      <point x="22" y="507" type="line"/>
      <point x="22" y="444" type="line"/>
    </contour>
    <component base="cedilla" xOffset="-34"/>
  </outline>
</glyph>
<glyph name="tcaron" format="1">
  <advance width="368"/>
  <unicode hex="0165"/>
  <outline>
    <contour>
      <point x="326" y="13" type="curve"/>
      <point x="326" y="87" type="line"/>
      <point x="309" y="74"/>
      <point x="282" y="65"/>
      <point x="258" y="65" type="curve" smooth="yes"/>
      <point x="206" y="65"/>
      <point x="182" y="93"/>
      <point x="182" y="145" type="curve" smooth="yes"/>
      <point x="182" y="633" type="line"/>
      <point x="103" y="633" type="line"/>
      <point x="103" y="148" type="line"/>
      <point x="103" y="51"/>
      <point x="147" y="-5"/>
      <point x="253" y="-5" type="curve" smooth="yes"/>
      <point x="274" y="-5"/>
      <point x="307" y="2"/>
    </contour>
    <contour>
      <point x="321" y="444" type="line"/>
      <point x="321" y="507" type="line"/>
      <point x="22" y="507" type="line"/>
      <point x="22" y="444" type="line"/>
    </contour>
    <contour>
      <point x="305" y="567" type="line"/>
      <point x="416" y="759" type="line"/>
      <point x="325" y="759" type="line"/>
      <point x="241" y="567" type="line"/>
    </contour>
  </outline>
</glyph>
<glyph name="florin" format="1">
  <advance width="390"/>
  <unicode hex="0192"/>
  <outline>
    <contour>
      <point x="162" y="-80" type="curve" smooth="yes"/>
      <point x="262" y="497" type="line" smooth="yes"/>
      <point x="275" y="572"/>
      <point x="303" y="611"/>
      <point x="355" y="611" type="curve" smooth="yes"/>
      <point x="377" y="611"/>
      <point x="396" y="607"/>
      <point x="412" y="601" type="curve"/>
      <point x="412" y="672" type="line"/>
      <point x="395" y="678"/>
      <point x="365" y="681"/>
      <point x="346" y="681" type="curve" smooth="yes"/>
      <point x="251" y="681"/>
      <point x="204" y="616"/>
      <point x="185" y="504" type="curve" smooth="yes"/>
      <point x="85" y="-73" type="line" smooth="yes"/>
      <point x="72" y="-148"/>
      <point x="45" y="-187"/>
      <point x="-7" y="-187" type="curve" smooth="yes"/>
      <point x="-30" y="-187"/>
      <point x="-50" y="-183"/>
      <point x="-67" y="-176" type="curve"/>
      <point x="-67" y="-247" type="line"/>
      <point x="-51" y="-253"/>
      <point x="-20" y="-257"/>
      <point x="1" y="-257" type="curve" smooth="yes"/>
      <point x="97" y="-257"/>
      <point x="143" y="-192"/>
    </contour>
    <contour>
      <point x="339" y="308" type="line"/>
      <point x="339" y="371" type="line"/>
      <point x="54" y="371" type="line"/>
      <point x="54" y="308" type="line"/>
    </contour>
  </outline>
</glyph>
<glyph name="Scommaaccent" format="1">
  <advance width="524"/>
  <unicode hex="0218"/>
  <outline>
    <contour>
      <point x="466" y="178" type="curve" smooth="yes"/>
      <point x="466" y="294"/>
      <point x="373" y="336"/>
      <point x="288" y="373" type="curve" smooth="yes"/>
      <point x="215" y="404"/>
      <point x="151" y="433"/>
      <point x="151" y="501" type="curve" smooth="yes"/>
      <point x="151" y="563"/>
      <point x="202" y="605"/>
      <point x="284" y="605" type="curve" smooth="yes"/>
      <point x="336" y="605"/>
      <point x="394" y="587"/>
      <point x="429" y="565" type="curve"/>
      <point x="429" y="649" type="line"/>
      <point x="387" y="671"/>
      <point x="331" y="680"/>
      <point x="282" y="680" type="curve" smooth="yes"/>
      <point x="164" y="680"/>
      <point x="66" y="615"/>
      <point x="66" y="497" type="curve" smooth="yes"/>
      <point x="66" y="374"/>
      <point x="173" y="336"/>
      <point x="262" y="296" type="curve" smooth="yes"/>
      <point x="328" y="267"/>
      <point x="383" y="238"/>
      <point x="383" y="176" type="curve" smooth="yes"/>
      <point x="383" y="105"/>
      <point x="331" y="67"/>
      <point x="247" y="67" type="curve" smooth="yes"/>
      <point x="181" y="67"/>
      <point x="113" y="89"/>
      <point x="69" y="123" type="curve"/>
      <point x="69" y="36" type="line"/>
      <point x="117" y="8"/>
      <point x="185" y="-7"/>
      <point x="249" y="-7" type="curve" smooth="yes"/>
      <point x="372" y="-7"/>
      <point x="466" y="57"/>
    </contour>
    <contour>
      <point x="200" y="-243" type="line"/>
      <point x="311" y="-51" type="line"/>
      <point x="220" y="-51" type="line"/>
      <point x="136" y="-243" type="line"/>
    </contour>
  </outline>
</glyph>
<glyph name="scommaaccent" format="1">
  <advance width="412"/>
  <unicode hex="0219"/>
  <outline>
    <contour>
      <point x="378" y="135" type="curve" smooth="yes"/>
      <point x="378" y="216"/>
      <point x="312" y="253"/>
      <point x="242" y="283" type="curve" smooth="yes"/>
      <point x="187" y="307"/>
      <point x="136" y="326"/>
      <point x="136" y="377" type="curve" smooth="yes"/>
      <point x="136" y="416"/>
      <point x="168" y="444"/>
      <point x="222" y="444" type="curve" smooth="yes"/>
      <point x="272" y="444"/>
      <point x="320" y="432"/>
      <point x="349" y="416" type="curve"/>
      <point x="349" y="490" type="line"/>
      <point x="325" y="501"/>
      <point x="279" y="512"/>
      <point x="222" y="512" type="curve" smooth="yes"/>
      <point x="130" y="512"/>
      <point x="56" y="461"/>
      <point x="56" y="374" type="curve" smooth="yes"/>
      <point x="56" y="291"/>
      <point x="121" y="255"/>
      <point x="183" y="230" type="curve" smooth="yes"/>
      <point x="252" y="202"/>
      <point x="298" y="181"/>
      <point x="298" y="129" type="curve" smooth="yes"/>
      <point x="298" y="90"/>
      <point x="267" y="61"/>
      <point x="203" y="61" type="curve" smooth="yes"/>
      <point x="154" y="61"/>
      <point x="101" y="76"/>
      <point x="59" y="101" type="curve"/>
      <point x="59" y="25" type="line"/>
      <point x="90" y="8"/>
      <point x="147" y="-6"/>
      <point x="208" y="-6" type="curve" smooth="yes"/>
      <point x="313" y="-6"/>
      <point x="378" y="48"/>
    </contour>
    <contour>
      <point x="151" y="-243" type="line"/>
      <point x="263" y="-51" type="line"/>
      <point x="172" y="-51" type="line"/>
      <point x="87" y="-243" type="line"/>
    </contour>
  </outline>
</glyph>
<glyph name="Tcommaaccent" format="1">
  <advance width="481"/>
  <unicode hex="021A"/>
  <outline>
    <contour>
      <point x="280" y="0" type="line"/>
      <point x="280" y="670" type="line"/>
      <point x="200" y="670" type="line"/>
      <point x="200" y="0" type="line"/>
    </contour>
    <contour>
      <point x="172" y="-243" type="line"/>
      <point x="283" y="-51" type="line"/>
      <point x="192" y="-51" type="line"/>
      <point x="107" y="-243" type="line"/>
    </contour>
    <contour>
      <point x="463" y="604" type="line"/>
      <point x="463" y="674" type="line"/>
      <point x="18" y="674" type="line"/>
      <point x="18" y="604" type="line"/>
    </contour>
  </outline>
</glyph>
<glyph name="circumflex" format="1">
  <advance width="420"/>
  <unicode hex="02C6"/>
  <outline>
    <contour>
      <point x="125" y="643" type="line"/>
      <point x="209" y="747" type="line"/>
      <point x="295" y="643" type="line"/>
      <point x="374" y="643" type="line"/>
      <point x="247" y="798" type="line"/>
      <point x="172" y="798" type="line"/>
      <point x="46" y="643" type="line"/>
    </contour>
  </outline>
</glyph>
<glyph name="caron" format="1">
  <advance width="420"/>
  <unicode hex="02C7"/>
  <outline>
    <contour>
      <point x="247" y="643" type="line"/>
      <point x="374" y="798" type="line"/>
      <point x="295" y="798" type="line"/>
      <point x="210" y="693" type="line"/>
      <point x="125" y="798" type="line"/>
      <point x="46" y="798" type="line"/>
      <point x="172" y="643" type="line"/>
    </contour>
  </outline>
</glyph>
<glyph name="breve" format="1">
  <advance width="420"/>
  <unicode hex="02D8"/>
  <outline>
    <contour>
      <point x="374" y="798" type="curve"/>
      <point x="310" y="798" type="line"/>
      <point x="310" y="742"/>
      <point x="283" y="696"/>
      <point x="210" y="696" type="curve" smooth="yes"/>
      <point x="137" y="696"/>
      <point x="110" y="742"/>
      <point x="110" y="798" type="curve"/>
      <point x="46" y="798" type="line"/>
      <point x="46" y="705"/>
      <point x="96" y="639"/>
      <point x="210" y="639" type="curve"/>
      <point x="324" y="639"/>
      <point x="374" y="705"/>
    </contour>
  </outline>
</glyph>
<glyph name="dotaccent" format="1">
  <advance width="420"/>
  <unicode hex="02D9"/>
  <outline>
    <contour>
      <point x="261" y="724" type="curve" smooth="yes"/>
      <point x="261" y="753"/>
      <point x="239" y="774"/>
      <point x="210" y="774" type="curve" smooth="yes"/>
      <point x="181" y="774"/>
      <point x="159" y="753"/>
      <point x="159" y="724" type="curve" smooth="yes"/>
      <point x="159" y="695"/>
      <point x="181" y="673"/>
      <point x="210" y="673" type="curve" smooth="yes"/>
      <point x="239" y="673"/>
      <point x="261" y="695"/>
    </contour>
  </outline>
</glyph>
<glyph name="ring" format="1">
  <advance width="420"/>
  <unicode hex="02DA"/>
  <outline>
    <contour>
      <point x="316" y="720" type="curve" smooth="yes"/>
      <point x="316" y="779"/>
      <point x="268" y="827"/>
      <point x="209" y="827" type="curve" smooth="yes"/>
      <point x="151" y="827"/>
      <point x="104" y="779"/>
      <point x="104" y="720" type="curve" smooth="yes"/>
      <point x="104" y="662"/>
      <point x="151" y="615"/>
      <point x="209" y="615" type="curve" smooth="yes"/>
      <point x="268" y="615"/>
      <point x="316" y="662"/>
    </contour>
    <contour>
      <point x="156" y="721" type="curve" smooth="yes"/>
      <point x="156" y="751"/>
      <point x="180" y="775"/>
      <point x="209" y="775" type="curve" smooth="yes"/>
      <point x="240" y="775"/>
      <point x="263" y="751"/>
      <point x="263" y="721" type="curve" smooth="yes"/>
      <point x="263" y="692"/>
      <point x="240" y="667"/>
      <point x="209" y="667" type="curve" smooth="yes"/>
      <point x="180" y="667"/>
      <point x="156" y="692"/>
    </contour>
  </outline>
</glyph>
<glyph name="ogonek" format="1">
  <advance width="420"/>
  <unicode hex="02DB"/>
  <outline>
    <contour>
      <point x="311" y="-211" type="curve"/>
      <point x="311" y="-151" type="line"/>
      <point x="294" y="-163"/>
      <point x="267" y="-173"/>
      <point x="242" y="-173" type="curve" smooth="yes"/>
      <point x="203" y="-173"/>
      <point x="177" y="-153"/>
      <point x="177" y="-114" type="curve" smooth="yes"/>
      <point x="177" y="-62"/>
      <point x="229" y="-19"/>
      <point x="290" y="11" type="curve"/>
      <point x="259" y="48" type="line"/>
      <point x="190" y="24"/>
      <point x="109" y="-39"/>
      <point x="109" y="-121" type="curve" smooth="yes"/>
      <point x="109" y="-182"/>
      <point x="151" y="-231"/>
      <point x="232" y="-231" type="curve" smooth="yes"/>
      <point x="260" y="-231"/>
      <point x="289" y="-225"/>
    </contour>
  </outline>
</glyph>
<glyph name="hungarumlaut" format="1">
  <advance width="420"/>
  <unicode hex="02DD"/>
  <outline>
    <contour>
      <point x="251" y="643" type="line"/>
      <point x="385" y="798" type="line"/>
      <point x="292" y="798" type="line"/>
      <point x="190" y="643" type="line"/>
    </contour>
    <contour>
      <point x="95" y="643" type="line"/>
      <point x="222" y="798" type="line"/>
      <point x="131" y="798" type="line"/>
      <point x="35" y="643" type="line"/>
    </contour>
  </outline>
</glyph>
<glyph name="danda" format="1">
  <advance width="247"/>
  <unicode hex="0964"/>
  <outline>
    <contour>
      <point x="104" y="-9" type="line"/>
      <point x="143" y="-9" type="line"/>
      <point x="143" y="462" type="line"/>
      <point x="104" y="462" type="line"/>
    </contour>
  </outline>
</glyph>
<glyph name="grAdakbindi" format="1">
  <unicode hex="0A01"/>
  <outline>
    <contour>
      <point x="32" y="563" type="curve"/>
      <point x="15" y="573" type="line"/>
      <point x="-15" y="533"/>
      <point x="-45" y="516"/>
      <point x="-95" y="515" type="curve"/>
      <point x="-124" y="529"/>
      <point x="-142" y="544"/>
      <point x="-162" y="573" type="curve"/>
      <point x="-180" y="563" type="line"/>
      <point x="-162" y="515"/>
      <point x="-121" y="485"/>
      <point x="-73" y="485" type="curve" smooth="yes"/>
      <point x="-25" y="485"/>
      <point x="16" y="515"/>
    </contour>
    <contour>
      <point x="-47" y="604" type="curve" smooth="yes"/>
      <point x="-47" y="619"/>
      <point x="-60" y="632"/>
      <point x="-75" y="632" type="curve" smooth="yes"/>
      <point x="-89" y="632"/>
      <point x="-103" y="619"/>
      <point x="-103" y="604" type="curve" smooth="yes"/>
      <point x="-103" y="588"/>
      <point x="-90" y="576"/>
      <point x="-75" y="576" type="curve" smooth="yes"/>
      <point x="-60" y="576"/>
      <point x="-47" y="588"/>
    </contour>
    <contour>
      <point x="-73" y="441" type="move" name="_top"/>
    </contour>
  </outline>
</glyph>
<glyph name="grBindi" format="1">
  <unicode hex="0A02"/>
  <outline>
    <contour>
      <point x="-45" y="520" type="curve" smooth="yes"/>
      <point x="-45" y="536"/>
      <point x="-59" y="548"/>
      <point x="-73" y="548" type="curve" smooth="yes"/>
      <point x="-87" y="548"/>
      <point x="-101" y="536"/>
      <point x="-101" y="520" type="curve" smooth="yes"/>
      <point x="-101" y="505"/>
      <point x="-88" y="492"/>
      <point x="-73" y="492" type="curve" smooth="yes"/>
      <point x="-59" y="492"/>
      <point x="-45" y="505"/>
    </contour>
    <contour>
      <point x="-73" y="441" type="move" name="_top"/>
    </contour>
  </outline>
</glyph>
<glyph name="grVisarga" format="1">
  <advance width="315"/>
  <unicode hex="0A03"/>
  <outline>
    <contour>
      <point x="233" y="344" type="curve" smooth="yes"/>
      <point x="233" y="390"/>
      <point x="204" y="429"/>
      <point x="153" y="429" type="curve" smooth="yes"/>
      <point x="108" y="429"/>
      <point x="82" y="401"/>
      <point x="82" y="347" type="curve" smooth="yes"/>
      <point x="82" y="301"/>
      <point x="110" y="262"/>
      <point x="163" y="262" type="curve" smooth="yes"/>
      <point x="210" y="262"/>
      <point x="233" y="293"/>
    </contour>
    <contour>
      <point x="233" y="130" type="curve" smooth="yes"/>
      <point x="233" y="176"/>
      <point x="204" y="215"/>
      <point x="153" y="215" type="curve" smooth="yes"/>
      <point x="108" y="215"/>
      <point x="82" y="186"/>
      <point x="82" y="133" type="curve" smooth="yes"/>
      <point x="82" y="87"/>
      <point x="110" y="48"/>
      <point x="163" y="48" type="curve" smooth="yes"/>
      <point x="210" y="48"/>
      <point x="233" y="78"/>
    </contour>
    <contour>
      <point x="125" y="79" type="curve"/>
      <point x="118" y="91"/>
      <point x="113" y="112"/>
      <point x="113" y="132" type="curve" smooth="yes"/>
      <point x="113" y="171"/>
      <point x="127" y="190"/>
      <point x="156" y="190" type="curve" smooth="yes"/>
      <point x="170" y="190"/>
      <point x="181" y="188"/>
      <point x="190" y="183" type="curve"/>
      <point x="197" y="172"/>
      <point x="202" y="151"/>
      <point x="202" y="130" type="curve" smooth="yes"/>
      <point x="202" y="91"/>
      <point x="188" y="73"/>
      <point x="159" y="73" type="curve" smooth="yes"/>
      <point x="146" y="73"/>
      <point x="134" y="75"/>
    </contour>
    <contour>
      <point x="125" y="293" type="curve"/>
      <point x="118" y="305"/>
      <point x="113" y="326"/>
      <point x="113" y="347" type="curve" smooth="yes"/>
      <point x="113" y="386"/>
      <point x="127" y="405"/>
      <point x="156" y="405" type="curve" smooth="yes"/>
      <point x="170" y="405"/>
      <point x="181" y="402"/>
      <point x="190" y="398" type="curve"/>
      <point x="197" y="386"/>
      <point x="202" y="366"/>
      <point x="202" y="345" type="curve" smooth="yes"/>
      <point x="202" y="305"/>
      <point x="188" y="287"/>
      <point x="159" y="287" type="curve" smooth="yes"/>
      <point x="146" y="287"/>
      <point x="134" y="289"/>
    </contour>
  </outline>
</glyph>
<glyph name="grA" format="1">
  <advance width="488"/>
  <unicode hex="0A05"/>
  <outline>
    <contour>
      <point x="299" y="262" type="curve" smooth="yes"/>
      <point x="299" y="310"/>
      <point x="287" y="360"/>
      <point x="270" y="367" type="curve" smooth="yes"/>
      <point x="253" y="372"/>
      <point x="185" y="354"/>
      <point x="125" y="292" type="curve"/>
      <point x="130" y="272" type="line"/>
      <point x="171" y="304"/>
      <point x="208" y="323"/>
      <point x="253" y="331" type="curve"/>
      <point x="263" y="301"/>
      <point x="268" y="263"/>
      <point x="268" y="224" type="curve"/>
      <point x="223" y="156"/>
      <point x="198" y="103"/>
      <point x="196" y="84" type="curve" smooth="yes"/>
      <point x="196" y="71"/>
      <point x="215" y="62"/>
      <point x="230" y="62" type="curve"/>
      <point x="265" y="115"/>
      <point x="299" y="194"/>
    </contour>
    <contour>
      <point x="142" y="311" type="curve" smooth="yes"/>
      <point x="143" y="376"/>
      <point x="104" y="441"/>
      <point x="41" y="441" type="curve" smooth="yes"/>
      <point x="-29" y="441" type="line"/>
      <point x="-29" y="409" type="line"/>
      <point x="72" y="409" type="line"/>
      <point x="95" y="378"/>
      <point x="105" y="338"/>
      <point x="105" y="283" type="curve"/>
      <point x="61" y="226"/>
      <point x="45" y="195"/>
      <point x="44" y="179" type="curve" smooth="yes"/>
      <point x="43" y="168"/>
      <point x="57" y="156"/>
      <point x="74" y="153" type="curve"/>
      <point x="113" y="196"/>
      <point x="142" y="255"/>
    </contour>
    <contour>
      <point x="410" y="292" type="curve"/>
      <point x="410" y="339" type="line"/>
      <point x="367" y="313"/>
      <point x="327" y="284"/>
      <point x="288" y="235" type="curve"/>
      <point x="290" y="214" type="line"/>
      <point x="337" y="257"/>
      <point x="369" y="277"/>
    </contour>
    <contour>
      <point x="433" y="0" type="line"/>
      <point x="433" y="409" type="line"/>
      <point x="517" y="409" type="line"/>
      <point x="517" y="441" type="line"/>
      <point x="393" y="441" type="line"/>
      <point x="393" y="0" type="line"/>
    </contour>
    <contour>
      <point x="414" y="441" type="move" name="top"/>
    </contour>
  </outline>
</glyph>
<glyph name="grKA" format="1">
  <advance width="465"/>
  <unicode hex="0A15"/>
  <outline>
    <contour>
      <point x="432" y="1" type="line"/>
      <point x="370" y="196"/>
      <point x="303" y="299"/>
      <point x="176" y="299" type="curve" smooth="yes"/>
      <point x="95" y="299"/>
      <point x="38" y="252"/>
      <point x="38" y="173" type="curve" smooth="yes"/>
      <point x="38" y="97"/>
      <point x="101" y="46"/>
      <point x="181" y="46" type="curve" smooth="yes"/>
      <point x="275" y="46"/>
      <point x="368" y="122"/>
      <point x="368" y="306" type="curve" smooth="yes"/>
      <point x="368" y="343"/>
      <point x="364" y="378"/>
      <point x="359" y="418" type="curve"/>
      <point x="317" y="418" type="line"/>
      <point x="324" y="377"/>
      <point x="327" y="340"/>
      <point x="327" y="305" type="curve" smooth="yes"/>
      <point x="327" y="143"/>
      <point x="251" y="76"/>
      <point x="172" y="76" type="curve" smooth="yes"/>
      <point x="136" y="76"/>
      <point x="101" y="90"/>
      <point x="78" y="118" type="curve"/>
      <point x="77" y="128"/>
      <point x="75" y="138"/>
      <point x="75" y="151" type="curve" smooth="yes"/>
      <point x="75" y="226"/>
      <point x="117" y="267"/>
      <point x="183" y="267" type="curve" smooth="yes"/>
      <point x="233" y="267"/>
      <point x="274" y="243"/>
      <point x="314" y="191" type="curve"/>
      <point x="414" y="-6" type="line"/>
    </contour>
    <contour>
      <point x="494" y="409" type="line"/>
      <point x="494" y="441" type="line"/>
      <point x="-29" y="441" type="line"/>
      <point x="-29" y="409" type="line"/>
    </contour>
    <contour>
      <point x="338" y="441" type="move" name="top"/>
    </contour>
    <contour>
      <point x="226" y="0" type="move" name="bottom"/>
    </contour>
  </outline>
</glyph>
<glyph name="grKHA" format="1">
  <advance width="397"/>
  <unicode hex="0A16"/>
  <outline>
    <contour>
      <point x="316" y="262" type="line"/>
      <point x="316" y="293" type="line"/>
      <point x="111" y="293" type="line"/>
      <point x="111" y="262" type="line"/>
    </contour>
    <component base="grPA"/>
  </outline>
</glyph>
<glyph name="grGA" format="1">
  <advance width="498"/>
  <unicode hex="0A17"/>
  <outline>
    <contour>
      <point x="284" y="106" type="curve" smooth="yes"/>
      <point x="284" y="409" type="line"/>
      <point x="403" y="409" type="line"/>
      <point x="403" y="0" type="line"/>
      <point x="443" y="0" type="line"/>
      <point x="443" y="409" type="line"/>
      <point x="527" y="409" type="line"/>
      <point x="527" y="441" type="line"/>
      <point x="-29" y="441" type="line"/>
      <point x="-29" y="409" type="line"/>
      <point x="244" y="409" type="line"/>
      <point x="244" y="269" type="line"/>
      <point x="140" y="269" type="line" smooth="yes"/>
      <point x="69" y="269"/>
      <point x="31" y="241"/>
      <point x="31" y="177" type="curve" smooth="yes"/>
      <point x="31" y="81"/>
      <point x="119" y="-4"/>
      <point x="200" y="-4" type="curve" smooth="yes"/>
      <point x="249" y="-4"/>
      <point x="284" y="30"/>
    </contour>
    <contour>
      <point x="71" y="113" type="curve"/>
      <point x="70" y="132"/>
      <point x="70" y="147"/>
      <point x="70" y="162" type="curve" smooth="yes"/>
      <point x="70" y="207"/>
      <point x="82" y="238"/>
      <point x="160" y="238" type="curve" smooth="yes"/>
      <point x="244" y="238" type="line"/>
      <point x="244" y="104" type="line" smooth="yes"/>
      <point x="244" y="55"/>
      <point x="226" y="27"/>
      <point x="191" y="27" type="curve" smooth="yes"/>
      <point x="137" y="27"/>
      <point x="95" y="75"/>
    </contour>
  </outline>
</glyph>
<glyph name="grGHA" format="1">
  <advance width="513"/>
  <unicode hex="0A18"/>
  <outline>
    <contour>
      <point x="458" y="0" type="line"/>
      <point x="458" y="409" type="line"/>
      <point x="542" y="409" type="line"/>
      <point x="542" y="441" type="line"/>
      <point x="419" y="441" type="line"/>
      <point x="419" y="173" type="line"/>
      <point x="385" y="145"/>
      <point x="361" y="131"/>
      <point x="328" y="131" type="curve" smooth="yes"/>
      <point x="300" y="131"/>
      <point x="281" y="144"/>
      <point x="267" y="198" type="curve"/>
      <point x="255" y="178" type="line"/>
      <point x="270" y="117"/>
      <point x="300" y="95"/>
      <point x="338" y="95" type="curve" smooth="yes"/>
      <point x="363" y="95"/>
      <point x="393" y="109"/>
      <point x="418" y="128" type="curve"/>
      <point x="421" y="127" type="line"/>
      <point x="419" y="65" type="line"/>
      <point x="419" y="0" type="line"/>
    </contour>
    <contour>
      <point x="292" y="314" type="curve" smooth="yes"/>
      <point x="292" y="351"/>
      <point x="289" y="388"/>
      <point x="284" y="423" type="curve"/>
      <point x="274" y="428"/>
      <point x="263" y="428"/>
      <point x="253" y="423" type="curve"/>
      <point x="249" y="385"/>
      <point x="247" y="346"/>
      <point x="247" y="313" type="curve" smooth="yes"/>
      <point x="247" y="283"/>
      <point x="247" y="238"/>
      <point x="250" y="203" type="curve"/>
      <point x="225" y="151"/>
      <point x="192" y="127"/>
      <point x="143" y="127" type="curve" smooth="yes"/>
      <point x="113" y="127"/>
      <point x="81" y="143"/>
      <point x="72" y="169" type="curve"/>
      <point x="116" y="230"/>
      <point x="131" y="272"/>
      <point x="131" y="323" type="curve" smooth="yes"/>
      <point x="131" y="383"/>
      <point x="93" y="441"/>
      <point x="20" y="441" type="curve" smooth="yes"/>
      <point x="-29" y="441" type="line"/>
      <point x="-29" y="409" type="line" smooth="yes"/>
      <point x="23" y="409" type="line" smooth="yes"/>
      <point x="44" y="409"/>
      <point x="61" y="407"/>
      <point x="78" y="400" type="curve"/>
      <point x="89" y="377"/>
      <point x="94" y="353"/>
      <point x="94" y="325" type="curve" smooth="yes"/>
      <point x="94" y="284"/>
      <point x="80" y="248"/>
      <point x="43" y="198" type="curve" smooth="yes"/>
      <point x="34" y="185"/>
      <point x="33" y="180"/>
      <point x="33" y="174" type="curve" smooth="yes"/>
      <point x="33" y="139"/>
      <point x="86" y="95"/>
      <point x="147" y="95" type="curve" smooth="yes"/>
      <point x="222" y="95"/>
      <point x="292" y="153"/>
    </contour>
  </outline>
</glyph>
<glyph name="grNGA" format="1">
  <advance width="425"/>
  <unicode hex="0A19"/>
  <outline>
    <contour>
      <point x="379" y="180" type="curve" smooth="yes"/>
      <point x="379" y="238"/>
      <point x="342" y="276"/>
      <point x="286" y="276" type="curve" smooth="yes"/>
      <point x="135" y="276" type="line"/>
      <point x="135" y="416" type="line"/>
      <point x="95" y="416" type="line"/>
      <point x="95" y="246" type="line"/>
      <point x="313" y="246" type="line"/>
      <point x="330" y="232"/>
      <point x="339" y="207"/>
      <point x="339" y="180" type="curve" smooth="yes"/>
      <point x="339" y="102"/>
      <point x="268" y="27"/>
      <point x="168" y="27" type="curve" smooth="yes"/>
      <point x="140" y="27"/>
      <point x="117" y="32"/>
      <point x="93" y="43" type="curve"/>
      <point x="87" y="57"/>
      <point x="86" y="68"/>
      <point x="86" y="83" type="curve" smooth="yes"/>
      <point x="86" y="119"/>
      <point x="111" y="144"/>
      <point x="153" y="144" type="curve" smooth="yes"/>
      <point x="171" y="144"/>
      <point x="186" y="140"/>
      <point x="206" y="132" type="curve"/>
      <point x="376" y="-7" type="line"/>
      <point x="382" y="-6"/>
      <point x="387" y="-1"/>
      <point x="391" y="7" type="curve"/>
      <point x="245" y="133" type="line" smooth="yes"/>
      <point x="209" y="163"/>
      <point x="174" y="174"/>
      <point x="139" y="174" type="curve" smooth="yes"/>
      <point x="85" y="174"/>
      <point x="45" y="141"/>
      <point x="45" y="89" type="curve" smooth="yes"/>
      <point x="45" y="38"/>
      <point x="85" y="-4"/>
      <point x="174" y="-4" type="curve" smooth="yes"/>
      <point x="283" y="-4"/>
      <point x="379" y="83"/>
    </contour>
    <contour>
      <point x="454" y="409" type="line"/>
      <point x="454" y="441" type="line"/>
      <point x="-29" y="441" type="line"/>
      <point x="-29" y="409" type="line"/>
    </contour>
    <contour>
      <point x="315" y="441" type="move" name="top"/>
    </contour>
    <contour>
      <point x="224" y="0" type="move" name="bottom"/>
    </contour>
  </outline>
</glyph>
<glyph name="grCA" format="1">
  <advance width="406"/>
  <unicode hex="0A1A"/>
  <outline>
    <contour>
      <point x="351" y="103" type="curve" smooth="yes"/>
      <point x="351" y="409" type="line"/>
      <point x="435" y="409" type="line"/>
      <point x="435" y="441" type="line"/>
      <point x="-29" y="441" type="line"/>
      <point x="-29" y="409" type="line"/>
      <point x="311" y="409" type="line"/>
      <point x="311" y="269" type="line"/>
      <point x="99" y="269" type="line"/>
      <point x="36" y="320" type="line"/>
      <point x="24" y="318"/>
      <point x="17" y="311"/>
      <point x="13" y="300" type="curve"/>
      <point x="14" y="281"/>
      <point x="33" y="254"/>
      <point x="74" y="235" type="curve"/>
      <point x="82" y="71"/>
      <point x="167" y="-4"/>
      <point x="258" y="-4" type="curve" smooth="yes"/>
      <point x="316" y="-4"/>
      <point x="351" y="32"/>
    </contour>
    <contour>
      <point x="108" y="197" type="curve" smooth="yes"/>
      <point x="104" y="237" type="line"/>
      <point x="311" y="237" type="line"/>
      <point x="311" y="102" type="line" smooth="yes"/>
      <point x="311" y="51"/>
      <point x="292" y="28"/>
      <point x="254" y="27" type="curve" smooth="yes"/>
      <point x="183" y="28"/>
      <point x="120" y="95"/>
    </contour>
    <contour>
      <point x="331" y="441" type="move" name="top"/>
    </contour>
    <contour>
      <point x="238" y="0" type="move" name="bottom"/>
    </contour>
  </outline>
</glyph>
<glyph name="grCHA" format="1">
  <advance width="436"/>
  <unicode hex="0A1B"/>
  <outline>
    <contour>
      <point x="402" y="97" type="curve" smooth="yes"/>
      <point x="402" y="156"/>
      <point x="364" y="196"/>
      <point x="233" y="196" type="curve" smooth="yes"/>
      <point x="140" y="196" type="line"/>
      <point x="126" y="208"/>
      <point x="119" y="223"/>
      <point x="119" y="244" type="curve" smooth="yes"/>
      <point x="119" y="273"/>
      <point x="138" y="293"/>
      <point x="179" y="293" type="curve" smooth="yes"/>
      <point x="352" y="293" type="line"/>
      <point x="352" y="424" type="line"/>
      <point x="312" y="424" type="line"/>
      <point x="312" y="322" type="line"/>
      <point x="169" y="322" type="line" smooth="yes"/>
      <point x="110" y="322"/>
      <point x="79" y="291"/>
      <point x="79" y="245" type="curve" smooth="yes"/>
      <point x="79" y="199"/>
      <point x="112" y="166"/>
      <point x="171" y="166" type="curve" smooth="yes"/>
      <point x="232" y="166" type="line" smooth="yes"/>
      <point x="289" y="166"/>
      <point x="321" y="160"/>
      <point x="348" y="150" type="curve"/>
      <point x="358" y="134"/>
      <point x="362" y="119"/>
      <point x="362" y="97" type="curve" smooth="yes"/>
      <point x="362" y="59"/>
      <point x="333" y="26"/>
      <point x="222" y="26" type="curve" smooth="yes"/>
      <point x="157" y="26"/>
      <point x="122" y="32"/>
      <point x="93" y="43" type="curve"/>
      <point x="82" y="58"/>
      <point x="79" y="74"/>
      <point x="79" y="96" type="curve" smooth="yes"/>
      <point x="79" y="134"/>
      <point x="99" y="162"/>
      <point x="141" y="177" type="curve"/>
      <point x="119" y="188" type="line"/>
      <point x="77" y="179"/>
      <point x="39" y="150"/>
      <point x="39" y="95" type="curve" smooth="yes"/>
      <point x="39" y="34"/>
      <point x="85" y="-4"/>
      <point x="222" y="-4" type="curve" smooth="yes"/>
      <point x="365" y="-4"/>
      <point x="402" y="48"/>
    </contour>
    <contour>
      <point x="236" y="15" type="line"/>
      <point x="236" y="177" type="line"/>
      <point x="203" y="177" type="line"/>
      <point x="203" y="15" type="line"/>
    </contour>
    <contour>
      <point x="465" y="409" type="line"/>
      <point x="465" y="441" type="line"/>
      <point x="-29" y="441" type="line"/>
      <point x="-29" y="409" type="line"/>
    </contour>
    <contour>
      <point x="332" y="441" type="move" name="top"/>
    </contour>
    <contour>
      <point x="221" y="0" type="move" name="bottom"/>
    </contour>
  </outline>
</glyph>
<glyph name="grJA" format="1">
  <advance width="393"/>
  <unicode hex="0A1C"/>
  <outline>
    <contour>
      <point x="121" y="0" type="line"/>
      <point x="121" y="237" type="line"/>
      <point x="300" y="237" type="line"/>
      <point x="300" y="0" type="line"/>
      <point x="338" y="0" type="line"/>
      <point x="338" y="409" type="line"/>
      <point x="422" y="409" type="line"/>
      <point x="422" y="441" type="line"/>
      <point x="-29" y="441" type="line"/>
      <point x="-29" y="409" type="line"/>
      <point x="300" y="409" type="line"/>
      <point x="300" y="269" type="line"/>
      <point x="116" y="269" type="line"/>
      <point x="53" y="320" type="line"/>
      <point x="41" y="318"/>
      <point x="33" y="311"/>
      <point x="30" y="300" type="curve"/>
      <point x="31" y="282"/>
      <point x="48" y="259"/>
      <point x="82" y="240" type="curve"/>
      <point x="82" y="0" type="line"/>
    </contour>
  </outline>
</glyph>
<glyph name="grJHA" format="1">
  <advance width="392"/>
  <unicode hex="0A1D"/>
  <outline>
    <contour>
      <point x="353" y="156" type="curve" smooth="yes"/>
      <point x="353" y="220"/>
      <point x="305" y="257"/>
      <point x="233" y="269" type="curve"/>
      <point x="190" y="256" type="line"/>
      <point x="164" y="271" type="line"/>
      <point x="124" y="269"/>
      <point x="90" y="258"/>
      <point x="49" y="239" type="curve"/>
      <point x="58" y="218" type="line"/>
      <point x="101" y="233"/>
      <point x="139" y="241"/>
      <point x="182" y="241" type="curve" smooth="yes"/>
      <point x="233" y="241"/>
      <point x="267" y="230"/>
      <point x="299" y="215" type="curve"/>
      <point x="309" y="197"/>
      <point x="314" y="179"/>
      <point x="313" y="160" type="curve" smooth="yes"/>
      <point x="313" y="100"/>
      <point x="266" y="75"/>
      <point x="183" y="66" type="curve"/>
      <point x="82" y="125" type="line"/>
      <point x="67" y="125"/>
      <point x="53" y="117"/>
      <point x="53" y="103" type="curve" smooth="yes"/>
      <point x="53" y="98"/>
      <point x="55" y="92"/>
      <point x="60" y="88" type="curve"/>
      <point x="87" y="69"/>
      <point x="145" y="47"/>
      <point x="192" y="47" type="curve" smooth="yes"/>
      <point x="273" y="47"/>
      <point x="353" y="80"/>
    </contour>
    <contour>
      <point x="287" y="8" type="curve"/>
      <point x="200" y="55" type="line"/>
      <point x="149" y="56" type="line"/>
      <point x="270" y="-4" type="line"/>
      <point x="278" y="-3"/>
      <point x="285" y="2"/>
    </contour>
    <contour>
      <point x="369" y="426" type="curve"/>
      <point x="328" y="426" type="line"/>
      <point x="307" y="334"/>
      <point x="250" y="285"/>
      <point x="189" y="265" type="curve"/>
      <point x="134" y="288"/>
      <point x="81" y="342"/>
      <point x="63" y="426" type="curve"/>
      <point x="30" y="426" type="line"/>
      <point x="54" y="312"/>
      <point x="145" y="246"/>
      <point x="196" y="246" type="curve" smooth="yes"/>
      <point x="258" y="246"/>
      <point x="345" y="305"/>
    </contour>
    <contour>
      <point x="421" y="409" type="line"/>
      <point x="421" y="441" type="line"/>
      <point x="-29" y="441" type="line"/>
      <point x="-29" y="409" type="line"/>
    </contour>
    <contour>
      <point x="349" y="441" type="move" name="top"/>
    </contour>
    <contour>
      <point x="197" y="0" type="move" name="bottom"/>
    </contour>
  </outline>
</glyph>
<glyph name="grNYA" format="1">
  <advance width="403"/>
  <unicode hex="0A1E"/>
  <outline>
    <contour>
      <point x="379" y="15" type="curve"/>
      <point x="367" y="47" type="line"/>
      <point x="334" y="36"/>
      <point x="310" y="32"/>
      <point x="285" y="32" type="curve" smooth="yes"/>
      <point x="231" y="32"/>
      <point x="206" y="53"/>
      <point x="206" y="89" type="curve" smooth="yes"/>
      <point x="206" y="97"/>
      <point x="208" y="106"/>
      <point x="209" y="116" type="curve"/>
      <point x="254" y="117"/>
      <point x="307" y="127"/>
      <point x="345" y="143" type="curve"/>
      <point x="348" y="163"/>
      <point x="338" y="178"/>
      <point x="322" y="182" type="curve"/>
      <point x="199" y="137" type="line"/>
      <point x="130" y="141"/>
      <point x="95" y="172"/>
      <point x="95" y="215" type="curve" smooth="yes"/>
      <point x="95" y="250"/>
      <point x="118" y="266"/>
      <point x="159" y="266" type="curve" smooth="yes"/>
      <point x="330" y="266" type="line"/>
      <point x="330" y="409" type="line"/>
      <point x="432" y="409" type="line"/>
      <point x="432" y="441" type="line"/>
      <point x="-29" y="441" type="line"/>
      <point x="-29" y="409" type="line"/>
      <point x="48" y="409" type="line"/>
      <point x="55" y="351"/>
      <point x="84" y="309"/>
      <point x="137" y="290" type="curve"/>
      <point x="137" y="287" type="line"/>
      <point x="87" y="283"/>
      <point x="56" y="257"/>
      <point x="56" y="214" type="curve" smooth="yes"/>
      <point x="56" y="158"/>
      <point x="105" y="122"/>
      <point x="188" y="117" type="curve"/>
      <point x="183" y="101"/>
      <point x="180" y="86"/>
      <point x="180" y="73" type="curve" smooth="yes"/>
      <point x="180" y="26"/>
      <point x="214" y="-4"/>
      <point x="288" y="-4" type="curve" smooth="yes"/>
      <point x="322" y="-4"/>
      <point x="350" y="3"/>
    </contour>
    <contour>
      <point x="90" y="409" type="curve"/>
      <point x="292" y="409" type="line"/>
      <point x="292" y="291" type="line"/>
      <point x="198" y="291" type="line" smooth="yes"/>
      <point x="146" y="293"/>
      <point x="96" y="334"/>
    </contour>
    <contour>
      <point x="311" y="441" type="move" name="top"/>
    </contour>
    <contour>
      <point x="211" y="0" type="move" name="bottom"/>
    </contour>
  </outline>
</glyph>
<glyph name="grTTA" format="1">
  <advance width="389"/>
  <unicode hex="0A1F"/>
  <outline>
    <contour>
      <point x="363" y="67" type="curve"/>
      <point x="327" y="85" type="line"/>
      <point x="301" y="60"/>
      <point x="274" y="40"/>
      <point x="242" y="27" type="curve"/>
      <point x="160" y="30"/>
      <point x="67" y="102"/>
      <point x="67" y="182" type="curve" smooth="yes"/>
      <point x="67" y="231"/>
      <point x="94" y="254"/>
      <point x="157" y="254" type="curve" smooth="yes"/>
      <point x="320" y="254" type="line"/>
      <point x="320" y="409" type="line"/>
      <point x="418" y="409" type="line"/>
      <point x="418" y="441" type="line"/>
      <point x="-29" y="441" type="line"/>
      <point x="-29" y="409" type="line"/>
      <point x="281" y="409" type="line"/>
      <point x="281" y="286" type="line"/>
      <point x="143" y="286" type="line" smooth="yes"/>
      <point x="70" y="286"/>
      <point x="27" y="249"/>
      <point x="27" y="189" type="curve" smooth="yes"/>
      <point x="27" y="86"/>
      <point x="154" y="-4"/>
      <point x="248" y="-4" type="curve" smooth="yes"/>
      <point x="279" y="-4"/>
      <point x="331" y="28"/>
    </contour>
    <contour>
      <point x="300" y="441" type="move" name="top"/>
    </contour>
    <contour>
      <point x="219" y="0" type="move" name="bottom"/>
    </contour>
  </outline>
</glyph>
<glyph name="grTTHA" format="1">
  <advance width="472"/>
  <unicode hex="0A20"/>
  <outline>
    <contour>
      <point x="425" y="145" type="curve" smooth="yes"/>
      <point x="425" y="237"/>
      <point x="354" y="294"/>
      <point x="237" y="294" type="curve" smooth="yes"/>
      <point x="119" y="294"/>
      <point x="47" y="237"/>
      <point x="47" y="145" type="curve" smooth="yes"/>
      <point x="47" y="52"/>
      <point x="119" y="-4"/>
      <point x="237" y="-4" type="curve" smooth="yes"/>
      <point x="354" y="-4"/>
      <point x="425" y="52"/>
    </contour>
    <contour>
      <point x="122" y="48" type="curve"/>
      <point x="99" y="75"/>
      <point x="87" y="104"/>
      <point x="87" y="145" type="curve" smooth="yes"/>
      <point x="87" y="219"/>
      <point x="132" y="264"/>
      <point x="235" y="264" type="curve" smooth="yes"/>
      <point x="276" y="264"/>
      <point x="310" y="259"/>
      <point x="349" y="243" type="curve"/>
      <point x="371" y="216"/>
      <point x="384" y="187"/>
      <point x="384" y="145" type="curve" smooth="yes"/>
      <point x="384" y="72"/>
      <point x="340" y="28"/>
      <point x="237" y="28" type="curve" smooth="yes"/>
      <point x="196" y="28"/>
      <point x="161" y="33"/>
    </contour>
    <contour>
      <point x="501" y="409" type="line"/>
      <point x="501" y="441" type="line"/>
      <point x="-29" y="441" type="line"/>
      <point x="-29" y="409" type="line"/>
    </contour>
    <contour>
      <point x="217" y="416" type="line"/>
      <point x="217" y="284" type="line"/>
      <point x="257" y="284" type="line"/>
      <point x="257" y="416" type="line"/>
    </contour>
    <contour>
      <point x="358" y="441" type="move" name="top"/>
    </contour>
    <contour>
      <point x="237" y="0" type="move" name="bottom"/>
    </contour>
  </outline>
</glyph>
<glyph name="grDDA" format="1">
  <advance width="455"/>
  <unicode hex="0A21"/>
  <outline>
    <contour>
      <point x="417" y="144" type="curve" smooth="yes"/>
      <point x="417" y="223"/>
      <point x="351" y="293"/>
      <point x="198" y="293" type="curve" smooth="yes"/>
      <point x="96" y="293"/>
      <point x="85" y="279"/>
      <point x="85" y="268" type="curve" smooth="yes"/>
      <point x="85" y="264"/>
      <point x="85" y="261"/>
      <point x="87" y="257" type="curve"/>
      <point x="109" y="251"/>
      <point x="157" y="247"/>
      <point x="195" y="247" type="curve" smooth="yes"/>
      <point x="229" y="247"/>
      <point x="260" y="252"/>
      <point x="296" y="260" type="curve"/>
      <point x="349" y="235"/>
      <point x="377" y="198"/>
      <point x="377" y="149" type="curve" smooth="yes"/>
      <point x="377" y="81"/>
      <point x="314" y="25"/>
      <point x="189" y="25" type="curve" smooth="yes"/>
      <point x="151" y="25"/>
      <point x="117" y="29"/>
      <point x="88" y="38" type="curve"/>
      <point x="79" y="49"/>
      <point x="74" y="62"/>
      <point x="74" y="78" type="curve" smooth="yes"/>
      <point x="74" y="112"/>
      <point x="104" y="139"/>
      <point x="171" y="139" type="curve" smooth="yes"/>
      <point x="235" y="139"/>
      <point x="303" y="109"/>
      <point x="360" y="75" type="curve"/>
      <point x="372" y="91" type="line"/>
      <point x="310" y="132"/>
      <point x="245" y="166"/>
      <point x="162" y="166" type="curve" smooth="yes"/>
      <point x="76" y="166"/>
      <point x="33" y="130"/>
      <point x="33" y="82" type="curve" smooth="yes"/>
      <point x="33" y="33"/>
      <point x="75" y="-4"/>
      <point x="190" y="-4" type="curve" smooth="yes"/>
      <point x="341" y="-4"/>
      <point x="417" y="63"/>
    </contour>
    <contour>
      <point x="365" y="418" type="curve"/>
      <point x="319" y="418" type="line"/>
      <point x="317" y="364"/>
      <point x="305" y="325"/>
      <point x="278" y="278" type="curve"/>
      <point x="306" y="267" type="line"/>
      <point x="340" y="312"/>
      <point x="358" y="361"/>
    </contour>
    <contour>
      <point x="484" y="409" type="line"/>
      <point x="484" y="441" type="line"/>
      <point x="-29" y="441" type="line"/>
      <point x="-29" y="409" type="line"/>
    </contour>
    <contour>
      <point x="343" y="441" type="move" name="top"/>
    </contour>
    <contour>
      <point x="216" y="0" type="move" name="bottom"/>
    </contour>
  </outline>
</glyph>
<glyph name="grDDHA" format="1">
  <advance width="442"/>
  <unicode hex="0A22"/>
  <outline>
    <contour>
      <point x="417" y="87" type="curve" smooth="yes"/>
      <point x="417" y="141"/>
      <point x="377" y="181"/>
      <point x="301" y="181" type="curve" smooth="yes"/>
      <point x="240" y="181"/>
      <point x="188" y="153"/>
      <point x="132" y="111" type="curve"/>
      <point x="146" y="87" type="line"/>
      <point x="200" y="126"/>
      <point x="247" y="152"/>
      <point x="298" y="152" type="curve" smooth="yes"/>
      <point x="322" y="152"/>
      <point x="340" y="150"/>
      <point x="362" y="141" type="curve"/>
      <point x="372" y="124"/>
      <point x="377" y="106"/>
      <point x="377" y="87" type="curve" smooth="yes"/>
      <point x="377" y="51"/>
      <point x="351" y="24"/>
      <point x="297" y="24" type="curve" smooth="yes"/>
      <point x="163" y="24"/>
      <point x="111" y="149"/>
      <point x="95" y="270" type="curve"/>
      <point x="363" y="270" type="line"/>
      <point x="362" y="416" type="line"/>
      <point x="323" y="416" type="line"/>
      <point x="323" y="300" type="line"/>
      <point x="89" y="300" type="line"/>
      <point x="28" y="350" type="line"/>
      <point x="17" y="348"/>
      <point x="10" y="342"/>
      <point x="6" y="331" type="curve"/>
      <point x="7" y="311"/>
      <point x="26" y="286"/>
      <point x="61" y="267" type="curve"/>
      <point x="77" y="126"/>
      <point x="152" y="-4"/>
      <point x="300" y="-4" type="curve" smooth="yes"/>
      <point x="378" y="-4"/>
      <point x="417" y="39"/>
    </contour>
    <contour>
      <point x="466" y="409" type="line"/>
      <point x="466" y="441" type="line"/>
      <point x="-30" y="441" type="line"/>
      <point x="-30" y="409" type="line"/>
    </contour>
    <contour>
      <point x="343" y="441" type="move" name="top"/>
    </contour>
    <contour>
      <point x="242" y="0" type="move" name="bottom"/>
    </contour>
  </outline>
</glyph>
<glyph name="grNNA" format="1">
  <advance width="440"/>
  <unicode hex="0A23"/>
  <outline>
    <contour>
      <point x="404" y="73" type="curve"/>
      <point x="368" y="94" type="line"/>
      <point x="333" y="64"/>
      <point x="298" y="42"/>
      <point x="254" y="27" type="curve"/>
      <point x="163" y="28"/>
      <point x="67" y="100"/>
      <point x="67" y="179" type="curve" smooth="yes"/>
      <point x="67" y="224"/>
      <point x="90" y="254"/>
      <point x="158" y="254" type="curve" smooth="yes"/>
      <point x="265" y="254" type="line"/>
      <point x="265" y="386" type="line"/>
      <point x="267" y="387" type="line"/>
      <point x="385" y="296" type="line"/>
      <point x="399" y="296"/>
      <point x="411" y="305"/>
      <point x="417" y="318" type="curve"/>
      <point x="287" y="407" type="line"/>
      <point x="288" y="409" type="line"/>
      <point x="469" y="409" type="line"/>
      <point x="469" y="441" type="line"/>
      <point x="-29" y="441" type="line"/>
      <point x="-29" y="409" type="line"/>
      <point x="227" y="409" type="line"/>
      <point x="227" y="286" type="line"/>
      <point x="144" y="286" type="line" smooth="yes"/>
      <point x="66" y="286"/>
      <point x="27" y="243"/>
      <point x="27" y="187" type="curve" smooth="yes"/>
      <point x="27" y="82"/>
      <point x="156" y="-4"/>
      <point x="259" y="-4" type="curve" smooth="yes"/>
      <point x="303" y="-4"/>
      <point x="360" y="29"/>
    </contour>
    <contour>
      <point x="262" y="441" type="move" name="top"/>
    </contour>
    <contour>
      <point x="233" y="0" type="move" name="bottom"/>
    </contour>
  </outline>
</glyph>
<glyph name="grTA" format="1">
  <advance width="430"/>
  <unicode hex="0A24"/>
  <outline>
    <contour>
      <point x="389" y="137" type="curve" smooth="yes"/>
      <point x="389" y="217"/>
      <point x="318" y="278"/>
      <point x="189" y="278" type="curve" smooth="yes"/>
      <point x="101" y="278"/>
      <point x="94" y="264"/>
      <point x="94" y="251" type="curve" smooth="yes"/>
      <point x="94" y="247"/>
      <point x="94" y="244"/>
      <point x="95" y="240" type="curve"/>
      <point x="116" y="234"/>
      <point x="159" y="229"/>
      <point x="194" y="229" type="curve" smooth="yes"/>
      <point x="228" y="229"/>
      <point x="250" y="234"/>
      <point x="285" y="242" type="curve"/>
      <point x="327" y="223"/>
      <point x="348" y="189"/>
      <point x="348" y="139" type="curve" smooth="yes"/>
      <point x="348" y="85"/>
      <point x="298" y="25"/>
      <point x="183" y="25" type="curve"/>
      <point x="139" y="39"/>
      <point x="88" y="62"/>
      <point x="47" y="87" type="curve"/>
      <point x="34" y="68" type="line"/>
      <point x="94" y="23"/>
      <point x="153" y="-4"/>
      <point x="210" y="-4" type="curve" smooth="yes"/>
      <point x="308" y="-4"/>
      <point x="389" y="56"/>
    </contour>
    <contour>
      <point x="354" y="421" type="curve"/>
      <point x="310" y="421" type="line"/>
      <point x="309" y="366"/>
      <point x="297" y="315"/>
      <point x="270" y="264" type="curve"/>
      <point x="296" y="255" type="line"/>
      <point x="332" y="301"/>
      <point x="349" y="364"/>
    </contour>
    <contour>
      <point x="459" y="409" type="line"/>
      <point x="459" y="441" type="line"/>
      <point x="-29" y="441" type="line"/>
      <point x="-29" y="409" type="line"/>
    </contour>
    <contour>
      <point x="332" y="441" type="move" name="top"/>
    </contour>
    <contour>
      <point x="217" y="0" type="move" name="bottom"/>
    </contour>
  </outline>
</glyph>
<glyph name="grTHA" format="1">
  <advance width="403"/>
  <unicode hex="0A25"/>
  <outline>
    <contour>
      <point x="316" y="260" type="line"/>
      <point x="316" y="291" type="line"/>
      <point x="111" y="291" type="line"/>
      <point x="111" y="260" type="line"/>
    </contour>
    <component base="grDHA"/>
  </outline>
</glyph>
<glyph name="grDA" format="1">
  <advance width="419"/>
  <unicode hex="0A26"/>
  <outline>
    <contour>
      <point x="396" y="71" type="curve"/>
      <point x="369" y="88" type="line"/>
      <point x="329" y="55"/>
      <point x="292" y="33"/>
      <point x="249" y="22" type="curve"/>
      <point x="189" y="40"/>
      <point x="136" y="91"/>
      <point x="117" y="185" type="curve" smooth="yes"/>
      <point x="107" y="237" type="line"/>
      <point x="345" y="237" type="line"/>
      <point x="345" y="416" type="line"/>
      <point x="305" y="416" type="line"/>
      <point x="305" y="269" type="line"/>
      <point x="99" y="269" type="line"/>
      <point x="36" y="320" type="line"/>
      <point x="25" y="318"/>
      <point x="18" y="311"/>
      <point x="14" y="300" type="curve"/>
      <point x="15" y="281"/>
      <point x="35" y="254"/>
      <point x="72" y="235" type="curve"/>
      <point x="96" y="53"/>
      <point x="200" y="-4"/>
      <point x="258" y="-4" type="curve" smooth="yes"/>
      <point x="299" y="-4"/>
      <point x="351" y="23"/>
    </contour>
    <contour>
      <point x="448" y="409" type="line"/>
      <point x="448" y="441" type="line"/>
      <point x="-29" y="441" type="line"/>
      <point x="-29" y="409" type="line"/>
    </contour>
    <contour>
      <point x="325" y="441" type="move" name="top"/>
    </contour>
    <contour>
      <point x="232" y="0" type="move" name="bottom"/>
    </contour>
  </outline>
</glyph>
<glyph name="grDHA" format="1">
  <advance width="395"/>
  <unicode hex="0A27"/>
  <outline>
    <contour>
      <point x="340" y="0" type="line"/>
      <point x="340" y="417" type="line"/>
      <point x="301" y="417" type="line"/>
      <point x="301" y="169" type="line"/>
      <point x="246" y="136"/>
      <point x="207" y="127"/>
      <point x="166" y="127" type="curve" smooth="yes"/>
      <point x="132" y="127"/>
      <point x="89" y="136"/>
      <point x="73" y="167" type="curve"/>
      <point x="109" y="216"/>
      <point x="131" y="261"/>
      <point x="131" y="312" type="curve" smooth="yes"/>
      <point x="131" y="355"/>
      <point x="119" y="387"/>
      <point x="95" y="423" type="curve"/>
      <point x="71" y="414" type="line"/>
      <point x="90" y="382"/>
      <point x="94" y="353"/>
      <point x="94" y="321" type="curve" smooth="yes"/>
      <point x="94" y="282"/>
      <point x="80" y="248"/>
      <point x="44" y="195" type="curve" smooth="yes"/>
      <point x="35" y="181"/>
      <point x="34" y="177"/>
      <point x="34" y="171" type="curve" smooth="yes"/>
      <point x="34" y="142"/>
      <point x="97" y="95"/>
      <point x="169" y="95" type="curve" smooth="yes"/>
      <point x="215" y="95"/>
      <point x="254" y="104"/>
      <point x="301" y="129" type="curve"/>
      <point x="304" y="127" type="line"/>
      <point x="301" y="65" type="line"/>
      <point x="301" y="0" type="line"/>
    </contour>
    <contour>
      <point x="424" y="409" type="line"/>
      <point x="424" y="441" type="line"/>
      <point x="-29" y="441" type="line"/>
      <point x="-29" y="409" type="line"/>
    </contour>
  </outline>
</glyph>
<glyph name="grNA" format="1">
  <advance width="464"/>
  <unicode hex="0A28"/>
  <outline>
    <contour>
      <point x="161" y="9" type="curve"/>
      <point x="91" y="58"/>
      <point x="77" y="99"/>
      <point x="77" y="141" type="curve" smooth="yes"/>
      <point x="77" y="209"/>
      <point x="128" y="261"/>
      <point x="232" y="261" type="curve" smooth="yes"/>
      <point x="284" y="261"/>
      <point x="322" y="250"/>
      <point x="364" y="222" type="curve"/>
      <point x="376" y="197"/>
      <point x="383" y="170"/>
      <point x="383" y="144" type="curve" smooth="yes"/>
      <point x="383" y="89"/>
      <point x="352" y="44"/>
      <point x="295" y="17" type="curve"/>
      <point x="299" y="7"/>
      <point x="308" y="-1"/>
      <point x="320" y="-6" type="curve"/>
      <point x="385" y="16"/>
      <point x="423" y="74"/>
      <point x="423" y="141" type="curve" smooth="yes"/>
      <point x="423" y="232"/>
      <point x="351" y="291"/>
      <point x="232" y="291" type="curve" smooth="yes"/>
      <point x="112" y="291"/>
      <point x="41" y="228"/>
      <point x="41" y="141" type="curve" smooth="yes"/>
      <point x="41" y="88"/>
      <point x="66" y="43"/>
      <point x="142" y="-6" type="curve"/>
      <point x="149" y="-4"/>
      <point x="155" y="1"/>
    </contour>
    <contour>
      <point x="252" y="278" type="line"/>
      <point x="252" y="421" type="line"/>
      <point x="212" y="421" type="line"/>
      <point x="212" y="278" type="line"/>
    </contour>
    <contour>
      <point x="493" y="409" type="line"/>
      <point x="493" y="441" type="line"/>
      <point x="-29" y="441" type="line"/>
      <point x="-29" y="409" type="line"/>
    </contour>
    <contour>
      <point x="333" y="441" type="move" name="top"/>
    </contour>
    <contour>
      <point x="231" y="0" type="move" name="bottom"/>
    </contour>
  </outline>
</glyph>
<glyph name="grPA" format="1">
  <advance width="395"/>
  <unicode hex="0A2A"/>
  <outline>
    <contour>
      <point x="340" y="0" type="line"/>
      <point x="340" y="409" type="line"/>
      <point x="424" y="409" type="line"/>
      <point x="424" y="441" type="line"/>
      <point x="301" y="441" type="line"/>
      <point x="301" y="169" type="line"/>
      <point x="246" y="136"/>
      <point x="207" y="127"/>
      <point x="166" y="127" type="curve" smooth="yes"/>
      <point x="132" y="127"/>
      <point x="93" y="135"/>
      <point x="72" y="166" type="curve"/>
      <point x="111" y="222"/>
      <point x="131" y="262"/>
      <point x="131" y="319" type="curve" smooth="yes"/>
      <point x="131" y="379"/>
      <point x="93" y="441"/>
      <point x="20" y="441" type="curve" smooth="yes"/>
      <point x="-29" y="441" type="line"/>
      <point x="-29" y="409" type="line" smooth="yes"/>
      <point x="26" y="409" type="line" smooth="yes"/>
      <point x="46" y="409"/>
      <point x="62" y="407"/>
      <point x="78" y="400" type="curve"/>
      <point x="89" y="377"/>
      <point x="94" y="353"/>
      <point x="94" y="325" type="curve" smooth="yes"/>
      <point x="94" y="283"/>
      <point x="77" y="244"/>
      <point x="44" y="195" type="curve" smooth="yes"/>
      <point x="35" y="181"/>
      <point x="34" y="177"/>
      <point x="34" y="171" type="curve" smooth="yes"/>
      <point x="34" y="140"/>
      <point x="97" y="95"/>
      <point x="169" y="95" type="curve" smooth="yes"/>
      <point x="215" y="95"/>
      <point x="254" y="104"/>
      <point x="301" y="129" type="curve"/>
      <point x="304" y="127" type="line"/>
      <point x="301" y="65" type="line"/>
      <point x="301" y="0" type="line"/>
    </contour>
  </outline>
</glyph>
<glyph name="grPHA" format="1">
  <advance width="419"/>
  <unicode hex="0A2B"/>
  <outline>
    <contour>
      <point x="382" y="90" type="curve" smooth="yes"/>
      <point x="382" y="145"/>
      <point x="341" y="189"/>
      <point x="264" y="189" type="curve" smooth="yes"/>
      <point x="204" y="189"/>
      <point x="152" y="161"/>
      <point x="96" y="116" type="curve"/>
      <point x="110" y="93" type="line"/>
      <point x="165" y="134"/>
      <point x="211" y="159"/>
      <point x="262" y="159" type="curve" smooth="yes"/>
      <point x="287" y="159"/>
      <point x="305" y="157"/>
      <point x="328" y="148" type="curve"/>
      <point x="337" y="132"/>
      <point x="343" y="112"/>
      <point x="343" y="91" type="curve" smooth="yes"/>
      <point x="343" y="51"/>
      <point x="315" y="25"/>
      <point x="262" y="25" type="curve" smooth="yes"/>
      <point x="148" y="25"/>
      <point x="72" y="117"/>
      <point x="72" y="200" type="curve" smooth="yes"/>
      <point x="72" y="250"/>
      <point x="103" y="275"/>
      <point x="166" y="275" type="curve" smooth="yes"/>
      <point x="328" y="275" type="line"/>
      <point x="328" y="420" type="line"/>
      <point x="289" y="420" type="line"/>
      <point x="289" y="304" type="line"/>
      <point x="150" y="304" type="line" smooth="yes"/>
      <point x="74" y="304"/>
      <point x="33" y="267"/>
      <point x="33" y="205" type="curve" smooth="yes"/>
      <point x="33" y="107"/>
      <point x="135" y="-4"/>
      <point x="265" y="-4" type="curve" smooth="yes"/>
      <point x="343" y="-4"/>
      <point x="382" y="40"/>
    </contour>
    <contour>
      <point x="448" y="409" type="line"/>
      <point x="448" y="441" type="line"/>
      <point x="-29" y="441" type="line"/>
      <point x="-29" y="409" type="line"/>
    </contour>
    <contour>
      <point x="308" y="441" type="move" name="top"/>
    </contour>
    <contour>
      <point x="224" y="0" type="move" name="bottom"/>
    </contour>
  </outline>
</glyph>
<glyph name="grBA" format="1">
  <advance width="397"/>
  <unicode hex="0A2C"/>
  <outline>
    <contour>
      <point x="341" y="0" type="line"/>
      <point x="341" y="409" type="line"/>
      <point x="426" y="409" type="line"/>
      <point x="426" y="441" type="line"/>
      <point x="-29" y="441" type="line"/>
      <point x="-29" y="409" type="line"/>
      <point x="37" y="409" type="line"/>
      <point x="44" y="357"/>
      <point x="72" y="309"/>
      <point x="125" y="288" type="curve"/>
      <point x="125" y="285" type="line"/>
      <point x="76" y="282"/>
      <point x="45" y="250"/>
      <point x="45" y="207" type="curve" smooth="yes"/>
      <point x="45" y="148"/>
      <point x="103" y="94"/>
      <point x="186" y="94" type="curve" smooth="yes"/>
      <point x="238" y="94"/>
      <point x="275" y="108"/>
      <point x="318" y="136" type="curve"/>
      <point x="314" y="171" type="line"/>
      <point x="273" y="142"/>
      <point x="228" y="124"/>
      <point x="188" y="124" type="curve" smooth="yes"/>
      <point x="157" y="124"/>
      <point x="135" y="129"/>
      <point x="112" y="138" type="curve"/>
      <point x="96" y="155"/>
      <point x="84" y="176"/>
      <point x="84" y="200" type="curve" smooth="yes"/>
      <point x="84" y="242"/>
      <point x="107" y="262"/>
      <point x="157" y="262" type="curve" smooth="yes"/>
      <point x="320" y="262" type="line"/>
      <point x="320" y="292" type="line"/>
      <point x="194" y="292" type="line" smooth="yes"/>
      <point x="138" y="293"/>
      <point x="85" y="333"/>
      <point x="79" y="409" type="curve"/>
      <point x="302" y="409" type="line"/>
      <point x="302" y="0" type="line"/>
    </contour>
  </outline>
</glyph>
